<?xml version="1.0" encoding="UTF-8" standalone="no"?>
<!-- Created with Inkscape (http://www.inkscape.org/) -->

<svg
   width="269.71216"
   height="312.38904"
   viewBox="0 0 71.36134 82.652933"
   version="1.1"
   id="svg1"
   xml:space="preserve"
   xmlns="http://www.w3.org/2000/svg"
   xmlns:svg="http://www.w3.org/2000/svg"><defs
     id="defs1" /><path
     d="m 7.5330889,39.826836 c 0.06621,0.145313 0.249795,0.104835 0.318046,0.235262 0.08381,0.160151 0.0228,0.381177 0.145976,0.513001 0.141387,0.151315 0.399363,0.100445 0.549424,0.253573 0.104096,0.106222 0.08916,0.424686 0.22529,0.504405 0.125429,0.07345 0.412268,-0.01343 0.544831,0.05361 0.170292,0.08613 -0.09933,0.404645 0.04264,0.514935 0.07249,0.05631 0.189904,0.136406 0.299152,0.278416 0.07174,0.09325 0.132597,0.264702 0.200735,0.292787 0.09776,0.0403 0.1789891,-0.07483 0.2641271,-0.08179 0.164747,-0.01347 0.308636,0.05858 0.366466,0.206227 0.03875,0.09893 -0.128279,0.271001 -0.153444,0.38048 -0.0444,0.193149 0.02487,0.328096 0.101704,0.499067 0.04499,0.100113 0.08767,0.36159 0.151921,0.448999 0.122821,0.1671 0.317502,0.150706 0.491508,0.254812 0.145061,0.08679 0.217873,0.404876 0.371256,0.502811 0.09714,0.06202 0.222269,0.02159 0.308735,0.108426 0.09308,0.09349 0.147527,0.31391 0.254593,0.366442 0.07388,0.03625 0.155193,0.05259 0.237996,0.06479 0.05119,0.0075 0.08948,-0.09848 0.171413,-0.116622 0.129102,-0.02858 0.309001,0.02679 0.379597,0.06476 0.10569,0.05684 0.253396,0.161172 0.296271,0.289172 0.04081,0.121837 -0.02309,0.267553 0.0671,0.320255 0.115439,0.06746 0.308349,-0.06084 0.455041,-0.03919 0.181628,0.0268 0.313084,0.207628 0.3845,0.373986 0.02348,0.0547 0.0588,0.234494 -0.03555,0.349692 -0.09219,0.112562 -0.31404,0.160522 -0.297526,0.216917 0.09037,0.308618 -0.05525,0.645792 -0.05029,0.973545 0.0041,0.271996 0.16429,0.537503 0.172959,0.774814 0.0087,0.238823 0.259591,0.336448 0.158668,0.582365 -0.05402,0.131626 -0.04209,0.454423 -0.135006,0.561012 -0.048,0.05506 -0.176828,-0.04115 -0.305639,-0.03826 -0.113359,0.0025 -0.226705,0.105167 -0.284936,0.130515 -0.13214,0.05752 -0.01459,0.174686 -0.06246,0.284187 -0.02377,0.05439 -0.195537,0.09714 -0.24672,0.149047 -0.09692,0.09829 -0.04481,0.319595 -0.109748,0.44974 -0.05714,0.11451 -0.231175,0.138001 -0.311944,0.229019 -0.09408,0.10602 -0.272184,0.115258 -0.391312,0.196751 -0.161058,0.110177 -0.267861,0.288179 -0.41603,0.412957 -0.119334,0.100495 -0.234166,0.311255 -0.375686,0.39176 -0.182677,0.103917 -0.392589,0.07697 -0.533805,0.216931 -0.101729,0.100824 -0.04884,0.579695 -0.119147,0.704458 -0.04642,0.08237 -0.212209,-0.186612 -0.277495,-0.118186 -0.100812,0.10566 -0.4219671,0.05581 -0.5235251,0.161019 -0.09898,0.102537 0.12654,0.451674 0.02977,0.555854 -0.106481,0.114636 -0.137045,0.344379 -0.24643,0.456784 -0.08226,0.08453 -0.247314,0.228448 -0.399945,0.242425 -0.150901,0.01382 -0.289365,-0.102294 -0.374237,-0.02263 -0.136319,0.127963 -0.112797,0.260318 -0.240601,0.396311 -0.128645,0.136887 0.0133,0.329198 -0.116394,0.472688 -0.09796,0.10838 -0.513722,-0.02874 -0.623563,0.08029 -0.08153,0.08093 -0.21058,0.2645 -0.249427,0.477807 -0.03204,0.175913 0.02624,0.384462 -0.03057,0.463613 -0.15109,0.210504 -0.430145,-0.01473 -0.590758,0.109043 -0.06182,0.04764 -0.229275,0.177693 -0.275047,0.27054 -0.06367,0.129141 -0.02259,0.326346 -0.140139,0.427484 -0.07956,0.06845 -0.322904,0.04383 -0.371117,0.112483 -0.159319,0.226848 0.05044,0.504226 0.01131,0.775915 -0.01531,0.106291 -0.163488,0.38665 -0.356818,0.486199 -0.151655,0.07809 -0.344857,-0.02079 -0.378826,0.05721 -0.06683,0.153462 0.131791,0.272296 0.139227,0.428602 0.02757,0.579545 0.224943,1.207879 0.132397,1.757334 -0.03303,0.196106 0.262881,0.692039 0.178477,0.872791 -0.06808,0.145806 -0.435118,-0.0057 -0.600113,0.06188 -0.170817,0.06997 -0.139537,0.35901 -0.199221,0.513995 -0.04404,0.11435 -0.345153,0.338318 -0.390124,0.452647 -0.106255,0.270133 0.03319,0.469714 0.01216,0.714098 -0.01642,0.190799 -0.194935,0.423193 -0.24289,0.644089 -0.0476,0.219238 -0.204073,0.459508 -0.243031,0.68284 -0.084413,0.483905 -0.022606,0.955878 0.03608,1.438423 0.03575,0.293943 0.143923,0.231783 0.232424,0.52128 0.04729,0.154693 0.219728,0.172167 0.276496,0.4039 0.06009,0.245285 0.006,0.704198 0.111938,0.833915 0.168541,0.206371 0.406255,0.131957 0.660355,0.239763 0.188159,0.07983 0.147504,0.446261 0.332199,0.574795 0.07943,0.05527 0.149644,0.429503 0.261148,0.449186 0.204125,0.03603 0.460592,-0.298927 0.557131,-0.177246 0.151019,0.19035 0.408216,0.351179 0.442909,0.596318 0.03773,0.266586 -0.150938,0.619516 -0.06873,0.870642 0.05236,0.159927 0.374523,0.05136 0.426427,0.216173 0.09949,0.315908 -0.06027,0.902505 0.130677,1.162464 0.119393,0.162542 0.299106,-0.04436 0.472851,0.06431 0.156141,0.09766 0.303943,0.513515 0.458435,0.608287 0.144621,0.08872 0.132766,0.362271 0.286319,0.557839 0.113195,0.144165 0.391442,0.220895 0.502529,0.278627 0.09487,0.0493 0.188882,-0.04331 0.282724,-0.04089 0.243551,0.0063 0.4859591,0.02309 0.7392611,0.135713 0.227831,0.101298 -0.109831,0.565997 0.121565,0.659855 0.23073,0.09359 0.650463,-0.06649 1.044833,-0.08811 0.292351,-0.01602 0.570765,0.101729 0.747912,0.152585 0.159538,0.0458 -0.11828,0.3225 0.04398,0.356994 0.306382,0.06513 0.682994,-0.114254 1.087972,-0.115273 0.190867,-4.8e-4 0.09379,0.407124 0.284067,0.442088 0.32496,0.05971 0.927069,-0.231177 1.170888,-0.166427 0.201542,0.05352 0.497613,-0.11623 0.69937,-0.05872 0.273135,0.07786 0.449578,0.389451 0.697559,0.524359 0.261474,0.142249 0.309164,0.521648 0.530954,0.723049 0.107332,0.09747 0.423538,-0.01485 0.503808,0.104761 0.110986,0.165384 0.158971,0.363603 0.188092,0.570743 0.02109,0.150028 -0.06054,0.325175 -0.0084,0.446307 0.04546,0.105699 0.223615,0.157927 0.260993,0.276333 0.04213,0.133468 -0.02297,0.364757 0.07674,0.465712 0.177415,0.179635 0.213375,0.40098 0.471558,0.450279 0.221561,0.04231 0.66132,-0.07959 0.873632,-0.03637 0.14184,0.02887 0.329,-0.03142 0.478778,-0.0338 0.23348,-0.0037 0.437304,0.07246 0.605193,0.288642 0.09853,0.126864 0.159236,0.403701 0.274154,0.469489 0.236279,0.135264 0.404878,0.07188 0.557713,0.231301 0.131036,0.136678 0.134074,0.566047 0.274656,0.751749 0.133781,0.176719 0.40311,0.110794 0.603364,0.206927 0.208817,0.100244 0.50604,0.209426 0.746883,0.179985 0.189893,-0.02321 0.323976,-0.167206 0.49483,-0.231725 0.07784,-0.02939 0.182347,-0.249344 0.377611,-0.29523 0.159877,-0.03757 0.416772,0.101842 0.465865,0.05172 0.22673,-0.231478 -0.0576,-0.543197 0.243025,-0.636037 0.158584,-0.04897 0.396415,0.18885 0.564374,0.1646 0.397851,-0.05744 0.899623,-0.009 1.276856,-0.007 0.277055,0.0014 0.43638,-0.08115 0.693936,0.04938 0.168098,0.08519 -0.08827,0.399704 0.01241,0.57221 0.04356,0.07464 0.149907,0.23875 0.295776,0.265023 0.129403,0.02331 0.297704,-0.08914 0.364407,-0.06116 0.143242,0.06008 0.369235,0.153687 0.526356,0.130206 0.242355,-0.03622 0.614705,-0.002 0.836997,-0.06799 0.146612,-0.04353 0.145269,-0.22368 0.292267,-0.165687 0.275629,0.10874 0.347394,0.385184 0.524238,0.640663 0.08814,0.127333 0.179554,0.149489 0.27603,0.278242 0.115629,0.154315 0.384867,0.178212 0.518116,0.333394 0.06563,0.07643 0.168163,0.07824 0.21354,0.169314 0.0759,0.152332 0.09055,0.38998 0.227171,0.440959 0.258412,0.09643 0.596082,0.05092 0.868434,0.03073 0.06994,-0.0052 0.101391,-0.162474 0.166328,-0.134202 0.186538,0.08121 0.113575,0.270104 0.206405,0.479511 0.06369,0.143666 0.257614,0.200045 0.372913,0.358561 0.163976,0.225435 0.262448,0.526513 0.403714,0.455379 l -1.32e-4,2.7e-5 c 0.189343,-0.09534 0.398993,-0.120049 0.635907,-0.192687 0.183686,-0.05632 -0.01375,-0.399883 0.120361,-0.555567 0.112216,-0.130264 0.555296,-0.06865 0.702448,-0.174991 0.132496,-0.09575 0.428944,0.0028 0.560523,-0.103407 0.191171,-0.154332 0.125745,-0.627185 0.317242,-0.786455 0.173346,-0.144174 0.943258,0.0454 1.172776,-0.0216 0.305553,-0.08919 0.07718,-0.421188 0.319365,-0.545245 0.148852,-0.07625 0.606342,0.127613 0.7757,0.08302 0.24896,-0.06555 0.207074,-0.496581 0.362542,-0.648394 0.139773,-0.136488 0.481147,0.01233 0.620853,-0.158957 0.338431,-0.414927 0.02959,-1.226004 0.07075,-1.781828 0.01552,-0.209597 0.253416,-0.210296 0.343149,-0.391174 0.08629,-0.173926 0.307458,0.113109 0.462609,-0.01529 0.101525,-0.08402 0.116728,-0.460227 0.191918,-0.648205 0.08454,-0.211349 0.225583,-0.237903 0.276758,-0.371263 0.04858,-0.126608 -0.08995,-0.337252 -0.126851,-0.48571 -0.03818,-0.153622 0.02599,-0.24454 0.126851,-0.342099 0.288611,-0.279151 0.591993,-0.03133 1.03037,-0.06225 0.365547,-0.02579 0.859491,0.04547 1.245826,0.05229 0.345006,0.0061 0.588479,-0.0654 0.828092,0.113443 0.213277,0.159187 0.09466,0.343091 0.134857,0.623774 0.02025,0.141385 0.257665,0.227914 0.326438,0.386999 0.07448,0.172282 -0.01754,0.416248 0.05608,0.541371 0.179192,0.304541 0.295783,0.231183 0.547435,0.487403 0.05879,0.05986 0.0812,0.361316 0.161537,0.489011 0.12222,0.194259 0.31053,0.224384 0.429266,0.2653 0.124435,0.04288 0.327684,0.102189 0.460228,0.0622 0.07874,-0.02376 0.09111,-0.1299 0.16063,-0.165679 0.09147,-0.04707 0.402592,0.103454 0.478852,0.03488 0.09649,-0.08677 -0.0022,-0.344457 0.06216,-0.467503 0.08187,-0.15641 0.526774,-0.220456 0.626254,-0.363133 0.05244,-0.07521 0.175078,-0.118875 0.187996,-0.197135 0.0292,-0.176941 -0.08878,-0.38031 0.09341,-0.455774 0.111842,-0.04633 0.302032,-0.09994 0.389598,-0.02756 0.07035,0.05814 0.03554,0.239761 0.135061,0.252869 0.189296,0.02493 0.567657,0.171843 0.786742,0.123787 0.216857,-0.04757 0.274515,-0.289674 0.447694,-0.349093 0.160253,-0.05498 0.07376,-0.280863 0.228565,-0.387454 0.10332,-0.07114 0.461216,0.0022 0.530603,-0.120994 0.05019,-0.08908 -0.04645,-0.234825 -0.0339,-0.373884 0.01073,-0.118893 0.128343,-0.235354 0.185873,-0.280059 0.15069,-0.117098 0.339048,-0.229444 0.529911,-0.233342 0.176266,-0.0036 0.358705,0.104131 0.421517,-0.05293 0.03264,-0.08161 0.09401,-0.217213 0.04243,-0.309084 -0.06659,-0.118598 -0.254348,-0.194794 -0.234013,-0.306567 0.04549,-0.250055 -0.01322,-0.551511 0.0046,-0.809246 0.03658,-0.528749 -0.02618,-1.085373 -0.0465,-1.660031 -0.01061,-0.299895 0.103485,-0.657942 0.0073,-0.905609 -0.0522,-0.134346 -0.323607,-0.01934 -0.394643,-0.148512 -0.05849,-0.106362 -0.26767,-0.183381 -0.351622,-0.327234 -0.09397,-0.161027 -0.06575,-0.387286 -0.187568,-0.462087 -0.09554,-0.05867 -0.159398,-0.207948 -0.25896,-0.240332 -0.150115,-0.04883 -0.254639,0.09484 -0.337404,0.09467 -0.08249,-1.7e-4 -0.143369,-0.144017 -0.20623,-0.291309 -0.02137,-0.05008 0.04715,-0.221054 0.12867,-0.311332 0.08458,-0.09367 -0.02792,-0.225661 -0.04139,-0.281557 -0.05341,-0.22166 -0.08552,-0.410641 -0.06695,-0.684628 0.01435,-0.211729 0.07738,-0.514747 0.06898,-0.669296 -0.0049,-0.08953 -0.107441,-0.265005 0.0783,-0.39914 0.06697,-0.04836 0.199058,0.01157 0.31893,-0.0251 0.152867,-0.04676 0.291596,-0.187605 0.312038,-0.228942 0.03745,-0.07572 0.08582,-0.145105 0.172067,-0.185768 0.06619,-0.0312 0.173482,-0.03422 0.201274,-0.0786 0.09163,-0.146337 0.0081,-0.348189 0.143799,-0.412448 0.09779,-0.0463 0.319448,0.02885 0.400015,-0.02669 0.134169,-0.09249 0.02035,-0.391056 0.121546,-0.543165 0.0633,-0.09514 0.344339,-0.03276 0.40999,-0.136421 0.05576,-0.08805 -0.0097,-0.181745 0.05555,-0.268688 0.05002,-0.06671 0.229592,-0.121911 0.280682,-0.21312 0.04785,-0.08542 0.214982,-0.228593 0.221637,-0.331862 0.01743,-0.270442 -0.04668,-0.529644 -0.03386,-0.755379 0.005,-0.08748 -0.05624,-0.193252 0.01918,-0.257951 0.11896,-0.102058 0.259514,0.108877 0.429553,0.149512 0.129311,0.0309 0.543334,0.08596 0.654348,0.04256 0.17968,-0.07025 0.101659,-0.302169 0.175149,-0.516959 0.02877,-0.08409 0.16595,-0.165551 0.222804,-0.233662 0.07618,-0.09127 0.44771,-0.01733 0.508618,-0.09927 0.126183,-0.169767 0.06232,-0.326672 0.167865,-0.499679 0.08936,-0.146483 0.280384,-0.210482 0.389984,-0.351224 0.0538,-0.06908 0.08846,-0.234035 0.217328,-0.299311 0.09063,-0.0459 0.283315,0.0083 0.321643,-0.04046 0.07869,-0.100193 0.22743,-0.191268 0.26405,-0.283975 0.05511,-0.139523 -0.0049,-0.271173 0.166849,-0.350949 0.136679,-0.06349 0.298495,0.03608 0.455915,0.04228 0.13305,0.0052 0.262959,-0.07974 0.371895,-0.145757 0.06831,-0.0414 0.21107,-0.05425 0.265633,-0.109758 0.03866,-0.03933 0.04818,-0.180379 0.09519,-0.210373 0.09744,-0.06218 0.235299,-0.009 0.28195,-0.119965 0.04736,-0.112644 -0.01073,-0.257311 0.01467,-0.392981 0.02091,-0.111684 0.104424,-0.139395 0.201717,-0.118699 0.07383,0.01571 0.159481,0.08256 0.209317,0.0273 0.04653,-0.05159 0.0024,-0.277378 0.04127,-0.36733 0.06665,-0.154072 0.217856,-0.174927 0.334994,-0.157787 0.111968,0.01638 0.218044,0.08611 0.298081,0.0022 0.07323,-0.07678 -0.0063,-0.335258 0.0952,-0.436867 0.0669,-0.06696 0.321105,0.02735 0.364087,-0.04369 0.03756,-0.06208 -0.09687,-0.169657 -0.09104,-0.291954 0.0032,-0.06788 0.119305,-0.165609 0.165976,-0.202246 0.106793,-0.08383 0.462265,0.02461 0.502712,-0.05516 0.07936,-0.156504 0.201341,-0.266553 0.224523,-0.390295 0.02492,-0.133037 -0.04725,-0.2762 0.100008,-0.340141 0.102733,-0.04461 0.226375,0.02352 0.34329,0.02792 0.209132,0.0079 0.416859,-0.02724 0.587996,-0.131392 0.03688,-0.02245 0.0312,-0.143485 0.103982,-0.187078 0.07484,-0.04483 0.227938,-0.0125 0.247257,-0.05527 0.07012,-0.155208 -0.07942,-0.30247 0.06267,-0.378514 0.136103,-0.07284 0.224858,0.04816 0.384262,0.06747 0.152774,0.01851 0.44117,0.01251 0.609876,0.01951 0.245235,0.01018 0.3699,0.01727 0.558003,-0.08698 0.08378,-0.04643 -0.01637,-0.222284 0.04945,-0.287372 0.07784,-0.07698 0.318536,-0.04644 0.37839,-0.142227 0.08441,-0.135093 0.05416,-0.294121 0.121304,-0.447732 0.03505,-0.08018 0.37069,-0.01424 0.417917,-0.09376 0.05661,-0.09532 0.109211,-0.26304 0.09809,-0.390756 -0.01097,-0.126001 -0.08566,-0.212093 -0.03039,-0.293777 0.120341,-0.177865 0.228511,-0.07527 0.34527,-0.256998 0.02309,-0.03594 -0.105449,-0.114644 -0.106344,-0.207272 -3.6e-4,-0.03728 0.111931,-0.08448 0.121264,-0.120235 0.02696,-0.10327 0.130629,-0.178768 0.203948,-0.238568 0.03875,-0.03161 0.146709,-0.101117 0.21937,-0.0903 0.102157,0.01521 0.170277,0.117732 0.190457,0.08312 0.04564,-0.07827 0.0548,-0.28051 0.109115,-0.299267 0.07954,-0.02746 0.20357,0.139669 0.249785,0.028 0.04768,-0.115208 -0.0776,-0.371165 0.0049,-0.506249 0.05678,-0.09298 0.327519,-0.06131 0.354192,-0.15929 0.04746,-0.17433 0.151886,-0.351167 0.180444,-0.511108 0.01376,-0.07703 -0.04464,-0.166863 -0.03987,-0.251342 0.0052,-0.09228 0.0752,-0.178177 0.133523,-0.234043 0.09726,-0.09316 0.277738,-0.152003 0.493829,-0.159363 0.136278,-0.0046 0.319772,0.04425 0.401258,0.01368 0.09246,-0.03468 0.09572,-0.210877 0.205052,-0.262903 0.09699,-0.04615 0.304731,0.03464 0.324701,-0.03806 0.01237,-0.04502 0.02029,-0.20815 0.08173,-0.277571 0.04994,-0.05644 0.153855,-0.01992 0.17416,-0.05786 0.103629,-0.193632 0.03386,-0.521189 0.0064,-0.86168 -0.01852,-0.229589 0.04205,-0.48501 -0.03897,-0.633569 -0.03678,-0.06745 -0.192191,-0.0608 -0.277161,-0.118474 -0.0606,-0.04113 -0.05841,-0.146439 -0.07441,-0.19164 -0.01958,-0.05532 -0.327933,0.04003 -0.429116,0.0025 -0.134464,-0.04981 -0.07122,-0.229103 -0.115692,-0.284884 -0.07481,-0.09383 -0.0059,-0.387658 -0.08428,-0.464995 -0.07721,-0.07621 -0.209902,0.0049 -0.279933,-0.05871 -0.03557,-0.03233 -6.95e-4,-0.217375 -0.04539,-0.243014 -0.105838,-0.06071 -0.355921,0.06906 -0.465268,0.009 -0.05024,-0.02758 -0.03774,-0.267315 -0.07447,-0.313854 -0.05219,-0.06614 -0.221507,0.0058 -0.268419,-0.04332 -0.06503,-0.06805 -0.187358,-0.06695 -0.234325,-0.19961 -0.05284,-0.149245 -0.04727,-0.456252 -0.05291,-0.622248 -0.0036,-0.106225 -0.08772,-0.326694 -0.01669,-0.439658 0.03561,-0.05663 0.226602,-0.01777 0.25253,-0.06145 0.06308,-0.106263 0.168107,-0.209594 0.332925,-0.215571 0.151798,-0.0055 0.361255,0.08406 0.479401,0.04922 0.104406,-0.03079 0.130267,-0.14984 0.191304,-0.190685 0.05718,-0.03826 0.150824,0.0033 0.207777,-0.07175 0.02102,-0.0277 0.01383,-0.200629 0.04624,-0.229021 0.05863,-0.05136 0.163705,0.03774 0.210355,-0.04257 0.07433,-0.127967 0.02341,-0.503676 0.131652,-0.58419 0.09867,-0.0734 0.381125,0.06602 0.392834,-0.02679 0.02963,-0.234911 -0.05819,-0.488823 -0.06775,-0.788346 -0.01057,-0.331002 0.05623,-0.709612 0.07772,-0.999828 0.01215,-0.164083 -0.114,-0.311603 -0.033,-0.431207 0.04672,-0.06898 0.422466,0.07362 0.584783,0.01759 0.152891,-0.05278 0.0896,-0.30654 0.22986,-0.298206 0.218098,0.01296 0.302108,0.211708 0.381776,0.137784 0.07786,-0.07225 0.02665,-0.176487 0.01393,-0.269542 -0.01204,-0.08802 0.01614,-0.164108 0.02368,-0.25926 0.01605,-0.202449 0.361128,-0.02172 0.601107,-0.01817 0.240044,0.0035 0.435228,-0.09955 0.607318,0.03168 0.107131,0.08169 0.08641,0.260622 0.180897,0.376955 0.06691,0.08239 0.284851,0.05293 0.446509,0.164405 0.06168,0.04253 0.05283,0.149158 0.09418,0.230348 0.0366,0.07186 0.124405,0.11785 0.161272,0.168803 0.0468,0.06468 -0.0044,0.187137 8.5e-5,0.271082 0.0066,0.122202 0.05962,0.203735 0.110478,0.246445 0.142588,0.119752 0.269582,0.205371 0.401244,0.182971 0.08421,-0.01433 0.159509,-0.121481 0.277369,-0.133096 0.125196,-0.01234 0.0062,-0.19816 0.05281,-0.347302 0.02482,-0.07936 0.208004,-0.122102 0.253493,-0.180767 0.09649,-0.124433 0.185458,0.04258 0.294726,-0.06463 0.05199,-0.05101 -0.0766,-0.2421 -0.02586,-0.343888 0.08298,-0.166453 0.458209,-0.01559 0.496168,-0.119343 0.05121,-0.139985 0.0069,-0.400151 0.0332,-0.557698 0.05939,-0.355451 0.01913,-0.718683 -0.005,-1.086486 -0.01589,-0.241906 0.0039,-0.743766 0.02766,-1.123951 0.0093,-0.148785 0.07347,-0.278934 0.05486,-0.367576 -0.03356,-0.159796 -0.469594,-0.103671 -0.525126,-0.249502 -0.04588,-0.120483 -0.234447,-0.23167 -0.29403,-0.366519 -0.0635,-0.143708 8.72e-4,-0.309325 -0.08455,-0.37501 -0.08757,-0.06734 -0.109943,-0.246133 -0.202511,-0.278076 -0.159051,-0.05489 -0.382502,0.03808 -0.468556,-0.188124 -0.05354,-0.140737 -0.01203,-0.36336 -0.03798,-0.516221 -0.03144,-0.185198 -0.06582,-0.353386 -0.0722,-0.519264 -0.0053,-0.136559 0.0085,-0.271553 0.05844,-0.413183 0.04788,-0.135699 0.06959,-0.199788 0.195911,-0.231448 0.0683,-0.01712 0.238367,0.01408 0.297868,-0.0397 0.04175,-0.03773 0.141217,-0.124567 0.163962,-0.217455 0.02752,-0.112369 -0.02334,-0.233596 0.01485,-0.287473 0.07646,-0.10787 0.0039,-0.300381 0.0082,-0.479248 0.003,-0.126043 0.07167,-0.245309 0.136907,-0.323409 0.04811,-0.0576 0.163136,-0.05022 0.227705,-0.09226 0.09714,-0.06323 -0.0055,-0.223237 0.07547,-0.287807 0.04857,-0.03875 0.350171,3.5e-5 0.419318,-0.02566 0.107726,-0.04003 0.03244,-0.419582 0.01513,-0.514669 -0.02066,-0.113417 -0.364382,0.02141 -0.42297,-0.07135 -0.05134,-0.0813 -0.0041,-0.337051 -0.06045,-0.416664 -0.04075,-0.05755 -0.232275,-0.0083 -0.281327,-0.05401 -0.07137,-0.0665 0.08135,-0.340129 0.0134,-0.39659 -0.0508,-0.04221 -0.196946,0.04978 -0.281019,0.04503 -0.06537,-0.0037 -0.10081,-0.214532 -0.162504,-0.225674 -0.112274,-0.02028 -0.394406,-0.01814 -0.506751,-0.02184 -0.101488,-0.0033 0.05752,0.216308 -0.0099,0.288736 -0.04219,0.04535 -0.284104,-0.06325 -0.338904,-0.01638 -0.0902,0.07714 -0.01227,0.50109 -0.07111,0.608494 -0.06362,0.116147 -0.263926,-0.0852 -0.365085,-0.03448 -0.110124,0.05521 -0.528766,0.03093 -0.836403,-0.0086 -0.14289,-0.01834 -0.261832,-0.09018 -0.314789,-0.06818 -0.0815,0.03384 -0.222427,0.163483 -0.276124,0.333027 -0.04265,0.134651 1.25e-4,0.314735 -0.04532,0.347517 -0.37913,0.273473 -0.646035,-0.177437 -1.220883,-0.07781 -0.374077,0.06483 -0.881942,-0.03412 -1.252162,0.02119 -0.227506,0.03399 -0.56223,-0.118213 -0.758253,-0.04744 l -9.3e-5,-3.4e-5 c 0,0 0.148189,-0.07416 0.218369,-0.250114 0.04159,-0.10423 -0.003,-0.29456 0.03799,-0.38925 0.03603,-0.08324 0.160634,-0.04858 0.153234,-0.11899 -0.0072,-0.06809 0.08545,-0.243729 0.04994,-0.326279 -0.04356,-0.101254 -0.221136,-0.108134 -0.290766,-0.165584 -0.06126,-0.05055 -0.148862,0.0288 -0.198952,-0.02552 -0.07794,-0.08452 -0.16694,-0.192386 -0.18758,-0.345823 -0.01237,-0.09194 0.04126,-0.233402 0.02079,-0.303432 -0.03596,-0.123004 -0.13031,-0.111914 -0.20831,-0.204424 -0.0426,-0.05052 -0.183382,0.05849 -0.309774,0.05269 -0.103061,-0.0048 -0.196556,-0.120601 -0.219446,-0.177171 -0.05104,-0.126121 -0.02376,-0.264398 -0.0984,-0.353048 -0.07532,-0.08946 -0.24287,-0.03554 -0.32398,-0.122516 -0.04796,-0.05143 -0.01037,-0.214199 -0.07023,-0.253629 -0.09392,-0.06186 -0.211274,0.130641 -0.349223,0.130454 -0.05226,-7e-5 -0.151792,-0.13858 -0.189332,-0.16707 -0.0605,-0.04592 -0.0035,-0.246141 -0.03576,-0.341441 -0.04016,-0.118662 -0.168861,-0.131602 -0.254541,-0.144782 -0.0428,-0.0066 -0.229103,-0.033 -0.287723,0.02652 -0.08566,0.08699 -0.04552,0.269379 -0.09926,0.237629 -0.153105,-0.09047 -0.363887,-0.149987 -0.424557,-0.324097 -0.05451,-0.156583 0.0395,-0.42563 -0.05821,-0.555518 -0.05135,-0.06824 -0.28625,-0.01747 -0.34504,-0.07754 -0.08715,-0.08905 -0.308111,-0.118334 -0.376021,-0.223042 -0.06558,-0.101131 0.02201,-0.277836 -0.06888,-0.356856 -0.08705,-0.07569 -0.276008,-0.06246 -0.357038,-0.144435 -0.08828,-0.08931 -0.08687,-0.349867 -0.214567,-0.403767 -0.136473,-0.05761 -0.402007,0.0914 -0.489187,-0.01083 -0.08524,-0.09996 -0.03692,-0.338592 -0.07232,-0.464948 -0.03544,-0.126403 -0.0792,-0.270618 -0.02684,-0.40137 0.04546,-0.113545 0.188874,-0.213757 0.156184,-0.322964 -0.03609,-0.120562 -0.213788,-0.117372 -0.322119,-0.195592 -0.08594,-0.06206 -0.104264,-0.20412 -0.143524,-0.29592 -0.08063,-0.188527 -0.178454,-0.371557 -0.171454,-0.581743 0.0048,-0.143819 0.09999,-0.314109 0.119714,-0.453019 0.02229,-0.156971 -0.214384,-0.420258 -0.157854,-0.570165 0.03778,-0.100197 0.356825,-0.0925 0.416545,-0.180037 0.04889,-0.07167 0.203453,-0.115146 0.238143,-0.213496 0.02926,-0.08309 -0.06402,-0.223859 -0.0012,-0.265049 0.124932,-0.08192 0.377723,0.0029 0.461473,-0.116443 0.04832,-0.06883 0.02388,-0.209294 0.09753,-0.275454 0.06985,-0.06274 0.238311,-0.05084 0.267651,-0.127442 0.04813,-0.125669 -0.0419,-0.294698 -0.05475,-0.424914 -0.013,-0.132341 0.06958,-0.380958 -0.0082,-0.558204 -0.03887,-0.08858 -0.253648,-0.101117 -0.268928,-0.188767 -0.02181,-0.125119 0.164054,-0.275183 0.109014,-0.352463 -0.04007,-0.05626 -0.248866,0.041 -0.334676,0.0364 -0.09997,-0.0053 -0.07924,-0.111878 -0.144301,-0.189148 -0.04544,-0.05393 -0.184746,0.02295 -0.266056,-0.0067 -0.07267,-0.0265 -0.08861,-0.158929 -0.116751,-0.212039 -0.07654,-0.144477 -0.01459,-0.343481 -0.103495,-0.447377 -0.09157,-0.107 -0.248618,0.03247 -0.341108,-0.07358 -0.08946,-0.102568 0.06744,-0.40239 -0.05249,-0.528925 -0.03473,-0.03664 -0.155472,0.03412 -0.244262,0.03232 -0.127698,-0.0026 -0.230742,-0.07242 -0.266612,-0.127969 -0.08472,-0.131189 -0.0356,-0.298737 -0.148039,-0.371387 -0.228301,-0.14751 -0.70965,0.100722 -0.92253,-0.07526 -0.10107,-0.08355 0.03999,-0.419367 -0.07343,-0.480927 -0.07178,-0.03896 -0.328868,0.127016 -0.402838,0.115486 -0.126064,-0.01965 -0.06511,-0.20999 -0.148284,-0.30916 -0.05151,-0.06143 -0.226072,0.05133 -0.263752,-0.02621 -0.08391,-0.172653 0.0043,-0.367857 0.04668,-0.570179 0.03376,-0.161207 0.02899,-0.34459 -0.04668,-0.477518 -0.04343,-0.0763 -0.237782,-0.04329 -0.334112,-0.0972 -0.07562,-0.04232 -0.05609,-0.167991 -0.08967,-0.241631 -0.04405,-0.09658 0.04112,-0.332141 -0.04436,-0.371541 -0.03412,-0.01574 -0.232471,-0.08847 -0.327131,-0.01884 -0.09908,0.07288 -0.09443,0.288145 -0.123088,0.263565 -0.100903,-0.08652 -0.182383,-0.221717 -0.167753,-0.362124 0.01476,-0.141607 0.12573,-0.28852 0.04475,-0.396166 -0.03269,-0.04345 -0.217427,0.04737 -0.34293,0.03787 -0.136199,-0.01035 -0.214127,-0.120561 -0.258397,-0.159131 -0.03155,-0.02749 0.0081,-0.215583 -0.03142,-0.233493 -0.08477,-0.03843 -0.254215,0.10066 -0.304875,0.02654 -0.103384,-0.151279 -0.228336,-0.299376 -0.238556,-0.48911 -0.0059,-0.109756 0.09541,-0.259264 0.08334,-0.364569 -0.0457,-0.3988 0.101461,-0.762781 0.100461,-1.164199 -3.5e-4,-0.133844 -0.189631,-0.30634 -0.178071,-0.439682 0.02093,-0.241378 0.170851,-0.432395 0.239411,-0.664477 0.03147,-0.106576 -0.08689,-0.293255 -0.0066,-0.370285 0.06985,-0.06701 0.192528,0.08471 0.301276,0.09311 0.107885,0.0083 0.201853,-0.126827 0.267843,-0.196587 0.04568,-0.04828 0.184448,-0.09483 0.194448,-0.160193 0.02131,-0.139725 -0.130598,-0.319237 -0.116838,-0.460664 0.01875,-0.192697 0.08279,-0.397138 0.07739,-0.59533 -0.0049,-0.182301 -0.08247,-0.359315 2.23e-4,-0.517039 0.0345,-0.06581 0.146849,-0.08152 0.186499,-0.159299 0.0307,-0.06022 -0.01845,-0.188735 0.04782,-0.210345 0.155117,-0.05058 0.441443,0.05319 0.559774,-0.02025 0.105423,-0.06544 0.03588,-0.241122 0.111323,-0.334442 0.04702,-0.05817 0.03966,-0.159453 0.120153,-0.197963 0.08393,-0.04016 0.255483,-0.01771 0.289563,-0.08861 0.06803,-0.14153 -0.04455,-0.393365 0.0042,-0.541239 0.03622,-0.109864 -0.08216,-0.247236 -0.01956,-0.350497 0.03939,-0.06498 0.267637,-0.09302 0.283627,-0.165699 0.03551,-0.161433 -0.04287,-0.361936 -0.08299,-0.518566 -0.02148,-0.08385 -0.03679,-0.201094 -0.127045,-0.248744 -0.09807,-0.05177 -0.272962,-0.03306 -0.333492,-0.107013 -0.05532,-0.0676 0.09094,-0.248614 0.02746,-0.310954 -0.03934,-0.03863 -0.18249,0.0094 -0.23293,-0.02131 -0.06312,-0.03838 -0.0323,-0.156007 -0.05832,-0.217397 -0.07188,-0.169627 -0.04724,-0.327462 -0.07265,-0.4942363 -0.01539,-0.101007 -0.09009,-0.205294 -0.09859,-0.317464 -0.0086,-0.113353 0.06178,-0.301087 0.01603,-0.404146 -0.04443,-0.100082 0.12182,-0.322488 0.04455,-0.378028 -0.130697,-0.09395 -0.524817,6.54e-4 -0.661318,-0.129426 -0.07576,-0.07219 -0.08707,-0.324832 -0.1593,-0.397962 -0.100194,-0.101438 -0.129962,-0.353855 -0.281287,-0.439515 -0.106118,-0.06007 -0.337754,0.04733 -0.413204,-0.02051 -0.102828,-0.09245 -0.02303,-0.295474 -0.159188,-0.290174 -0.154074,0.006 -0.351607,-0.115803 -0.485537,0.01895 -0.06019,0.06056 0.01952,0.211259 -0.02442,0.341353 -0.02863,0.08477 -0.176755,0.160799 -0.220035,0.197429 -0.07861,0.06653 -0.314683,-0.0298 -0.365703,0.04462 -0.07396,0.107876 0.208143,0.3357 0.112673,0.40654 -0.106976,0.07935 -0.25488,0.08835 -0.412787,0.08065 -0.230999,-0.01131 -0.483404,-0.0584 -0.660398,0.02671 -0.08186,0.03936 2.6e-4,0.177573 -0.03151,0.305239 -0.03747,0.150596 -0.187846,0.291586 -0.292233,0.311736 -0.190364,0.03675 -0.305434,0.153825 -0.529943,0.196005 -0.35141,0.06601 -0.820905,0.0423 -1.116326,-0.04102 -0.123083,-0.03472 -0.100826,-0.284583 -0.216303,-0.336073 -0.119511,-0.05329 -0.08887,-0.263459 -0.222933,-0.327469 -0.07471,-0.03567 -0.192071,0.03187 -0.296158,0.02182 -0.13919,-0.01344 -0.264839,-0.104477 -0.330969,-0.179067 -0.08127,-0.09167 0.0053,-0.28609 -0.08123,-0.36896 -0.08511,-0.08149 -0.140172,-0.267082 -0.242118,-0.341292 -0.105552,-0.07683 -0.257638,-0.04266 -0.323308,-0.149524 -0.0405,-0.06591 0.03917,-0.166076 0.02788,-0.252276 -0.01311,-0.10017 -0.117321,-0.186019 -0.178661,-0.248329 -0.07905,-0.08031 -0.289493,0.0096 -0.409591,-0.02966 -0.0748,-0.02445 -0.06706,-0.170235 -0.115912,-0.220635 -0.07054,-0.07278 -0.102154,-0.195105 -0.229303,-0.269865 -0.0793,-0.04663 -0.266899,-0.04315 -0.306099,-0.094571 -0.05998,-0.07868 -0.184185,-0.147662 -0.204035,-0.223793 -0.02649,-0.1016413 0.05208,-0.205904 -0.0625,-0.265449 -0.215536,-0.1120098 -0.400975,-0.2082988 -0.646919,-0.2104188 -0.232405,-0.002 -0.464436,-0.046115 -0.716321,-0.020003 -0.17918,0.018575 -0.381187,0.117411 -0.542938,0.090679 -0.09507,-0.015712 -0.175632,-0.1407829 -0.266822,-0.1706859 -0.05195,-0.017029 -0.13102,-0.00559 -0.21182,0.00663 -0.09515,0.014388 -0.19267,0.029865 -0.25108,0.00121 -0.0824,-0.040426 -0.02719,-0.1736155 -0.06598,-0.2651645 C 43.666607,5.5413885 43.547,5.5170505 43.4985,5.4752293 43.380659,5.3736086 43.239218,5.4053896 43.155998,5.3016786 43.075353,5.2011805 43.052529,4.9655648 42.964329,4.8442391 42.898412,4.7535631 42.847247,4.5202615 42.748297,4.4663335 42.607747,4.3897351 42.578798,4.2474013 42.4118,4.2518013 c -0.103492,0.00272 -0.347644,0.1255372 -0.439574,0.1627942 -0.101299,0.041052 -0.260057,0.072417 -0.298097,0.1561201 -0.03049,0.067195 0.05816,0.1865157 0.0049,0.2330407 -0.07623,0.06659 -0.289165,0.00556 -0.363465,0.1122642 -0.05095,0.073164 0.06418,0.2757078 0.01178,0.4072352 -0.04106,0.1030689 -0.2449,0.1475509 -0.31223,0.1519709 -0.19385,0.012722 -0.377757,0.06133 -0.463037,-0.097944 -0.04898,-0.091478 0.02125,-0.3988831 -0.08021,-0.4453061 -0.07149,-0.032711 -0.104069,-0.2159346 -0.164679,-0.2754066 -0.05965,-0.058536 -0.147266,0.00645 -0.225606,0.00165 -0.186554,-0.011442 -0.59687,0.118167 -0.773822,0.066799 -0.172769,-0.050155 -0.375916,0.044352 -0.535769,-0.041595 -0.119664,-0.064339 -0.2037,-0.2980363 -0.29463,-0.3968223 -0.09265,-0.1006452 -0.07134,-0.3166299 -0.178495,-0.4023269 -0.04404,-0.035219 -0.224318,0.069668 -0.278108,0.050124 C 37.847239,3.8713512 37.77338,3.7300931 37.67631,3.5730062 37.60928,3.4645303 37.472129,3.4161954 37.419319,3.3022208 37.334139,3.1183895 37.412429,2.8685458 37.388019,2.6629341 37.367578,2.4907294 37.248075,2.361136 37.160625,2.2157207 37.109948,2.1314549 36.964048,2.1068919 36.820583,2.0828739 c -0.11065,-0.018525 -0.219849,-0.036726 -0.282799,-0.081747 -0.09378,-0.067074 0.05744,-0.276079 -0.02388,-0.354525 -0.08672,-0.083652 -0.291209,-0.059435 -0.393408,-0.1390502 -0.139598,-0.1087494 -0.177925,-0.3216394 -0.288504,-0.4438196 -0.103594,-0.11441234 0.01908,-0.28578914 -0.107094,-0.37428514 -0.07492,-0.052546 -0.227504,-0.025777 -0.348004,-0.068162 -0.105802,-0.037215 -0.180943,-0.142557 -0.237893,-0.199626 -0.07148,-0.0716309 -0.04579,-0.2369406 -0.1411,-0.2727526 -0.151043,-0.056754 -0.42252,0.053747 -0.57939,0.02316 -0.250987,-0.048938 -0.408555,-0.1377999 -0.65728,-0.1156029 -0.358389,0.031983 -0.834466,0.067758 -1.20586,0.09488 -0.414186,0.030246 -0.839074,0.013554 -1.241146,0.098329 -0.100679,0.021228 -0.233563,-0.019152 -0.309243,0.040867 -0.122459,0.097118 -0.178871,0.3105856 -0.332313,0.3784976 -0.190051,0.084115 -0.503134,0.014216 -0.677766,0.1238857 -0.108245,0.067978 -0.282089,0.067902 -0.321839,0.15733 -0.03938,0.088674 0.05519,0.26686774 -0.03238,0.33056274 -0.08534,0.062072 -0.157827,0.2109467 -0.302788,0.2505037 -0.118964,0.032463 -0.312085,-0.046707 -0.385515,0.015596 -0.07452,0.063227 -0.06277,0.3184177 -0.170329,0.3873637 -0.09349,0.059926 -0.308746,-0.068297 -0.352226,0.00982 -0.02731,0.049067 -0.0099,0.162983 -0.0663,0.249165 -0.04816,0.073638 -0.17111,0.1200445 -0.19068,0.1654765 -0.08168,0.1897361 0.03614,0.4548827 0.0041,0.6531909 -0.01432,0.088665 0.154821,0.2123407 0.110651,0.2902927 -0.08264,0.145857 -0.215882,0.2392318 -0.424681,0.2774928 -0.11855,0.021724 -0.322808,-0.018143 -0.403128,0.032936 -0.06594,0.041934 -0.01898,0.1208319 -0.04781,0.1829119 -0.03838,0.082641 -0.151145,0.1454706 -0.262049,0.1485006 -0.18023,0.00493 -0.359996,-0.00398 -0.50607,0.021439 -0.101907,0.017736 -0.08981,0.3050151 -0.164797,0.3553721 -0.11346,0.076189 -0.309581,-0.073161 -0.476656,-0.00833 -0.09524,0.036955 -0.0333,0.1966371 -0.149161,0.3202588 -0.09195,0.098109 -0.40171,0.00872 -0.47592,0.04048 -0.127169,0.054432 -0.181266,0.1632383 -0.282746,0.1883993 -0.120107,0.029778 -0.285852,-0.026508 -0.42191,0.014863 -0.04627,0.01407 -0.0223,0.1249116 -0.0769,0.1782116 -0.07005,0.068384 -0.219317,0.083836 -0.279077,0.1229722 -0.142138,0.09308 -0.493579,-0.061034 -0.601994,0.076759 -0.04831,0.061406 0.04742,0.2403437 0.0269,0.3862261 -0.02764,0.1965012 -0.171408,0.3646276 -0.265648,0.4036286 -0.213426,0.08833 -0.450302,0.062714 -0.689526,0.026142 -0.287762,-0.043992 -0.578921,-0.1038362 -0.836748,-2.732e-4 -0.09669,0.038838 -0.202322,0.1393009 -0.205222,0.2590537 -0.0024,0.097425 0.09812,0.2119918 0.04322,0.2811028 -0.0831,0.1046694 -0.417656,0.058061 -0.536467,0.1065694 -0.330976,0.13513 -0.659453,0.10851 -1.021417,0.11271 -0.327747,0.0039 -0.687608,0.04699 -1.01615,0.002 -0.236687,-0.03237 -0.481964,0.03248 -0.704552,-0.03707 -0.141877,-0.04433 -0.349452,-0.1273102 -0.449212,-0.2575051 -0.07915,-0.103286 -0.05209,-0.250671 -0.142488,-0.330082 -0.07463,-0.06556 -0.203618,-0.010345 -0.287848,-0.05914 -0.07548,-0.043724 -0.219661,-0.049409 -0.365861,-0.056859 -0.151954,-0.00774 -0.306084,-0.017398 -0.387534,-0.073656 -0.07274,-0.050245 0.1381,-0.3017382 0.06308,-0.3333832 -0.135744,-0.057258 -0.275771,-0.019545 -0.422058,-0.027615 -0.154727,-0.00853 -0.347304,-0.067077 -0.467122,0.034783 -0.07566,0.06432 -0.07564,0.2859239 -0.166401,0.3292019 -0.08423,0.040164 -0.269921,-0.097295 -0.349501,-0.053556 -0.135646,0.074551 -0.280886,-0.013721 -0.404769,0.028447 -0.06309,0.021475 -0.120645,0.1438402 -0.168565,0.2008302 -0.04019,0.047796 0.01047,0.2081555 -0.0146,0.2978705 -0.03694,0.1321798 -0.147403,0.2018647 -0.212533,0.2747327 -0.06593,0.07377 -0.282357,0.07371 -0.337767,0.155275 -0.07591,0.111758 -0.195597,0.273513 -0.199197,0.415434 -0.0042,0.16202 0.11146,0.306038 0.06962,0.456874 -0.02124,0.07656 -0.156579,0.08013 -0.207789,0.145834 -0.09844,0.126288 -0.130045,0.307864 -0.154145,0.456394 -0.02577,0.158795 -0.142887,0.172227 -0.169297,0.344071 -0.04544,0.295369 2.9e-4,0.755398 -0.03904,1.035863 -0.04815,0.3435333 -0.113899,0.6298203 0.0014,0.9482803 0.01517,0.04188 -0.01528,0.144573 0.02585,0.212013 0.06532,0.107101 0.212699,0.184329 0.264069,0.235299 0.06301,0.06252 0.246564,-0.04574 0.305074,0.01833 0.03798,0.04159 0.1015,0.158243 0.06338,0.242663 -0.0473,0.104772 -0.202234,0.180862 -0.180654,0.249122 0.02998,0.09481 0.26974,-0.03719 0.39588,0.0047 0.05719,0.019 0.02939,0.197048 0.05609,0.232138 0.06575,0.08641 0.26518,0.102409 0.36752,0.165739 0.140272,0.0868 0.189072,0.217062 0.292052,0.324059 0.07605,0.07901 0.27955,0.04338 0.35092,0.12675 0.06979,0.08152 -0.0689,0.157381 -0.08957,0.251641 -0.0204,0.09306 0.07751,0.204393 0.100328,0.30639 0.01236,0.05524 0.195836,-0.09381 0.247676,-0.03707 0.08933,0.09777 0.06801,0.399005 0.127522,0.470145 0.03949,0.0472 0.08016,0.16324 0.181324,0.17104 0.143032,0.011 0.355297,-0.09107 0.408497,-0.01495 0.08301,0.118773 0.128099,0.366201 0.214199,0.482553 0.10721,0.144864 0.01494,0.330304 0.02936,0.46527 0.01306,0.122222 0.132225,0.193741 0.224215,0.327262 0.02961,0.04298 0.164752,-0.02939 0.271962,0.01603 0.159819,0.0677 0.305004,0.254856 0.328144,0.329676 0.129516,0.418653 0.03484,0.837836 4.07e-4,1.287543 -0.02795,0.365157 0.03229,0.763659 -0.103883,1.09241 -0.07706,0.186029 -0.284781,0.07223 -0.463877,0.134429 -0.120111,0.04171 -0.205995,0.2551 -0.310621,0.34596 -0.09647,0.08378 0.02705,0.228576 -0.02918,0.393904 -0.04542,0.133525 -0.27106,0.289441 -0.33456,0.367421 -0.07139,0.08766 -0.290139,-0.06333 -0.374359,0.04905 -0.08043,0.107321 -0.02565,0.47873 -0.122553,0.53508 -0.148505,0.08636 -0.341827,-0.0146 -0.441437,0.118717 -0.08501,0.113768 -0.159562,0.761218 -0.199892,0.875161 -0.04854,0.137133 -0.318411,0.14588 -0.346651,0.285084 -0.07931,0.390905 0.143644,0.919921 0.143783,1.331722 7e-5,0.225103 0.16563,0.507995 0.07352,0.711409 -0.08447,0.186535 -0.229849,0.48533 -0.461276,0.593278 -0.126898,0.05919 -0.352035,-0.07468 -0.438475,4.16e-4 -0.0931,0.08088 -0.06945,0.307673 -0.113788,0.408484 -0.07417,0.168634 -0.199019,0.217338 -0.357521,0.343012 -0.0821,0.06509 -0.162544,0.208198 -0.324986,0.252778 -0.1256,0.03447 -0.34183,-0.03157 -0.38475,0.0229 -0.140336,0.1781 0.09197,0.444763 -0.134236,0.585758 -0.08817,0.05496 -0.48454,-0.11762 -0.620046,-0.07654 -0.224358,0.06802 -0.206577,0.338864 -0.372685,0.379214 C 11.38074,25.4844 10.870752,25.56631 10.259221,25.54211 9.4388539,25.50964 8.5081449,25.32758 7.6627409,25.23743 c -0.640561,-0.0683 -1.326117,0.0649 -1.938391,-0.01608 -0.13152,-0.0174 -0.1894,-0.214647 -0.27887,-0.306407 -0.135514,-0.138973 -0.293301,-0.186533 -0.491759,-0.193133 -1.1539569,-0.03809 -2.376,-0.0052 -3.4664531,0.02587 -0.1007077,0.0029 -0.1143639,0.111793 -0.219117,0.166423 -0.078117,0.04074 -0.2470838,0.01683 -0.3246008,0.08137 -0.1369106,0.113985 -0.2515897,0.348964 -0.3926062,0.444254 -0.1270986,0.08589 -0.3535005,0.01 -0.4305095,0.107729 -0.1602549,0.203441 0.019303,0.430823 -0.030095,0.674757 -0.032313,0.159563 0.06202,0.342282 0.04816,0.55679 -0.019507,0.301975 -0.1264416,0.64155 0.00444,0.846726 0.070662,0.11077 0.4175016,-0.05465 0.4906536,0.04515 0.1806425,0.246441 0.1260743,0.461945 0.34237,0.636048 0.05391,0.0434 0.1950987,-0.02372 0.3129144,0.01213 0.1254991,0.03818 0.227962,0.179259 0.28792,0.224139 0.045108,0.03377 0.188694,0.03631 0.228016,0.07954 0.085915,0.09446 0.064595,0.23674 0.1869047,0.28986 0.1283598,0.05575 0.3911074,0.205372 0.5422849,0.198572 0.1505256,-0.0068 0.3835687,-0.196119 0.4795427,-0.0951 0.1443743,0.151968 0.036596,0.372358 0.0086,0.600798 -0.027583,0.225072 0.024931,0.457957 0.1207405,0.640916 0.094025,0.179552 0.1627135,0.375248 0.3469065,0.429866 0.1439567,0.04269 0.3987371,-0.05617 0.5258284,0.04877 0.058295,0.04814 0.2404062,0.126365 0.275245,0.229256 0.063065,0.186255 -0.032509,0.423877 0.077753,0.501354 0.202766,0.142488 0.487167,0.160962 0.610979,0.368762 0.123165,0.206721 -0.04664,0.37743 -0.07519,0.561468 -0.04541,0.292652 -0.01045,0.599235 0.03244,0.988258 0.01501,0.136118 0.429608,0.02211 0.55026,0.210998 0.16053,0.251336 0.03982,0.809743 0.08747,0.981396 0.04281,0.154201 -0.05017,0.321 -0.08284,0.507395 -0.05712,0.325926 -0.08952,0.685153 -0.0338,0.950918 0.03148,0.150146 0.419975,0.105635 0.474005,0.254323 0.05147,0.141655 0.258718,0.06267 0.361897,0.202685 0.09245,0.125453 0.08095,0.470073 0.134418,0.593977 0.06779,0.157092 -0.07387,0.448832 0.02682,0.646485 0.100932,0.198116 0.437779,0.125426 0.571521,0.308215 0.119182,0.162895 0.03331,0.490724 0.106312,0.661277 0.128987,0.301364 0.3697,0.413628 0.3697,0.413628 -0.0038,0.176845 -0.04822,0.5373 0.03048,0.710019 z"
     style="fill:none;fill-rule:evenodd;stroke:#000000;stroke-width:0.105833;stroke-linecap:square;stroke-opacity:1;paint-order:markers fill stroke"
     id="Outline" /><path
     style="fill:none;fill-rule:evenodd;stroke:#000000;stroke-width:0.105833;stroke-linecap:square;stroke-opacity:1;paint-order:markers fill stroke"
     d="m 32.995769,82.59087 c 0.189343,-0.09534 0.398993,-0.120049 0.635907,-0.192687 0.183686,-0.05632 -0.01375,-0.399883 0.120361,-0.555567 0.112216,-0.130264 0.555296,-0.06865 0.702448,-0.174991 0.132496,-0.09575 0.428944,0.0028 0.560523,-0.103407 0.191171,-0.154332 0.125745,-0.627185 0.317242,-0.786455 0.173346,-0.144174 0.943258,0.0454 1.172776,-0.0216 0.305553,-0.08919 0.07718,-0.421188 0.319365,-0.545245 0.148852,-0.07625 0.606342,0.127613 0.7757,0.08302 0.24896,-0.06555 0.207074,-0.496581 0.362542,-0.648394 0.139773,-0.136488 0.481147,0.01233 0.620853,-0.158957 0.338431,-0.414927 0.02959,-1.226004 0.07075,-1.781828 0.01552,-0.209597 0.253416,-0.210296 0.343149,-0.391174 0.08629,-0.173926 0.307458,0.113109 0.462609,-0.01529 0.101525,-0.08402 0.116728,-0.460227 0.191918,-0.648205 0.08454,-0.211349 0.225583,-0.237903 0.276758,-0.371263 0.04858,-0.126608 -0.08995,-0.337252 -0.126851,-0.48571 -0.03818,-0.153622 0.02599,-0.24454 0.126851,-0.342099 0.288611,-0.279151 0.591993,-0.03133 1.03037,-0.06225 0.365547,-0.02579 0.859491,0.04547 1.245826,0.05229 0.345006,0.0061 0.588479,-0.0654 0.828092,0.113443 0.213277,0.159187 0.09466,0.343091 0.134857,0.623774 0.02025,0.141385 0.257665,0.227914 0.326438,0.386999 0.07448,0.172282 -0.01754,0.416248 0.05608,0.541371 0.179192,0.304541 0.295783,0.231183 0.547435,0.487403 0.05879,0.05986 0.0812,0.361316 0.161537,0.489011 0.12222,0.194259 0.31053,0.224384 0.429266,0.2653 0.124435,0.04288 0.327684,0.102189 0.460228,0.0622 0.07874,-0.02376 0.09111,-0.1299 0.16063,-0.165679 0.09147,-0.04707 0.402592,0.103454 0.478852,0.03488 0.09649,-0.08677 -0.0022,-0.344457 0.06216,-0.467503 0.08187,-0.15641 0.526774,-0.220456 0.626254,-0.363133 0.05244,-0.07521 0.175078,-0.118875 0.187996,-0.197135 0.0292,-0.176941 -0.08878,-0.38031 0.09341,-0.455774 0.111842,-0.04633 0.302032,-0.09994 0.389598,-0.02756 0.07035,0.05814 0.03554,0.239761 0.135061,0.252869 0.189296,0.02493 0.567657,0.171843 0.786742,0.123787 0.216857,-0.04757 0.274515,-0.289674 0.447694,-0.349093 0.160253,-0.05498 0.07376,-0.280863 0.228565,-0.387454 0.10332,-0.07114 0.461216,0.0022 0.530603,-0.120994 0.05019,-0.08908 -0.04645,-0.234825 -0.0339,-0.373884 0.01073,-0.118893 0.128343,-0.235354 0.185873,-0.280059 0.15069,-0.117098 0.339048,-0.229444 0.529911,-0.233342 0.176266,-0.0036 0.358705,0.104131 0.421517,-0.05293 0.03264,-0.08161 0.09401,-0.217213 0.04243,-0.309084 -0.06659,-0.118598 -0.254348,-0.194794 -0.234013,-0.306567 0.04549,-0.250055 -0.01322,-0.551511 0.0046,-0.809246 0.03658,-0.528749 -0.02618,-1.085373 -0.0465,-1.660031 -0.01061,-0.299895 0.103485,-0.657942 0.0073,-0.905609 -0.0522,-0.134346 -0.323607,-0.01934 -0.394643,-0.148512 -0.05849,-0.106362 -0.26767,-0.183381 -0.351622,-0.327234 -0.09397,-0.161027 -0.06575,-0.387286 -0.187568,-0.462087 -0.09554,-0.05867 -0.159398,-0.207948 -0.25896,-0.240332 -0.150115,-0.04883 -0.254639,0.09484 -0.337404,0.09467 -0.08249,-1.7e-4 -0.143369,-0.144017 -0.20623,-0.291309 -0.02137,-0.05008 0.04715,-0.221054 0.12867,-0.311332 0.08458,-0.09367 -0.02792,-0.225661 -0.04139,-0.281557 -0.05341,-0.22166 -0.08552,-0.410641 -0.06695,-0.684628 0.01435,-0.211729 0.07738,-0.514747 0.06898,-0.669296 -0.0049,-0.08953 -0.107441,-0.265005 0.0783,-0.39914 0.06697,-0.04836 0.199058,0.01157 0.31893,-0.0251 0.152867,-0.04676 0.291596,-0.187605 0.312038,-0.228942 0.03745,-0.07572 0.08582,-0.145105 0.172067,-0.185768 0.06619,-0.0312 0.173482,-0.03422 0.201274,-0.0786 0.09163,-0.146337 0.0081,-0.348189 0.143799,-0.412448 0.09779,-0.0463 0.319448,0.02885 0.400015,-0.02669 0.134169,-0.09249 0.02035,-0.391056 0.121546,-0.543165 0.0633,-0.09514 0.344339,-0.03276 0.40999,-0.136421 0.05576,-0.08805 -0.0097,-0.181745 0.05555,-0.268688 0.05002,-0.06671 0.229592,-0.121911 0.280682,-0.21312 0.04785,-0.08542 0.214982,-0.228593 0.221637,-0.331862 0.01743,-0.270442 -0.04668,-0.529644 -0.03386,-0.755379 0.005,-0.08748 -0.05624,-0.193252 0.01918,-0.257951 0.11896,-0.102058 0.259514,0.108877 0.429553,0.149512 0.129311,0.0309 0.543334,0.08596 0.654348,0.04256 0.17968,-0.07025 0.101659,-0.302169 0.175149,-0.516959 0.02877,-0.08409 0.16595,-0.165551 0.222804,-0.233662 0.07618,-0.09127 0.44771,-0.01733 0.508618,-0.09927 0.126183,-0.169767 0.06232,-0.326672 0.167865,-0.499679 0.08936,-0.146483 0.280384,-0.210482 0.389984,-0.351224 0.0538,-0.06908 0.08846,-0.234035 0.217328,-0.299311 0.09063,-0.0459 0.283315,0.0083 0.321643,-0.04046 0.07869,-0.100193 0.22743,-0.191268 0.26405,-0.283975 0.05511,-0.139523 -0.0049,-0.271173 0.166849,-0.350949 0.136679,-0.06349 0.298495,0.03608 0.455915,0.04228 0.13305,0.0052 0.262959,-0.07974 0.371895,-0.145757 0.06831,-0.0414 0.21107,-0.05425 0.265633,-0.109758 0.03866,-0.03933 0.04818,-0.180379 0.09519,-0.210373 0.09744,-0.06218 0.235299,-0.009 0.28195,-0.119965 0.04736,-0.112644 -0.01073,-0.257311 0.01467,-0.392981 0.02091,-0.111684 0.104424,-0.139395 0.201717,-0.118699 0.07383,0.01571 0.159481,0.08256 0.209317,0.0273 0.04653,-0.05159 0.0024,-0.277378 0.04127,-0.36733 0.06665,-0.154072 0.217856,-0.174927 0.334994,-0.157787 0.111968,0.01638 0.218044,0.08611 0.298081,0.0022 0.07323,-0.07678 -0.0063,-0.335258 0.0952,-0.436867 0.0669,-0.06696 0.321105,0.02735 0.364087,-0.04369 0.03756,-0.06208 -0.09687,-0.169657 -0.09104,-0.291954 0.0032,-0.06788 0.119305,-0.165609 0.165976,-0.202246 0.106793,-0.08383 0.462265,0.02461 0.502712,-0.05516 0.07936,-0.156504 0.201341,-0.266553 0.224523,-0.390295 0.02492,-0.133037 -0.04725,-0.2762 0.100008,-0.340141 0.102733,-0.04461 0.226375,0.02352 0.34329,0.02792 0.209132,0.0079 0.416859,-0.02724 0.587996,-0.131392 0.03688,-0.02245 0.0312,-0.143485 0.103982,-0.187078 0.07484,-0.04483 0.227938,-0.0125 0.247257,-0.05527 0.07012,-0.155208 -0.07942,-0.30247 0.06267,-0.378514 0.136103,-0.07284 0.224858,0.04816 0.384262,0.06747 0.152774,0.01851 0.44117,0.01251 0.609876,0.01951 0.245235,0.01018 0.3699,0.01727 0.558003,-0.08698 0.08378,-0.04643 -0.01637,-0.222284 0.04945,-0.287372 0.07784,-0.07698 0.318536,-0.04644 0.37839,-0.142227 0.08441,-0.135093 0.05416,-0.294121 0.121304,-0.447732 0.03505,-0.08018 0.37069,-0.01424 0.417917,-0.09376 0.05661,-0.09532 0.109211,-0.26304 0.09809,-0.390756 -0.01097,-0.126001 -0.08566,-0.212093 -0.03039,-0.293777 0.120341,-0.177865 0.228511,-0.07527 0.34527,-0.256998 0.02309,-0.03594 -0.105449,-0.114644 -0.106344,-0.207272 -3.6e-4,-0.03728 0.111931,-0.08448 0.121264,-0.120235 0.02696,-0.10327 0.130629,-0.178768 0.203948,-0.238568 0.03875,-0.03161 0.146709,-0.101117 0.21937,-0.0903 0.102157,0.01521 0.170277,0.117732 0.190457,0.08312 0.04564,-0.07827 0.0548,-0.28051 0.109115,-0.299267 0.07954,-0.02746 0.20357,0.139669 0.249785,0.028 0.04768,-0.115208 -0.0776,-0.371165 0.0049,-0.506249 0.05678,-0.09298 0.327519,-0.06131 0.354192,-0.15929 0.04746,-0.17433 0.151886,-0.351167 0.180444,-0.511108 0.01376,-0.07703 -0.04464,-0.166863 -0.03987,-0.251342 0.0052,-0.09228 0.0752,-0.178177 0.133523,-0.234043 0.09726,-0.09316 0.277738,-0.152003 0.493829,-0.159363 0.136278,-0.0046 0.319772,0.04425 0.401258,0.01368 0.09246,-0.03468 0.09572,-0.210877 0.205052,-0.262903 0.09699,-0.04615 0.304731,0.03464 0.324701,-0.03806 0.01237,-0.04502 0.02029,-0.20815 0.08173,-0.277571 0.04994,-0.05644 0.153855,-0.01992 0.17416,-0.05786 0.103629,-0.193632 0.03386,-0.521189 0.0064,-0.86168 -0.01852,-0.229589 0.04205,-0.48501 -0.03897,-0.633569 -0.03678,-0.06745 -0.192191,-0.0608 -0.277161,-0.118474 -0.0606,-0.04113 -0.05841,-0.146439 -0.07441,-0.19164 -0.01958,-0.05532 -0.327933,0.04003 -0.429116,0.0025 -0.134464,-0.04981 -0.07122,-0.229103 -0.115692,-0.284884 -0.07481,-0.09383 -0.0059,-0.387658 -0.08428,-0.464995 -0.07721,-0.07621 -0.209902,0.0049 -0.279933,-0.05871 -0.03557,-0.03233 -6.95e-4,-0.217375 -0.04539,-0.243014 -0.105838,-0.06071 -0.355921,0.06906 -0.465268,0.009 -0.05024,-0.02758 -0.03774,-0.267315 -0.07447,-0.313854 -0.05219,-0.06614 -0.221507,0.0058 -0.268419,-0.04332 -0.06503,-0.06805 -0.187358,-0.06695 -0.234325,-0.19961 -0.05284,-0.149245 -0.04727,-0.456252 -0.05291,-0.622248 -0.0036,-0.106225 -0.08772,-0.326694 -0.01669,-0.439658 0.03561,-0.05663 0.226602,-0.01777 0.25253,-0.06145 0.06308,-0.106263 0.168107,-0.209594 0.332925,-0.215571 0.151798,-0.0055 0.361255,0.08406 0.479401,0.04922 0.104406,-0.03079 0.130267,-0.14984 0.191304,-0.190685 0.05718,-0.03826 0.150824,0.0033 0.207777,-0.07175 0.02102,-0.0277 0.01383,-0.200629 0.04624,-0.229021 0.05863,-0.05136 0.163705,0.03774 0.210355,-0.04257 0.07433,-0.127967 0.02341,-0.503676 0.131652,-0.58419 0.09867,-0.0734 0.381125,0.06602 0.392834,-0.02679 0.02963,-0.234911 -0.05819,-0.488823 -0.06775,-0.788346 -0.01057,-0.331002 0.05623,-0.709612 0.07772,-0.999828 0.01215,-0.164083 -0.114,-0.311603 -0.033,-0.431207 0.04672,-0.06898 0.422466,0.07362 0.584783,0.01759 0.152891,-0.05278 0.0896,-0.30654 0.22986,-0.298206 0.218098,0.01296 0.302108,0.211708 0.381776,0.137784 0.07786,-0.07225 0.02665,-0.176487 0.01393,-0.269542 -0.01204,-0.08802 0.01614,-0.164108 0.02368,-0.25926 0.01605,-0.202449 0.361128,-0.02172 0.601107,-0.01817 0.240044,0.0035 0.435228,-0.09955 0.607318,0.03168 0.107131,0.08169 0.08641,0.260622 0.180897,0.376955 0.06691,0.08239 0.284851,0.05293 0.446509,0.164405 0.06168,0.04253 0.05283,0.149158 0.09418,0.230348 0.0366,0.07186 0.124405,0.11785 0.161272,0.168803 0.0468,0.06468 -0.0044,0.187137 8.5e-5,0.271082 0.0066,0.122202 0.05962,0.203735 0.110478,0.246445 0.142588,0.119752 0.269582,0.205371 0.401244,0.182971 0.08421,-0.01433 0.159509,-0.121481 0.277369,-0.133096 0.125196,-0.01234 0.0062,-0.19816 0.05281,-0.347302 0.02482,-0.07936 0.208004,-0.122102 0.253493,-0.180767 0.09649,-0.124433 0.185458,0.04258 0.294726,-0.06463 0.05199,-0.05101 -0.0766,-0.2421 -0.02586,-0.343888 0.08298,-0.166453 0.458209,-0.01559 0.496168,-0.119343 0.05121,-0.139985 0.0069,-0.400151 0.0332,-0.557698 0.05939,-0.355451 0.01913,-0.718683 -0.005,-1.086486 -0.01589,-0.241906 0.0039,-0.743766 0.02766,-1.123951 0.0093,-0.148785 0.07347,-0.278934 0.05486,-0.367576 -0.03356,-0.159796 -0.469594,-0.103671 -0.525126,-0.249502 -0.04588,-0.120483 -0.234447,-0.23167 -0.29403,-0.366519 -0.0635,-0.143708 8.72e-4,-0.309325 -0.08455,-0.37501 -0.08757,-0.06734 -0.109943,-0.246133 -0.202511,-0.278076 -0.159051,-0.05489 -0.382502,0.03808 -0.468556,-0.188124 -0.05354,-0.140737 -0.01203,-0.36336 -0.03798,-0.516221 -0.03144,-0.185198 -0.06582,-0.353386 -0.0722,-0.519264 -0.0053,-0.136559 0.0085,-0.271553 0.05844,-0.413183 0.04788,-0.135699 0.06959,-0.199788 0.195911,-0.231448 0.0683,-0.01712 0.238367,0.01408 0.297868,-0.0397 0.04175,-0.03773 0.141217,-0.124567 0.163962,-0.217455 0.02752,-0.112369 -0.02334,-0.233596 0.01485,-0.287473 0.07646,-0.10787 0.0039,-0.300381 0.0082,-0.479248 0.003,-0.126043 0.07167,-0.245309 0.136907,-0.323409 0.04811,-0.0576 0.163136,-0.05022 0.227705,-0.09226 0.09714,-0.06323 -0.0055,-0.223237 0.07547,-0.287807 0.04857,-0.03875 0.350171,3.5e-5 0.419318,-0.02566 0.107726,-0.04003 0.03244,-0.419582 0.01513,-0.514669 -0.02066,-0.113417 -0.364382,0.02141 -0.42297,-0.07135 -0.05134,-0.0813 -0.0041,-0.337051 -0.06045,-0.416664 -0.04075,-0.05755 -0.232275,-0.0083 -0.281327,-0.05401 -0.07137,-0.0665 0.08135,-0.340129 0.0134,-0.39659 -0.0508,-0.04221 -0.196946,0.04978 -0.281019,0.04503 -0.06537,-0.0037 -0.10081,-0.214532 -0.162504,-0.225674 -0.112274,-0.02028 -0.394406,-0.01814 -0.506751,-0.02184 -0.101488,-0.0033 0.05752,0.216308 -0.0099,0.288736 -0.04219,0.04535 -0.284104,-0.06325 -0.338904,-0.01638 -0.0902,0.07714 -0.01227,0.50109 -0.07111,0.608494 -0.06362,0.116147 -0.263926,-0.0852 -0.365085,-0.03448 -0.110124,0.05521 -0.528766,0.03093 -0.836403,-0.0086 -0.14289,-0.01834 -0.261832,-0.09018 -0.314789,-0.06818 -0.0815,0.03384 -0.222427,0.163483 -0.276124,0.333027 -0.04265,0.134651 1.25e-4,0.314735 -0.04532,0.347517 -0.37913,0.273473 -0.646035,-0.177437 -1.220883,-0.07781 -0.374077,0.06483 -0.881942,-0.03412 -1.252162,0.02119 -0.227506,0.03399 -0.56223,-0.118213 -0.758255,-0.04744 -0.100803,0.03639 -0.0821,0.209399 -0.155508,0.292324 -0.09012,0.101809 -0.272679,0.11424 -0.417839,0.139219 -0.07881,0.01356 -0.231053,0.03897 -0.301915,0.135934 -0.05483,0.07502 -0.0279,0.225916 -0.08839,0.23944 -0.262278,0.05864 -0.599853,-0.02724 -0.861931,-0.0022 -0.120177,0.01146 -0.166695,0.132911 -0.285463,0.148305 -0.17327,0.02246 -0.179953,0.107664 -0.347974,0.15661 -0.09374,0.02731 -0.351084,0.0055 -0.442543,0.04629 -0.08836,0.03938 -0.301847,0.102161 -0.472119,0.08861 -0.150813,-0.012 -0.259839,-0.101625 -0.334114,-0.05914 -0.128633,0.07358 -0.09263,0.372682 -0.193028,0.469566 -0.07753,0.07482 -0.211328,0.09822 -0.292216,0.163156 -0.0883,0.07088 0.0094,0.260176 -0.07684,0.329159 -0.0984,0.07868 -0.312367,0.03146 -0.467489,0.07402 -0.141088,0.03871 -0.469379,-0.05201 -0.584135,0.0086 -0.124295,0.06563 -0.03886,0.222153 -0.137944,0.311891 -0.02773,0.02512 -0.13913,0.01342 -0.169388,0.03796 -0.06944,0.05633 -0.02078,0.29619 -0.09257,0.351303 -0.102033,0.07833 -0.212811,0.186884 -0.352331,0.206047 -0.145549,0.01999 -0.320359,-0.05044 -0.449484,-0.0151 -0.221447,0.06061 -0.320328,-0.141748 -0.617824,-0.195828 -0.342574,-0.06227 -0.885896,0.0184 -1.149699,0.03797 -0.125325,0.0093 -0.06897,0.186919 -0.231992,0.282276 -0.09567,0.05596 -0.422804,0.03562 -0.49073,0.06424 -0.169878,0.07158 -0.102693,0.225156 -0.215533,0.328592 -0.106389,0.09752 -0.04322,0.291511 -0.154731,0.400579 -0.09962,0.09744 -0.336883,0.0255 -0.474993,0.113721 -0.09916,0.06334 -0.336054,0.103645 -0.394457,0.223639 -0.03817,0.07843 0.09945,0.238049 0.05655,0.296953 -0.09596,0.131784 -0.0016,0.376494 -0.0488,0.537909 -0.03037,0.103964 -0.429941,0.03215 -0.468123,0.131179 -0.05457,0.141526 0.09568,0.340939 0.10283,0.507239 0.0085,0.196821 -0.128531,0.358254 -0.258497,0.47929 -0.165855,0.154459 -0.443295,0.198845 -0.681135,0.14536 -0.14258,-0.03206 -0.241633,-0.175468 -0.375754,-0.138559 -0.112196,0.03088 -0.009,0.403988 -0.113866,0.479478 -0.115564,0.08319 -0.328129,-0.162965 -0.483806,-0.133497 -0.106745,0.02021 -0.124415,0.16483 -0.214156,0.245641 -0.09676,0.08714 -0.264695,0.110596 -0.356022,0.125911 -0.634058,0.106329 -1.344372,0.131072 -1.991093,0.105419 -0.34228,-0.01358 -0.638813,-0.17163 -0.957979,-0.05368 -0.252056,0.09315 -0.09332,0.326469 -0.292783,0.511685 -0.07292,0.06771 -0.305049,-0.172362 -0.385268,-0.100638 -0.142964,0.127824 -0.14328,0.423978 -0.287278,0.585176 -0.06421,0.07188 -0.138049,0.211681 -0.273509,0.270275 -0.172857,0.07477 -0.41355,0.06608 -0.511641,0.141796 -0.118982,0.09184 -0.131771,0.427435 -0.199434,0.50882 -0.105519,0.126918 -0.25188,-0.01247 -0.430041,0.04893 -0.384856,0.132637 -0.60471,-0.110959 -1.013103,-0.145075 -0.430704,-0.03598 -0.938007,0.08914 -1.418968,0.0864 -0.321354,-0.0018 -0.567658,-0.16887 -0.865732,-0.185398 -0.177372,-0.0098 -0.414848,0.108814 -0.582552,0.140595 -0.2643,0.05009 -0.18363,0.28761 -0.423459,0.418258 -0.09385,0.05112 -0.281305,-0.152627 -0.416444,-0.117046 -0.09968,0.02625 -0.05726,0.267909 -0.15479,0.322187 -0.208911,0.116258 -0.549468,0.06893 -0.712666,0.100935 -0.239472,0.04697 -0.50698,-0.152495 -0.750035,-0.148799 -0.241663,0.0037 -0.392654,0.41772 -0.634061,0.417647 -0.185378,-5.6e-5 -0.479669,0.103911 -0.673205,0.06715 -0.155509,-0.02954 0.08243,-0.476358 -0.06462,-0.526569 -0.411669,-0.140567 -1.187483,0.08565 -1.603221,0.138832 -0.248535,0.0318 -0.217446,0.383651 -0.455832,0.474177 -0.442301,0.16796 -1.148827,0.09973 -1.613692,0.09494 -0.249583,-0.0026 -0.504197,-0.02992 -0.753825,-0.08308 -0.125482,-0.02672 -0.01688,-0.486814 -0.138573,-0.526721 -0.103699,-0.03401 -0.327607,-0.06683 -0.466673,-0.03755 -0.238969,0.05029 -0.404227,0.182885 -0.555239,0.07824 -0.135654,-0.094 -0.107594,-0.352835 -0.185518,-0.613027 -0.06629,-0.221355 -0.24145,-0.443695 -0.315356,-0.566364 -0.09887,-0.164106 -0.375096,0.02646 -0.528526,-0.0087 -0.141278,-0.03234 -0.158764,-0.29342 -0.27878,-0.361103 -0.09297,-0.05243 -0.03604,-0.281242 -0.140488,-0.36516 -0.176397,-0.141725 -0.159046,-0.271203 -0.358187,-0.385554 -0.104888,-0.06023 -0.471155,0.07776 -0.600255,0.02634 -0.09038,-0.03599 0.03542,-0.390765 -0.04037,-0.438348 -0.248294,-0.155884 -0.646036,-0.03612 -0.915498,-0.08199 -0.346553,-0.05899 -0.558606,0.06248 -0.911339,0.119245 -0.203445,0.03274 -0.55727,-0.04236 -0.744281,0.03597 -0.142713,0.05978 0.01416,0.39979 -0.0934,0.518626 -0.08592,0.09493 -0.209711,0.240332 -0.357787,0.279811 -0.179787,0.04793 -0.389235,-0.01736 -0.531835,0.02937 -0.291343,0.09547 -0.558223,-0.04928 -0.868078,-0.06673 -0.47623,-0.02682 -1.001117,0.018 -1.460136,-0.08848 -0.173388,-0.04022 -0.278187,-0.157672 -0.445051,-0.218699 -0.17246,-0.06307 -0.0131,-0.451059 -0.191093,-0.517345 -0.199055,-0.07413 -0.613381,0.08948 -0.838981,0.03972 -0.174699,-0.03853 -0.163732,-0.287866 -0.309841,-0.351371 -0.06592,-0.02865 -0.184432,-0.40524 -0.251781,-0.431741 -0.165753,-0.06522 -0.439783,0.0489 -0.628803,0.05195 -0.295647,0.0048 -0.715467,0.107113 -0.916393,-0.04021 -0.128368,-0.09412 -0.04491,-0.412625 -0.182003,-0.524222 -0.136187,-0.110859 -0.255491,-0.203787 -0.381866,-0.329644 -0.118637,-0.118152 -0.373526,-0.05713 -0.498156,-0.161411 -0.09066,-0.07586 -0.212109,-0.190477 -0.249664,-0.33603 -0.03507,-0.135906 0.01295,-0.302099 -0.04416,-0.398363 -0.0566,-0.09539 -0.156079,-0.19344 -0.296904,-0.209702 -0.165928,-0.01916 -0.374184,0.04509 -0.417688,-0.07819 -0.05859,-0.166044 0.02622,-0.436398 0.0071,-0.617484 -0.0159,-0.150578 -0.03313,-0.332631 0.08461,-0.454792 0.05994,-0.06219 0.269851,-0.06095 0.296322,-0.130636 0.06761,-0.177989 0.368903,-0.236609 0.515347,-0.393105 0.128147,-0.136943 0.0953,-0.376105 0.245973,-0.474227 0.123528,-0.08045 0.281814,-0.02289 0.38317,-0.122069 0.09999,-0.09784 0.316027,-0.192426 0.364354,-0.33536 0.05021,-0.148504 -0.06931,-0.346117 -0.07311,-0.48607 -0.0034,-0.124406 -0.158976,-0.145049 -0.261722,-0.255081 -0.06453,-0.0691 -0.06905,-0.236127 -0.124142,-0.290698 -0.05308,-0.05257 -0.245811,-0.05824 -0.297209,-0.128662 -0.06706,-0.09188 0.0066,-0.248582 -0.07165,-0.301487 -0.115535,-0.07817 -0.241939,-0.115652 -0.365331,-0.163275 -0.09633,-0.03718 -0.190824,-0.08054 -0.276879,-0.154249 -0.110856,-0.09496 -0.329833,-0.03304 -0.408407,-0.248951 -0.06909,-0.189835 0.0027,-0.659017 -0.09382,-0.747051 -0.190655,-0.173962 -0.497649,0.08934 -0.739483,0.01298 -0.273983,-0.08652 -0.647988,0.117957 -0.936316,0.09066 -0.468898,-0.04439 -1.029985,-0.009 -1.481411,-8.3e-4 -0.268524,0.0048 -0.587085,-0.07695 -0.890386,-0.102502 -0.174013,-0.01466 -0.343003,-0.01081 -0.494637,0.03854 -0.179024,0.05826 -0.02511,0.338612 -0.1401,0.498412 -0.06598,0.0917 -0.394881,-0.195708 -0.488865,-0.116742 -0.108941,0.09153 -0.01435,0.351051 -0.08773,0.495497 -0.05574,0.109726 -0.06037,0.263061 -0.18056,0.295751 -0.07254,0.01973 -0.261193,-0.06205 -0.318588,-0.06055 -0.138993,0.0036 -0.226415,-0.17688 -0.362166,-0.206952 -0.215625,-0.04777 -0.473707,0.0094 -0.710224,-0.02252 -0.341332,-0.04612 -0.736299,-0.01307 -1.051892,0.01204 -0.288237,0.02293 -0.5016831,0.02638 -0.7213131,0.21743 -0.119047,0.103558 -0.291663,0.267916 -0.318341,0.423688 -0.03317,0.193675 -0.08183,0.472205 -0.05849,0.678889 0.02309,0.204515 0.11857,0.337336 0.01466,0.501306 -0.0894,0.141073 -0.215748,0.0444 -0.359815,0.139391 -0.09808,0.06467 -0.06208,0.312738 -0.170515,0.382927 -0.103222,0.06682 -0.269591,0.12126 -0.38551,0.241879 -0.05576,0.05802 -0.06008,0.210886 -0.115311,0.237354 -0.07877,0.03775 -0.181728,0.122698 -0.253864,0.138079 -0.179769,0.03833 -0.302915,-0.01841 -0.370604,0.153823 -0.04187,0.106542 -0.139087,0.232468 -0.141577,0.348174 -0.0038,0.176842 -0.04822,0.537297 0.03048,0.710016 0.06621,0.145313 0.249795,0.104835 0.318046,0.235262 0.08381,0.160151 0.0228,0.381177 0.145976,0.513001 0.141387,0.151315 0.399363,0.100445 0.549424,0.253573 0.104096,0.106222 0.08916,0.424686 0.22529,0.504405 0.125429,0.07345 0.412268,-0.01343 0.544831,0.05361 0.170292,0.08613 -0.09933,0.404645 0.04264,0.514935 0.07249,0.05631 0.189904,0.136406 0.299152,0.278416 0.07174,0.09325 0.132597,0.264702 0.200735,0.292787 0.09776,0.0403 0.1789891,-0.07483 0.2641271,-0.08179 0.164747,-0.01347 0.308636,0.05858 0.366466,0.206227 0.03875,0.09893 -0.128279,0.271001 -0.153444,0.38048 -0.0444,0.193149 0.02487,0.328096 0.101704,0.499067 0.04499,0.100113 0.08767,0.36159 0.151921,0.448999 0.122821,0.1671 0.317502,0.150706 0.491508,0.254812 0.145061,0.08679 0.217873,0.404876 0.371256,0.502811 0.09714,0.06202 0.222269,0.02159 0.308735,0.108426 0.09308,0.09349 0.147527,0.31391 0.254593,0.366442 0.07388,0.03625 0.155193,0.05259 0.237996,0.06479 0.05119,0.0075 0.08948,-0.09848 0.171413,-0.116622 0.129102,-0.02858 0.309001,0.02679 0.379597,0.06476 0.10569,0.05684 0.253396,0.161172 0.296271,0.289172 0.04081,0.121837 -0.02309,0.267553 0.0671,0.320255 0.115439,0.06746 0.308349,-0.06084 0.455041,-0.03919 0.181628,0.0268 0.313084,0.207628 0.3845,0.373986 0.02348,0.0547 0.0588,0.234494 -0.03555,0.349692 -0.09219,0.112562 -0.31404,0.160522 -0.297526,0.216917 0.09037,0.308618 -0.05525,0.645792 -0.05029,0.973545 0.0041,0.271996 0.16429,0.537503 0.172959,0.774814 0.0087,0.238823 0.259591,0.336448 0.158668,0.582365 -0.05402,0.131626 -0.04209,0.454423 -0.135006,0.561012 -0.048,0.05506 -0.176828,-0.04115 -0.305639,-0.03826 -0.113359,0.0025 -0.226705,0.105167 -0.284936,0.130515 -0.13214,0.05752 -0.01459,0.174686 -0.06246,0.284187 -0.02377,0.05439 -0.195537,0.09714 -0.24672,0.149047 -0.09692,0.09829 -0.04481,0.319595 -0.109748,0.44974 -0.05714,0.11451 -0.231175,0.138001 -0.311944,0.229019 -0.09408,0.10602 -0.272184,0.115258 -0.391312,0.196751 -0.161058,0.110177 -0.267861,0.288179 -0.41603,0.412957 -0.119334,0.100495 -0.234166,0.311255 -0.375686,0.39176 -0.182677,0.103917 -0.392589,0.07697 -0.533805,0.216931 -0.101729,0.100824 -0.04884,0.579695 -0.119147,0.704458 -0.04642,0.08237 -0.212209,-0.186612 -0.277495,-0.118186 -0.100812,0.10566 -0.4219671,0.05581 -0.5235251,0.161019 -0.09898,0.102537 0.12654,0.451674 0.02977,0.555854 -0.106481,0.114636 -0.137045,0.344379 -0.24643,0.456784 -0.08226,0.08453 -0.247314,0.228448 -0.399945,0.242425 -0.150901,0.01382 -0.289365,-0.102294 -0.374237,-0.02263 -0.136319,0.127963 -0.112797,0.260318 -0.240601,0.396311 -0.128645,0.136887 0.0133,0.329198 -0.116394,0.472688 -0.09796,0.10838 -0.513722,-0.02874 -0.623563,0.08029 -0.08153,0.08093 -0.21058,0.2645 -0.249427,0.477807 -0.03204,0.175913 0.02624,0.384462 -0.03057,0.463613 -0.15109,0.210504 -0.430145,-0.01473 -0.590758,0.109043 -0.06182,0.04764 -0.229275,0.177693 -0.275047,0.27054 -0.06367,0.129141 -0.02259,0.326346 -0.140139,0.427484 -0.07956,0.06845 -0.322904,0.04383 -0.371117,0.112483 -0.159319,0.226848 0.05044,0.504226 0.01131,0.775915 -0.01531,0.106291 -0.163488,0.38665 -0.356818,0.486199 -0.151655,0.07809 -0.344857,-0.02079 -0.378826,0.05721 -0.06683,0.153462 0.131791,0.272296 0.139227,0.428602 0.02757,0.579545 0.224943,1.207879 0.132397,1.757334 -0.03303,0.196106 0.262881,0.692039 0.178477,0.872791 -0.06808,0.145806 -0.435118,-0.0057 -0.600113,0.06188 -0.170817,0.06997 -0.139537,0.35901 -0.199221,0.513995 -0.04404,0.11435 -0.345153,0.338318 -0.390124,0.452647 -0.106255,0.270133 0.03319,0.469714 0.01216,0.714098 -0.01642,0.190799 -0.194935,0.423193 -0.24289,0.644089 -0.0476,0.219238 -0.204073,0.459508 -0.243031,0.68284 -0.084413,0.483905 -0.022606,0.955878 0.03608,1.438423 0.03575,0.293943 0.143923,0.231783 0.232424,0.52128 0.04729,0.154693 0.219728,0.172167 0.276496,0.4039 0.06009,0.245285 0.006,0.704198 0.111938,0.833915 0.168541,0.206371 0.406255,0.131957 0.660355,0.239763 0.188159,0.07983 0.147504,0.446261 0.332199,0.574795 0.07943,0.05527 0.149644,0.429503 0.261148,0.449186 0.204125,0.03603 0.460592,-0.298927 0.557131,-0.177246 0.151019,0.19035 0.408216,0.351179 0.442909,0.596318 0.03773,0.266586 -0.150938,0.619516 -0.06873,0.870642 0.05236,0.159927 0.374523,0.05136 0.426427,0.216173 0.09949,0.315908 -0.06027,0.902505 0.130677,1.162464 0.119393,0.162542 0.299106,-0.04436 0.472851,0.06431 0.156141,0.09766 0.303943,0.513515 0.458435,0.608287 0.144621,0.08872 0.132766,0.362271 0.286319,0.557839 0.113195,0.144165 0.391442,0.220895 0.502529,0.278627 0.09487,0.0493 0.188882,-0.04331 0.282724,-0.04089 0.243551,0.0063 0.4859591,0.02309 0.7392611,0.135713 0.227831,0.101298 -0.109831,0.565997 0.121565,0.659855 0.23073,0.09359 0.650463,-0.06649 1.044833,-0.08811 0.292351,-0.01602 0.570765,0.101729 0.747912,0.152585 0.159538,0.0458 -0.11828,0.3225 0.04398,0.356994 0.306382,0.06513 0.682994,-0.114254 1.087972,-0.115273 0.190867,-4.8e-4 0.09379,0.407124 0.284067,0.442088 0.32496,0.05971 0.927069,-0.231177 1.170888,-0.166427 0.201542,0.05352 0.497613,-0.11623 0.69937,-0.05872 0.273135,0.07786 0.449578,0.389451 0.697559,0.524359 0.261474,0.142249 0.309164,0.521648 0.530954,0.723049 0.107332,0.09747 0.423538,-0.01485 0.503808,0.104761 0.110986,0.165384 0.158971,0.363603 0.188092,0.570743 0.02109,0.150028 -0.06054,0.325175 -0.0084,0.446307 0.04546,0.105699 0.223615,0.157927 0.260993,0.276333 0.04213,0.133468 -0.02297,0.364757 0.07674,0.465712 0.177415,0.179635 0.213375,0.40098 0.471558,0.450279 0.221561,0.04231 0.66132,-0.07959 0.873632,-0.03637 0.14184,0.02887 0.329,-0.03142 0.478778,-0.0338 0.23348,-0.0037 0.437304,0.07246 0.605193,0.288642 0.09853,0.126864 0.159236,0.403701 0.274154,0.469489 0.236279,0.135264 0.404878,0.07188 0.557713,0.231301 0.131036,0.136678 0.134074,0.566047 0.274656,0.751749 0.133781,0.176719 0.40311,0.110794 0.603364,0.206927 0.208817,0.100244 0.50604,0.209426 0.746883,0.179985 0.189893,-0.02321 0.323976,-0.167206 0.49483,-0.231725 0.07784,-0.02939 0.182347,-0.249344 0.377611,-0.29523 0.159877,-0.03757 0.416772,0.101842 0.465865,0.05172 0.22673,-0.231478 -0.0576,-0.543197 0.243025,-0.636037 0.158584,-0.04897 0.396415,0.18885 0.564374,0.1646 0.397851,-0.05744 0.899623,-0.009 1.276856,-0.007 0.277055,0.0014 0.43638,-0.08115 0.693936,0.04938 0.168098,0.08519 -0.08827,0.399704 0.01241,0.57221 0.04356,0.07464 0.149907,0.23875 0.295776,0.265023 0.129403,0.02331 0.297704,-0.08914 0.364407,-0.06116 0.143242,0.06008 0.369235,0.153687 0.526356,0.130206 0.242355,-0.03622 0.614705,-0.002 0.836997,-0.06799 0.146612,-0.04353 0.145269,-0.22368 0.292267,-0.165687 0.275629,0.10874 0.347394,0.385184 0.524238,0.640663 0.08814,0.127333 0.179554,0.149489 0.27603,0.278242 0.115629,0.154315 0.384867,0.178212 0.518116,0.333394 0.06563,0.07643 0.168163,0.07824 0.21354,0.169314 0.0759,0.152332 0.09055,0.38998 0.227171,0.440959 0.258412,0.09643 0.596082,0.05092 0.868434,0.03073 0.06994,-0.0052 0.101391,-0.162474 0.166328,-0.134202 0.186538,0.08121 0.113575,0.270104 0.206405,0.479511 0.06369,0.143666 0.257614,0.200045 0.372913,0.358561 0.163976,0.225435 0.262448,0.526513 0.403714,0.455379 z"
     id="Badajoz" /><path
     d="m 64.042939,35.853647 c -0.100803,0.03639 -0.0821,0.209399 -0.155508,0.292324 -0.09012,0.101809 -0.272679,0.11424 -0.417839,0.139219 -0.07881,0.01356 -0.231053,0.03897 -0.301915,0.135934 -0.05483,0.07502 -0.0279,0.225916 -0.08839,0.23944 -0.262278,0.05864 -0.599852,-0.02723 -0.861931,-0.0022 -0.120176,0.01148 -0.166695,0.132911 -0.285463,0.148305 -0.17327,0.02246 -0.179953,0.107664 -0.347974,0.15661 -0.09374,0.02731 -0.351079,0.0055 -0.442543,0.04629 -0.08835,0.03939 -0.301847,0.102161 -0.472119,0.08861 -0.150813,-0.012 -0.259839,-0.101625 -0.334114,-0.05914 -0.128633,0.07358 -0.09263,0.372682 -0.193028,0.469566 -0.07753,0.07482 -0.211328,0.09822 -0.292216,0.163156 -0.0883,0.07088 0.0094,0.260184 -0.07684,0.329159 -0.09839,0.07869 -0.312367,0.03146 -0.467489,0.07402 -0.141088,0.03871 -0.469375,-0.052 -0.584135,0.0086 -0.124291,0.06564 -0.03886,0.222153 -0.137944,0.311891 -0.02773,0.02512 -0.13913,0.01342 -0.169388,0.03796 -0.06944,0.05633 -0.02078,0.29619 -0.09257,0.351303 -0.102033,0.07833 -0.212811,0.186884 -0.352331,0.206047 -0.145549,0.01999 -0.320359,-0.05044 -0.449484,-0.0151 -0.221447,0.06061 -0.320328,-0.141748 -0.617824,-0.195828 -0.342574,-0.06227 -0.885896,0.0184 -1.149699,0.03797 -0.125325,0.0093 -0.06897,0.186919 -0.231992,0.282276 -0.09567,0.05596 -0.422804,0.03562 -0.49073,0.06424 -0.169878,0.07158 -0.102693,0.225156 -0.215533,0.328592 -0.106389,0.09752 -0.04322,0.291511 -0.154731,0.400579 -0.09962,0.09744 -0.336883,0.0255 -0.474993,0.113721 -0.09916,0.06334 -0.336054,0.103645 -0.394457,0.223639 -0.03817,0.07843 0.09945,0.238046 0.05655,0.296953 -0.09596,0.131781 -0.0016,0.376489 -0.0488,0.537909 -0.03039,0.103959 -0.429941,0.03215 -0.468123,0.131179 -0.05457,0.141526 0.09566,0.34094 0.10283,0.507239 0.0085,0.196822 -0.128531,0.358254 -0.258497,0.47929 -0.165855,0.154459 -0.443295,0.198845 -0.681135,0.14536 -0.14258,-0.03206 -0.241633,-0.175468 -0.375754,-0.138559 -0.112196,0.03088 -0.009,0.403988 -0.113866,0.479478 -0.115564,0.08319 -0.328129,-0.162965 -0.483806,-0.133497 -0.106745,0.02021 -0.124415,0.16483 -0.214156,0.245641 -0.09676,0.08714 -0.264695,0.110596 -0.356022,0.125911 -0.634058,0.106329 -1.344372,0.131072 -1.991093,0.105419 -0.34228,-0.01358 -0.638813,-0.17163 -0.957979,-0.05368 -0.252056,0.09315 -0.09332,0.326469 -0.292783,0.511685 -0.07292,0.06771 -0.305049,-0.172362 -0.385268,-0.100638 -0.142964,0.127824 -0.14328,0.423978 -0.287278,0.585176 -0.06421,0.07188 -0.138049,0.211681 -0.273509,0.270275 -0.172857,0.07477 -0.41355,0.06608 -0.511641,0.141796 -0.118982,0.09184 -0.131771,0.427435 -0.199434,0.50882 -0.105519,0.126918 -0.25188,-0.01247 -0.430041,0.04893 -0.384856,0.132637 -0.60471,-0.110959 -1.013103,-0.145075 -0.430704,-0.03598 -0.938007,0.08912 -1.418968,0.0864 -0.321354,-0.0018 -0.567657,-0.168892 -0.865732,-0.185398 -0.177371,-0.0098 -0.414848,0.108814 -0.582552,0.140595 -0.2643,0.05009 -0.18363,0.28761 -0.423459,0.418258 -0.09385,0.05112 -0.281305,-0.152627 -0.416444,-0.117046 -0.09968,0.02625 -0.05726,0.267909 -0.15479,0.322187 -0.208911,0.116258 -0.549468,0.06893 -0.712666,0.100935 -0.239472,0.04697 -0.50698,-0.152508 -0.750035,-0.148799 -0.241663,0.0037 -0.392654,0.41772 -0.634061,0.417647 -0.185378,-5.6e-5 -0.479669,0.103911 -0.673205,0.06715 -0.155509,-0.02954 0.08243,-0.476358 -0.06462,-0.526569 -0.411669,-0.140567 -1.187483,0.08565 -1.603221,0.138832 -0.248535,0.0318 -0.217446,0.383651 -0.455832,0.474177 -0.442301,0.16796 -1.148827,0.09975 -1.613692,0.09494 -0.249583,-0.0026 -0.504197,-0.02992 -0.753825,-0.08308 -0.125482,-0.02672 -0.01688,-0.486814 -0.138573,-0.526721 -0.103699,-0.03401 -0.327605,-0.06682 -0.466673,-0.03755 -0.238967,0.0503 -0.404227,0.182885 -0.555239,0.07824 -0.135654,-0.094 -0.107594,-0.352835 -0.185518,-0.613027 -0.06629,-0.221355 -0.24145,-0.443695 -0.315356,-0.566364 -0.09887,-0.164106 -0.375092,0.02644 -0.528526,-0.0087 -0.141274,-0.03236 -0.158764,-0.29342 -0.27878,-0.361103 -0.09297,-0.05243 -0.03604,-0.281242 -0.140488,-0.36516 -0.176397,-0.141725 -0.159046,-0.271203 -0.358187,-0.385554 -0.104888,-0.06023 -0.471155,0.07776 -0.600255,0.02634 -0.09038,-0.03599 0.03542,-0.390765 -0.04037,-0.438348 -0.248294,-0.155884 -0.646036,-0.03612 -0.915498,-0.08199 -0.346553,-0.05899 -0.558606,0.06248 -0.911339,0.119245 -0.203445,0.03274 -0.55727,-0.04236 -0.744281,0.03597 -0.142713,0.05978 0.01416,0.39979 -0.0934,0.518626 -0.08592,0.09493 -0.209711,0.240332 -0.357787,0.279811 -0.179787,0.04793 -0.389235,-0.01736 -0.531835,0.02937 -0.291343,0.09547 -0.558223,-0.04928 -0.868078,-0.06673 -0.47623,-0.02682 -1.001117,0.018 -1.460136,-0.08848 -0.173388,-0.04022 -0.278187,-0.157672 -0.445051,-0.218699 -0.17246,-0.06307 -0.0131,-0.451059 -0.191093,-0.517345 -0.199055,-0.07413 -0.613381,0.08948 -0.838981,0.03972 -0.174699,-0.03853 -0.163732,-0.287866 -0.309841,-0.351371 -0.06592,-0.02865 -0.184432,-0.40524 -0.251781,-0.431741 -0.165753,-0.06522 -0.439783,0.04889 -0.628803,0.05195 -0.295647,0.0048 -0.715467,0.107113 -0.916393,-0.04021 -0.128368,-0.09412 -0.04491,-0.412625 -0.182003,-0.524222 -0.136187,-0.110859 -0.255491,-0.203787 -0.381866,-0.329644 -0.118637,-0.118152 -0.373526,-0.05713 -0.498156,-0.161411 -0.09066,-0.07586 -0.212109,-0.190477 -0.249664,-0.33603 -0.03507,-0.135906 0.01295,-0.302099 -0.04416,-0.398363 -0.0566,-0.09539 -0.156079,-0.19344 -0.296904,-0.209702 -0.165928,-0.01916 -0.374184,0.04509 -0.417688,-0.07819 -0.05859,-0.166044 0.02622,-0.436398 0.0071,-0.617484 -0.0159,-0.150578 -0.03313,-0.332631 0.08461,-0.454792 0.05994,-0.06219 0.269851,-0.06095 0.296322,-0.130636 0.06761,-0.177989 0.368903,-0.236609 0.515347,-0.393105 0.128147,-0.136943 0.0953,-0.376105 0.245973,-0.474227 0.123528,-0.08045 0.281814,-0.02289 0.38317,-0.122069 0.09999,-0.09784 0.316027,-0.192426 0.364354,-0.33536 0.05021,-0.148504 -0.0693,-0.346117 -0.07311,-0.48607 -0.0034,-0.124406 -0.158976,-0.145049 -0.261722,-0.255081 -0.06453,-0.0691 -0.06905,-0.236127 -0.124142,-0.290698 -0.05308,-0.05257 -0.245811,-0.05824 -0.297209,-0.128662 -0.06706,-0.09188 0.0066,-0.248566 -0.07165,-0.301487 -0.115546,-0.07815 -0.241939,-0.115652 -0.365331,-0.163275 -0.09633,-0.03718 -0.190824,-0.08054 -0.276879,-0.154249 -0.110856,-0.09496 -0.329833,-0.03304 -0.408407,-0.248951 -0.06909,-0.189835 0.0027,-0.659004 -0.09382,-0.747051 -0.190667,-0.173949 -0.497649,0.08934 -0.739483,0.01298 -0.273983,-0.08652 -0.647988,0.117957 -0.936316,0.09066 -0.468898,-0.04439 -1.029984,-0.009 -1.481411,-8.3e-4 -0.268523,0.0048 -0.587085,-0.07695 -0.890386,-0.102502 -0.174013,-0.01466 -0.343003,-0.01081 -0.494637,0.03854 -0.179024,0.05826 -0.02511,0.338612 -0.1401,0.498412 -0.06598,0.0917 -0.394881,-0.195708 -0.488865,-0.116742 -0.108941,0.09153 -0.01435,0.351051 -0.08773,0.495497 -0.05574,0.109726 -0.06037,0.263061 -0.18056,0.295751 -0.07254,0.01973 -0.261193,-0.06204 -0.318588,-0.06055 -0.138993,0.0036 -0.226415,-0.17688 -0.362166,-0.206952 -0.215625,-0.04777 -0.47371,0.0094 -0.710224,-0.02252 -0.341335,-0.0461 -0.736299,-0.01307 -1.051892,0.01204 -0.288237,0.02293 -0.5016831,0.02638 -0.7213131,0.21743 -0.119047,0.103558 -0.291663,0.267916 -0.318341,0.423688 -0.03317,0.193675 -0.08183,0.472205 -0.05849,0.678889 0.02309,0.204515 0.11857,0.337336 0.01466,0.501306 -0.0894,0.141073 -0.215748,0.0444 -0.359815,0.139391 -0.09808,0.06467 -0.06208,0.312738 -0.170515,0.382927 -0.103222,0.06682 -0.269591,0.12126 -0.38551,0.241879 -0.05576,0.05802 -0.06008,0.210886 -0.115311,0.237354 -0.07877,0.03775 -0.181728,0.122698 -0.253864,0.138079 -0.179769,0.03833 -0.302915,-0.01841 -0.370604,0.153823 -0.04187,0.106542 -0.139087,0.232468 -0.141577,0.348174 0,0 -0.240716,-0.112262 -0.369703,-0.413626 -0.073,-0.170553 0.01287,-0.498382 -0.106312,-0.661277 -0.133742,-0.182789 -0.470589,-0.110099 -0.571521,-0.308215 -0.100695,-0.197653 0.04097,-0.489393 -0.02682,-0.646485 -0.05347,-0.123904 -0.04197,-0.468524 -0.134418,-0.593977 -0.103179,-0.140012 -0.310422,-0.06103 -0.361897,-0.202685 -0.05403,-0.148688 -0.442526,-0.104177 -0.474005,-0.254323 -0.05572,-0.265765 -0.02332,-0.624992 0.0338,-0.950918 0.03267,-0.186395 0.12565,-0.353194 0.08284,-0.507395 -0.04765,-0.171653 0.07306,-0.73006 -0.08747,-0.981396 -0.120652,-0.188893 -0.535254,-0.07488 -0.55026,-0.210998 -0.04289,-0.389023 -0.07785,-0.695606 -0.03244,-0.988258 0.02855,-0.184038 0.198355,-0.354747 0.07519,-0.561468 -0.123812,-0.2078 -0.408213,-0.226274 -0.610979,-0.368762 C 4.2583567,31.389555 4.3539309,31.151933 4.290866,30.965678 4.2560272,30.862787 4.0739161,30.784559 4.015621,30.736422 3.8885297,30.631477 3.6337493,30.730335 3.4897926,30.687648 3.3055996,30.63303 3.2369115,30.437334 3.1428861,30.257782 3.0470767,30.074823 2.9945624,29.841938 3.0221456,29.616866 c 0.027996,-0.22844 0.1357743,-0.44883 -0.0086,-0.600798 -0.095974,-0.101019 -0.3290171,0.08828 -0.4795427,0.0951 -0.1511775,0.0068 -0.4139251,-0.142822 -0.5422849,-0.198572 -0.1223097,-0.05312 -0.1009894,-0.195399 -0.1869047,-0.28986 -0.039322,-0.04323 -0.1829084,-0.04577 -0.228016,-0.07954 -0.059958,-0.04488 -0.1624209,-0.185955 -0.28792,-0.224139 -0.1178157,-0.03585 -0.259004,0.03127 -0.3129144,-0.01213 -0.2162957,-0.174103 -0.1617275,-0.389607 -0.34237,-0.636048 -0.073152,-0.0998 -0.4199914,0.06562 -0.4906536,-0.04515 -0.1308816,-0.205176 -0.023947,-0.544751 -0.00444,-0.846726 0.01386,-0.214508 -0.080473,-0.397227 -0.04816,-0.55679 0.049398,-0.243934 -0.1301599,-0.471316 0.030095,-0.674757 0.077009,-0.09776 0.3034109,-0.02184 0.4305095,-0.107729 0.1410165,-0.09529 0.2556956,-0.330269 0.3926062,-0.444254 0.077517,-0.06454 0.2464842,-0.04063 0.3246008,-0.08137 0.1047531,-0.05463 0.1184093,-0.163555 0.219117,-0.166423 1.0904531,-0.03105 2.3124962,-0.06396 3.4664531,-0.02587 0.198458,0.0066 0.356245,0.05416 0.491759,0.193133 0.08947,0.09176 0.14735,0.289012 0.27887,0.306407 0.612274,0.08098 1.29783,-0.05222 1.938391,0.01608 0.845404,0.09015 1.776113,0.272214 2.5964801,0.30468 0.611531,0.0242 1.121519,-0.05771 1.705012,-0.199446 0.166108,-0.04035 0.148327,-0.311193 0.372685,-0.379214 0.135506,-0.04108 0.53188,0.131496 0.620046,0.07654 0.226207,-0.140995 -0.0061,-0.407658 0.134236,-0.585758 0.04292,-0.05447 0.25915,0.01157 0.38475,-0.0229 0.162442,-0.04458 0.242889,-0.187685 0.324986,-0.252778 0.158502,-0.125674 0.283355,-0.174378 0.357521,-0.343012 0.04434,-0.100811 0.02069,-0.327603 0.113788,-0.408484 0.08644,-0.0751 0.311577,0.05877 0.438475,-4.16e-4 0.231427,-0.107948 0.376806,-0.406743 0.461276,-0.593278 0.09211,-0.203414 -0.07345,-0.486306 -0.07352,-0.711409 -1.39e-4,-0.411801 -0.223093,-0.940817 -0.143783,-1.331722 0.02824,-0.139204 0.298112,-0.147951 0.346651,-0.285084 0.04033,-0.113943 0.155895,-0.264027 0.172692,-0.413394 0.01962,-0.17449 -0.05781,-0.347999 0.0272,-0.461767 0.09961,-0.13332 0.292932,-0.03236 0.441437,-0.118717 0.0969,-0.05635 0.04212,-0.427759 0.122553,-0.53508 0.08422,-0.112377 0.30297,0.03861 0.374359,-0.04905 0.0635,-0.07798 0.289142,-0.233896 0.33456,-0.367421 0.05623,-0.165328 -0.06729,-0.310124 0.02918,-0.393904 0.104626,-0.09086 0.19051,-0.304249 0.310621,-0.34596 0.179096,-0.0622 0.38682,0.0516 0.463877,-0.134429 0.136173,-0.328751 0.07593,-0.727253 0.103883,-1.09241 0.03443,-0.449707 0.129109,-0.86889 -4.07e-4,-1.287543 -0.02314,-0.07482 -0.168325,-0.261974 -0.328144,-0.329676 -0.10721,-0.04542 -0.242349,0.02695 -0.271962,-0.01603 -0.09199,-0.133521 -0.211157,-0.20504 -0.224215,-0.327262 -0.01442,-0.134966 0.07785,-0.320406 -0.02936,-0.46527 -0.0861,-0.116352 -0.131193,-0.36378 -0.214199,-0.482553 -0.0532,-0.07612 -0.265465,0.02595 -0.408497,0.01495 -0.101164,-0.0078 -0.141836,-0.123835 -0.181324,-0.17104 -0.05951,-0.07114 -0.03819,-0.372377 -0.127522,-0.470145 -0.05184,-0.05674 -0.235318,0.09231 -0.247676,0.03707 -0.02282,-0.101997 -0.120732,-0.213327 -0.100328,-0.30639 0.02067,-0.09426 0.159364,-0.170118 0.08957,-0.251641 -0.07137,-0.08337 -0.274872,-0.04774 -0.35092,-0.12675 -0.10298,-0.106997 -0.15178,-0.237258 -0.292052,-0.324059 -0.10234,-0.06333 -0.301767,-0.07933 -0.36752,-0.165739 -0.0267,-0.03509 0.0011,-0.213142 -0.05609,-0.232138 -0.12614,-0.04189 -0.365904,0.09011 -0.39588,-0.0047 -0.02158,-0.06826 0.133351,-0.14435 0.180654,-0.249122 0.03812,-0.08442 -0.0254,-0.201076 -0.06338,-0.242663 -0.05851,-0.06407 -0.242063,0.04419 -0.305074,-0.01833 -0.05137,-0.05097 -0.198752,-0.128198 -0.264069,-0.235299 -0.04113,-0.06744 -0.01068,-0.170135 -0.02585,-0.212013 -0.115299,-0.31846 -0.04955,-0.604747 -0.0014,-0.9482803 0.03933,-0.280465 -0.0064,-0.740494 0.03904,-1.035863 0.02641,-0.171844 0.143528,-0.185276 0.169297,-0.344071 0.0241,-0.14853 0.05571,-0.330106 0.154145,-0.456394 0.05121,-0.0657 0.186554,-0.06927 0.207789,-0.145834 0.04184,-0.150836 -0.07378,-0.294854 -0.06962,-0.456874 0.0036,-0.141921 0.123283,-0.303676 0.199197,-0.415434 0.05541,-0.08157 0.271833,-0.0815 0.337767,-0.155275 0.06513,-0.072868 0.175595,-0.1425528 0.212533,-0.2747326 0.02507,-0.089715 -0.02559,-0.2500749 0.0146,-0.2978705 0.04792,-0.05699 0.105474,-0.1793549 0.168565,-0.2008302 0.123883,-0.042168 0.269123,0.046104 0.404769,-0.028447 0.07958,-0.043739 0.265274,0.09372 0.349501,0.053556 0.09076,-0.043278 0.09074,-0.2648818 0.166401,-0.3292019 0.119818,-0.1018602 0.312395,-0.043316 0.467122,-0.034783 0.146287,0.00807 0.286314,-0.029643 0.422058,0.027615 0.07502,0.031645 -0.135823,0.2831387 -0.06308,0.3333832 0.08145,0.056258 0.23558,0.065911 0.387534,0.073656 0.1462,0.00745 0.290381,0.013135 0.365861,0.056859 0.08423,0.048795 0.213223,-0.00642 0.287848,0.05914 0.0904,0.079411 0.06334,0.226796 0.142488,0.330082 0.09976,0.1301949 0.307335,0.213172 0.449212,0.257505 0.222588,0.06955 0.467865,0.0047 0.704552,0.03707 0.328542,0.04499 0.688403,0.0019 1.01615,-0.002 0.361964,-0.0042 0.690441,0.02242 1.021417,-0.11271 0.118811,-0.048508 0.453363,-0.0019 0.536467,-0.1065693 0.0549,-0.069111 -0.04562,-0.1836773 -0.04322,-0.2811028 0.0029,-0.1197528 0.108533,-0.2202161 0.205222,-0.2590537 0.257827,-0.103563 0.548986,-0.043719 0.836748,2.732e-4 0.239224,0.036572 0.4761,0.062188 0.689526,-0.026142 0.09424,-0.039001 0.238005,-0.2071274 0.265648,-0.4036286 0.02052,-0.1458824 -0.07521,-0.3248202 -0.0269,-0.3862261 0.108415,-0.1377934 0.459856,0.016321 0.601994,-0.076759 0.05976,-0.039136 0.209023,-0.054588 0.279077,-0.1229722 0.0546,-0.0533 0.03063,-0.1641416 0.0769,-0.1782116 0.136058,-0.041371 0.301803,0.014915 0.42191,-0.014863 0.10148,-0.025161 0.155577,-0.133967 0.282746,-0.1883993 0.07421,-0.031764 0.383973,0.057629 0.47592,-0.04048 0.115859,-0.1236217 0.05392,-0.2833033 0.149161,-0.3202588 0.167075,-0.064831 0.363196,0.084519 0.476656,0.00833 0.07499,-0.050357 0.06289,-0.3376364 0.164797,-0.3553721 0.146074,-0.025422 0.32584,-0.016508 0.50607,-0.021439 0.110904,-0.00303 0.223671,-0.06586 0.262049,-0.1485006 0.02883,-0.06208 -0.01813,-0.1409781 0.04781,-0.1829119 0.08032,-0.051079 0.284578,-0.011212 0.403128,-0.032936 0.208799,-0.038261 0.342039,-0.1316358 0.424681,-0.2774928 0.04417,-0.077952 -0.124975,-0.201628 -0.110651,-0.2902927 0.03204,-0.1983082 -0.08578,-0.4634548 -0.0041,-0.6531909 0.01957,-0.045432 0.142517,-0.091838 0.19068,-0.1654765 0.05637,-0.086182 0.03899,-0.2000985 0.0663,-0.249165 0.04348,-0.078117 0.25874,0.050106 0.352226,-0.00982 0.107563,-0.068946 0.09581,-0.3241368 0.170329,-0.3873637 0.07343,-0.062303 0.266551,0.016867 0.385515,-0.015596 0.144961,-0.039557 0.217444,-0.1884313 0.302788,-0.2505037 0.08757,-0.063695 -0.007,-0.2418889 0.03238,-0.33056274 0.03975,-0.089428 0.213594,-0.089352 0.321839,-0.15733 0.174632,-0.1096697 0.487715,-0.039771 0.677766,-0.1238857 0.153442,-0.067912 0.209854,-0.28138 0.332313,-0.3784976 0.07568,-0.060019 0.208564,-0.019639 0.309243,-0.040867 0.402072,-0.084775 0.82696,-0.068083 1.241146,-0.098329 0.371394,-0.027122 0.847471,-0.062897 1.20586,-0.09488 0.248725,-0.022197 0.406293,0.066665 0.65728,0.1156029 0.15687,0.030587 0.428347,-0.079914 0.57939,-0.02316 0.09531,0.035812 0.06962,0.2011217 0.1411,0.2727526 0.05695,0.057069 0.132091,0.162411 0.237893,0.199626 0.1205,0.042385 0.273085,0.015616 0.348004,0.068162 0.126174,0.088496 0.0035,0.2598728 0.107094,0.37428514 0.110579,0.1221802 0.148906,0.3350702 0.288504,0.4438196 0.102199,0.079615 0.306692,0.055398 0.393408,0.1390502 0.08132,0.078446 -0.0699,0.2874509 0.02388,0.354525 0.06295,0.045021 0.172149,0.063222 0.282799,0.081747 0.143465,0.024018 0.289365,0.048581 0.340042,0.1328468 0.08745,0.1454153 0.206953,0.2750087 0.227394,0.4472134 0.02441,0.2056117 -0.05388,0.4554554 0.0313,0.6392867 0.05281,0.1139746 0.189961,0.1623095 0.256991,0.2707854 0.09707,0.1570869 0.170929,0.298345 0.344448,0.3613925 0.05379,0.019544 0.234071,-0.085343 0.278108,-0.050124 0.107155,0.085697 0.08585,0.3016817 0.178495,0.4023269 0.09093,0.098786 0.174966,0.332483 0.29463,0.3968223 0.159853,0.085947 0.363,-0.00856 0.535769,0.041595 0.176952,0.051368 0.587268,-0.078241 0.773822,-0.066799 0.07834,0.0048 0.165955,-0.060186 0.225606,-0.00165 0.06061,0.059472 0.09319,0.2426956 0.164679,0.2754066 0.101461,0.046423 0.03123,0.3538278 0.08021,0.4453061 0.08528,0.159274 0.269187,0.1106659 0.463037,0.097944 0.06733,-0.00442 0.271169,-0.048902 0.31223,-0.1519709 0.0524,-0.1315274 -0.06273,-0.3340716 -0.01178,-0.4072352 0.0743,-0.1067049 0.28724,-0.045674 0.363465,-0.1122642 0.05326,-0.046525 -0.03539,-0.1658454 -0.0049,-0.2330407 0.03804,-0.083703 0.196798,-0.1150677 0.298097,-0.1561201 0.09193,-0.037257 0.336082,-0.1600694 0.439574,-0.1627942 0.166998,-0.0044 0.195947,0.1379338 0.336497,0.2145322 0.09895,0.053928 0.150115,0.2872296 0.216032,0.3779056 0.0882,0.1213257 0.111024,0.3569414 0.191669,0.4574395 0.08322,0.103711 0.224661,0.07193 0.342502,0.1735479 0.0485,0.041821 0.168108,0.066159 0.195457,0.1307112 0.03879,0.091549 -0.01642,0.2247387 0.06598,0.2651645 0.05841,0.028655 0.155934,0.013178 0.25108,-0.00121 0.0808,-0.012221 0.159873,-0.023659 0.21182,-0.00663 0.09119,0.029903 0.171748,0.1549736 0.266822,0.1706859 0.161751,0.026732 0.363758,-0.072104 0.542938,-0.090679 0.251885,-0.026112 0.483916,0.018003 0.716321,0.020003 0.245944,0.00212 0.431383,0.098409 0.646919,0.2104188 0.114579,0.059545 0.03601,0.1638077 0.0625,0.265449 0.01985,0.076131 0.144058,0.1451133 0.204035,0.223793 0.0392,0.051426 0.226797,0.047942 0.306099,0.094571 0.127149,0.07476 0.158759,0.197082 0.229303,0.269865 0.04885,0.0504 0.04111,0.19619 0.115912,0.220635 0.120098,0.03924 0.330541,-0.05065 0.409591,0.02966 0.06134,0.06231 0.165546,0.148159 0.178661,0.248329 0.01129,0.0862 -0.06838,0.186368 -0.02788,0.252276 0.06567,0.106868 0.217756,0.07269 0.323308,0.149524 0.101946,0.07421 0.15701,0.259804 0.242118,0.341292 0.08655,0.08287 -3.6e-5,0.277294 0.08123,0.36896 0.06613,0.07459 0.191779,0.165623 0.330969,0.179067 0.104087,0.01005 0.221446,-0.05749 0.296158,-0.02182 0.134065,0.06401 0.103422,0.27418 0.222933,0.327469 0.115477,0.05149 0.09322,0.301357 0.216303,0.336073 0.295421,0.08332 0.764916,0.107032 1.116326,0.04102 0.224509,-0.04218 0.339579,-0.159252 0.529943,-0.196005 0.104387,-0.02015 0.254759,-0.16114 0.292233,-0.311736 0.03177,-0.127666 -0.05035,-0.265876 0.03151,-0.305239 0.176994,-0.08511 0.429399,-0.03802 0.660398,-0.02671 0.157907,0.0077 0.305811,-0.0013 0.412787,-0.08065 0.09547,-0.07084 -0.18663,-0.298664 -0.112673,-0.40654 0.05102,-0.07442 0.287092,0.02191 0.365703,-0.04462 0.04328,-0.03663 0.191402,-0.112657 0.220035,-0.197429 0.04394,-0.130094 -0.03577,-0.280791 0.02442,-0.341353 0.13393,-0.134753 0.331463,-0.01299 0.485537,-0.01895 0.136161,-0.0053 0.05636,0.19772 0.159188,0.290174 0.07545,0.06784 0.307086,-0.03956 0.413204,0.02051 0.151325,0.08566 0.181093,0.338077 0.281287,0.439515 0.07223,0.07313 0.08354,0.325771 0.1593,0.397962 0.136501,0.13008 0.530621,0.03548 0.661318,0.129426 0.07727,0.05554 -0.08898,0.277946 -0.04455,0.378028 0.04575,0.103059 -0.02461,0.290793 -0.01603,0.404146 0.0085,0.11217 0.0832,0.216457 0.09859,0.317464 0.02541,0.166774 7.65e-4,0.324609 0.07265,0.494236 0.02602,0.06139 -0.0048,0.179016 0.05832,0.217397 0.05044,0.03067 0.193593,-0.01732 0.23293,0.02131 0.06348,0.06234 -0.08278,0.243359 -0.02746,0.310954 0.06053,0.07395 0.23542,0.05524 0.333492,0.107013 0.09026,0.04765 0.105568,0.164894 0.127045,0.248744 0.04012,0.15663 0.118496,0.357133 0.08299,0.518566 -0.01599,0.07268 -0.244234,0.100718 -0.283627,0.165699 -0.0626,0.103261 0.05578,0.240633 0.01956,0.350497 -0.04875,0.147874 0.06383,0.399709 -0.0042,0.541239 -0.03408,0.0709 -0.205632,0.04845 -0.289563,0.08861 -0.08049,0.03851 -0.07313,0.13979 -0.120153,0.197963 -0.07544,0.09332 -0.0059,0.268999 -0.111323,0.334442 -0.118331,0.07344 -0.404657,-0.03033 -0.559774,0.02025 -0.06627,0.02161 -0.01712,0.150123 -0.04782,0.210345 -0.03965,0.07778 -0.152,0.09349 -0.186499,0.159299 -0.08269,0.157724 -0.0051,0.334738 -2.23e-4,0.517039 0.0054,0.198192 -0.05864,0.402633 -0.07739,0.59533 -0.01376,0.141427 0.138143,0.320939 0.116838,0.460664 -0.01,0.06536 -0.14877,0.111908 -0.194448,0.160193 -0.06599,0.06976 -0.159958,0.204872 -0.267843,0.196587 -0.108748,-0.0084 -0.231429,-0.16012 -0.301276,-0.09311 -0.08029,0.07703 0.03807,0.263709 0.0066,0.370285 -0.06856,0.232082 -0.218484,0.423099 -0.239411,0.664477 -0.01156,0.133342 0.177721,0.305838 0.178071,0.439682 10e-4,0.401418 -0.146163,0.765399 -0.100461,1.164199 0.01207,0.105305 -0.08926,0.254813 -0.08334,0.364569 0.01022,0.189734 0.135172,0.337831 0.238556,0.48911 0.05066,0.07412 0.220107,-0.06497 0.304875,-0.02654 0.03951,0.01791 -1.26e-4,0.206003 0.03142,0.233493 0.04427,0.03857 0.122198,0.148779 0.258397,0.159131 0.125503,0.0095 0.310243,-0.08132 0.34293,-0.03787 0.08098,0.107646 -0.02999,0.254559 -0.04475,0.396166 -0.01463,0.140407 0.06685,0.275599 0.167753,0.362124 0.02866,0.02458 0.02401,-0.190685 0.123088,-0.263565 0.09466,-0.06963 0.293014,0.0031 0.327131,0.01884 0.08548,0.0394 3.14e-4,0.274966 0.04436,0.371541 0.03358,0.07364 0.01405,0.199312 0.08967,0.241631 0.09633,0.05391 0.290679,0.0209 0.334112,0.0972 0.07567,0.132928 0.08044,0.316311 0.04668,0.477518 -0.04238,0.202322 -0.130592,0.397526 -0.04668,0.570179 0.03768,0.07754 0.21224,-0.03522 0.263752,0.02621 0.08317,0.09917 0.02222,0.289509 0.148284,0.30916 0.07397,0.01153 0.331062,-0.154442 0.402838,-0.115486 0.113418,0.06156 -0.02764,0.397376 0.07343,0.480927 0.21288,0.175982 0.694229,-0.07225 0.92253,0.07526 0.112436,0.07265 0.06332,0.240198 0.148039,0.371387 0.03587,0.05555 0.138914,0.125366 0.266612,0.127969 0.08879,0.0018 0.209533,-0.06896 0.244262,-0.03232 0.119934,0.126535 -0.03697,0.426357 0.05249,0.528925 0.09249,0.106047 0.249537,-0.03342 0.341108,0.07358 0.08891,0.103896 0.02696,0.3029 0.103495,0.447377 0.02814,0.05311 0.04408,0.185535 0.116751,0.212039 0.08131,0.02965 0.220618,-0.04723 0.266056,0.0067 0.06506,0.07727 0.04433,0.183818 0.144301,0.189148 0.08581,0.0046 0.294606,-0.09266 0.334676,-0.0364 0.05504,0.07728 -0.130821,0.227344 -0.109014,0.352463 0.01528,0.08765 0.230057,0.100184 0.268928,0.188767 0.07778,0.177246 -0.0048,0.425863 0.0082,0.558204 0.01285,0.130216 0.102878,0.299245 0.05475,0.424914 -0.02934,0.0766 -0.197806,0.0647 -0.267651,0.127442 -0.07365,0.06616 -0.04921,0.20662 -0.09753,0.275454 -0.08375,0.119323 -0.336541,0.03452 -0.461473,0.116443 -0.06282,0.04119 0.03046,0.181958 0.0012,0.265049 -0.03469,0.09835 -0.189251,0.141823 -0.238143,0.213496 -0.05972,0.08754 -0.378763,0.07984 -0.416545,0.180037 -0.05653,0.149907 0.180143,0.413194 0.157854,0.570165 -0.01972,0.13891 -0.114905,0.3092 -0.119714,0.453019 -0.007,0.210186 0.09082,0.393216 0.171454,0.581743 0.03926,0.0918 0.05758,0.23386 0.143524,0.29592 0.108331,0.07822 0.286032,0.07503 0.322119,0.195592 0.03269,0.109207 -0.110719,0.209419 -0.156184,0.322964 -0.05236,0.130752 -0.0086,0.274967 0.02684,0.40137 0.0354,0.126356 -0.01292,0.36499 0.07232,0.464948 0.08718,0.102229 0.352714,-0.04678 0.489187,0.01083 0.127695,0.0539 0.126292,0.314461 0.214567,0.403767 0.08103,0.08197 0.269989,0.06875 0.357038,0.144435 0.09089,0.07902 0.0033,0.255725 0.06888,0.356856 0.06791,0.104708 0.288867,0.133991 0.376021,0.223042 0.05879,0.06007 0.293686,0.0093 0.34504,0.07754 0.09771,0.129888 0.0037,0.398935 0.05821,0.555518 0.06067,0.17411 0.271452,0.23363 0.424557,0.324097 0.05374,0.03175 0.0136,-0.150639 0.09926,-0.237629 0.05862,-0.05952 0.24492,-0.03311 0.287723,-0.02652 0.08568,0.01318 0.214377,0.02612 0.254541,0.144782 0.03226,0.0953 -0.02474,0.295526 0.03576,0.341441 0.03754,0.02849 0.137071,0.167 0.189332,0.16707 0.137949,1.87e-4 0.255299,-0.192313 0.349223,-0.130454 0.05986,0.03943 0.02227,0.202203 0.07023,0.253629 0.08111,0.08698 0.248658,0.03306 0.32398,0.122516 0.07464,0.08865 0.04736,0.226927 0.0984,0.353048 0.02289,0.05657 0.116385,0.172404 0.219446,0.177171 0.126392,0.0058 0.267174,-0.103209 0.309774,-0.05269 0.078,0.09251 0.172355,0.08142 0.20831,0.204424 0.02047,0.07003 -0.03316,0.211491 -0.02079,0.303432 0.02064,0.153437 0.109637,0.261305 0.18758,0.345823 0.05009,0.05432 0.137694,-0.02503 0.198952,0.02552 0.06963,0.05745 0.247208,0.06433 0.290766,0.165584 0.03551,0.08255 -0.0571,0.258187 -0.04994,0.326279 0.0074,0.07041 -0.117202,0.03575 -0.153234,0.11899 -0.04099,0.09469 0.0036,0.28502 -0.03799,0.38925 -0.07018,0.175958 -0.218369,0.250114 -0.218369,0.250114 z"
     style="fill:none;fill-rule:evenodd;stroke:#000000;stroke-width:0.105833;stroke-linecap:square;stroke-opacity:1;paint-order:markers fill stroke"
     id="Caceres" /><path
     style="fill:none;fill-rule:evenodd;stroke:#000000;stroke-width:0.105833;stroke-linecap:square;stroke-opacity:1;paint-order:markers fill stroke"
     id="Capital"
     d="m 31.560242,52.979816 -2.050696,-0.934571 -1.588956,1.598123 0.25513,-2.239127 -2.01092,-1.01734 2.208375,-0.449285 0.34614,-2.226873 1.109721,1.961453 2.224846,-0.358944 -1.52253,1.66153 z"
     transform="translate(-6.2217101,-2.5700429)" /></svg>
