<?xml version="1.0" encoding="UTF-8" standalone="no"?>
<!-- Created with Inkscape (http://www.inkscape.org/) -->

<svg
   width="324.78375"
   height="131.53656"
   viewBox="0 0 85.932366 34.802382"
   version="1.1"
   id="svg1"
   xmlns="http://www.w3.org/2000/svg"
   xmlns:svg="http://www.w3.org/2000/svg">
  <defs
     id="defs1" />
  <path
     d="m 11.853378,33.513535 c 0.0985,-0.0249 0.23994,-0.26706 0.34355,-0.29484 0.14765,-0.0396 0.2574,0.1446 0.38979,0.20317 0.0675,0.0299 0.29748,-0.0191 0.34038,0.04 0.0654,0.09 0.277,0.17428 0.287,0.30708 0.005,0.0728 -0.17999,0.12131 -0.20688,0.19668 -0.0385,0.10795 0.0838,0.23685 0.16005,0.28129 0.0699,0.0407 0.10068,0.26134 0.17768,0.28542 0.12089,0.0378 0.31991,0.23039 0.45815,0.20417 0.11209,-0.0213 0.37352,0.0544 0.47022,-0.0264 0.10203,-0.0852 0.039,-0.3268 0.14673,-0.34097 0.0871,-0.0115 0.15065,-0.20029 0.23415,-0.22817 0.16485,-0.055 0.34498,0.0322 0.49918,-0.0468 0.0993,-0.0509 0.38151,0.0173 0.47231,-0.0482 0.0896,-0.0646 0.35247,-0.11931 0.40127,-0.21269 0.0645,-0.12348 -0.0877,-0.28628 0.0431,-0.35023 0.0835,-0.0408 0.14173,-0.25225 0.22853,-0.28722 0.0969,-0.039 0.31124,-0.14444 0.41863,-0.12716 0.0964,0.0155 0.0857,0.15293 0.17784,0.13938 0.11308,-0.0166 0.37302,-0.31176 0.48773,-0.32316 0.10365,-0.0103 0.2017,-0.20215 0.34005,-0.22873 0.13814,-0.0265 0.31661,0.11217 0.40861,0.13624 0.12752,0.0334 0.44221,0.0299 0.53651,0.10434 0.0755,0.0596 0.008,0.18642 0.0342,0.26072 0.0238,0.0679 0.13899,0.0848 0.2401,0.11171 0.087,0.0231 0.27226,-0.10307 0.35206,-0.0594 0.1345,0.0736 -0.0381,0.37326 0.0717,0.49416 0.0737,0.0812 0.0924,0.42621 0.21644,0.46911 0.11806,0.0408 0.37899,0.14754 0.52659,0.0874 0.11975,-0.0488 0.12985,-0.26457 0.20825,-0.25797 0.1574,0.0133 0.44041,0.26007 0.59135,0.22252 0.1392,-0.0347 0.57397,0.0498 0.69553,-0.0394 0.093,-0.0682 0.4686,-0.0737 0.5199,-0.17194 0.0602,-0.11522 -0.24321,-0.39024 -0.26011,-0.51573 -0.0169,-0.12555 0.25255,-0.10155 0.37833,-0.13715 0.0972,-0.0275 0.15213,-0.2459 0.25073,-0.26789 0.20853,-0.0465 0.43766,-0.20454 0.6583,-0.19646 0.18311,0.007 0.35869,0.18332 0.52708,0.12824 0.0921,-0.0301 0.37848,0.11206 0.47778,0.0881 0.13519,-0.0326 0.52583,0.0615 0.63503,0.003 0.15075,-0.0813 0.28803,-0.17652 0.32503,-0.34356 0.0223,-0.10046 -0.0641,-0.26828 -0.002,-0.35825 0.0487,-0.0703 0.27147,-0.19688 0.28367,-0.28506 0.0101,-0.0729 0.0194,-0.22037 -0.036,-0.28499 -0.0612,-0.0714 -0.18948,-0.0596 -0.21708,-0.13272 -0.0249,-0.0659 -0.25316,-0.0508 -0.29336,-0.1074 -0.0591,-0.0831 -0.33824,-0.0651 -0.38424,-0.14847 -0.0422,-0.0766 -0.1153,-0.18644 -0.10319,-0.28567 0.0107,-0.0875 0.1093,-0.16561 0.0475,-0.22235 -0.0621,-0.057 -0.22958,0.0308 -0.31607,-0.0133 -0.0878,-0.0447 -0.27428,0.0123 -0.34658,-0.0525 -0.0839,-0.0753 -0.0475,-0.21672 -0.0591,-0.34185 -0.008,-0.0896 -0.0758,-0.16294 -0.0728,-0.23404 0.005,-0.11605 0.0481,-0.33627 0.14318,-0.40912 0.094,-0.072 0.22951,-0.0463 0.36163,-0.0565 0.11444,-0.009 0.22499,-0.0556 0.32019,-0.0844 0.12674,-0.0384 0.30231,-0.13656 0.43882,-0.11394 0.13649,0.0226 0.23391,0.16602 0.35563,0.11394 0.10454,-0.0447 0.095,-0.25535 0.17394,-0.33813 0.0658,-0.069 0.2021,-0.0653 0.2837,-0.11042 0.0873,-0.0483 0.11972,-0.14535 0.18402,-0.22367 0.0674,-0.0815 0.004,-0.30224 0.0634,-0.38958 0.0532,-0.0784 0.30378,-0.0922 0.38058,-0.14462 0.11039,-0.0754 0.0517,-0.18445 0.13659,-0.2908 0.0655,-0.082 -0.0476,-0.46799 0.0116,-0.5648 0.0712,-0.1164 0.23844,-0.121 0.34918,-0.17255 0.0637,-0.0297 0.025,-0.40172 0.0832,-0.43174 0.0977,-0.0504 0.26485,-0.29572 0.38457,-0.31828 0.1205,-0.0227 0.36349,-0.0135 0.48034,0.0599 0.0834,0.0524 0.085,0.2382 0.158,0.32223 0.0842,0.0969 0.31012,0.0369 0.39612,0.13748 0.0695,0.0813 0.0361,0.33233 0.0839,0.43346 0.09,0.19059 0.24754,0.23476 0.37536,0.32044 0.061,0.0409 0.0441,0.2686 0.10099,0.31504 0.10316,0.0842 0.086,0.3819 0.18766,0.46111 0.0932,0.0726 0.33637,-0.0364 0.44437,0.007 0.0837,0.0337 0.35703,-0.0254 0.42644,0.0229 0.15562,0.10832 0.0913,0.34374 0.27665,0.44655 0.0846,0.0469 0.0605,0.28441 0.15263,0.31935 0.14096,0.0535 0.40208,-0.10641 0.55015,-0.10546 0.087,5.6e-4 0.34053,0.16031 0.43213,0.1522 0.14059,-0.0124 0.41586,-0.0393 0.49776,-0.134 0.0664,-0.0768 -0.0572,-0.21471 0.0173,-0.2932 0.0672,-0.0707 0.27716,-0.17824 0.29886,-0.27232 0.03,-0.12999 -0.20563,-0.3561 -0.24113,-0.49304 -0.0325,-0.12547 0.13329,-0.16223 0.18672,-0.27353 0.0332,-0.0691 -0.0582,-0.33434 -0.0225,-0.41705 0.0495,-0.11489 0.19799,-0.0704 0.29599,-0.11476 0.10534,-0.0477 0.16249,-0.17946 0.27656,-0.17096 0.0862,0.006 0.28398,-0.0138 0.32118,0.0646 0.0311,0.0655 0.15355,0.148 0.14763,0.24487 -0.009,0.14843 -0.1506,0.31594 -0.0716,0.3933 0.0475,0.0466 0.027,0.24348 0.0786,0.28765 0.0746,0.0639 0.2333,0.0396 0.3219,0.0813 0.0981,0.0462 0.19804,0.23139 0.29264,0.27114 0.16147,0.0678 0.32332,0.16429 0.50391,0.18524 0.11275,0.0131 0.44709,0.12013 0.55794,0.0549 0.0746,-0.0439 0.27651,-0.0937 0.29611,-0.18148 0.0134,-0.06 0.18035,0.17979 0.2822,0.13977 0.0627,-0.0246 0.0672,-0.33648 0.0957,-0.35128 0.13307,-0.0691 0.28473,-0.12001 0.30083,-0.22792 0.018,-0.12109 -0.104,-0.30275 -0.0104,-0.44261 0.0354,-0.053 0.1747,-0.11602 0.1946,-0.17655 0.0484,-0.14732 -0.15192,-0.41264 -0.15238,-0.56667 -3.5e-4,-0.12177 0.19104,-0.13548 0.26334,-0.23455 0.0446,-0.0616 -0.002,-0.38781 0.0516,-0.44657 0.0759,-0.0825 0.13892,-0.38474 0.24927,-0.39612 0.15751,-0.0163 0.36148,0.0368 0.51333,0.0191 0.0959,-0.0112 0.12375,0.16228 0.21475,0.22497 0.084,0.0579 0.33261,-0.0239 0.42651,0.0308 0.0535,0.0312 0.0448,0.13268 0.0731,0.18311 0.0516,0.0921 0.12562,0.14013 0.21312,0.17083 0.0919,0.0322 0.19117,-0.111 0.29201,-0.0954 0.0818,0.0127 0.29972,-0.0853 0.38042,-0.0497 0.0715,0.0315 0.0171,0.17131 0.0572,0.23834 0.06,0.1004 0.20441,0.13834 0.27871,0.21225 0.0645,0.0641 0.25821,0.0494 0.28741,0.13444 0.0317,0.0923 -0.0772,0.21709 -0.0822,0.33161 -0.005,0.11074 0.10482,0.19239 0.11742,0.30196 0.0108,0.0935 0.0777,0.18654 0.0807,0.27682 0.003,0.0901 -0.0598,0.1775 -0.006,0.23851 0.0851,0.0966 0.31968,0.0396 0.43518,0.0938 0.12657,0.0594 0.13958,0.31857 0.25661,0.38236 0.10176,0.0555 0.23386,0.16744 0.3628,0.17494 0.1047,0.006 0.20726,-0.0958 0.28986,-0.04 0.0864,0.0584 0.28528,0.003 0.35829,0.0774 0.0602,0.0617 -0.06,0.30508 -0.0262,0.39441 0.047,0.12416 0.24566,0.0966 0.34016,0.1698 0.0507,0.0393 0.003,0.25295 0.0557,0.28975 0.0896,0.0628 0.1898,0.26805 0.29484,0.30475 0.10022,0.035 0.28124,0.25628 0.38535,0.25545 0.16493,-0.001 0.25214,-0.23138 0.39465,-0.14717 0.0572,0.0338 0.25137,-0.015 0.30777,0.0209 0.1129,0.072 0.39365,0.0717 0.48715,0.15618 0.0907,0.082 -0.022,0.35457 0.0294,0.4474 0.0598,0.10798 0.28512,0.0334 0.42845,0.0782 0.0974,0.0305 0.1893,0.27474 0.29017,0.29667 0.14412,0.0313 0.34976,0.13234 0.49856,0.0948 0.0843,-0.0213 0.3174,0.0301 0.3884,-0.0227 0.0854,-0.0634 0.008,-0.23143 0.1062,-0.24653 0.0654,-0.0101 0.0653,-0.18905 0.12919,-0.20773 0.11311,-0.0331 0.21866,-0.15848 0.34176,-0.16895 0.10925,-0.009 0.2372,0.0987 0.3235,0.0406 0.0431,-0.0291 0.37225,0.0667 0.41425,0.0353 0.0743,-0.0557 0.22605,-0.15169 0.25285,-0.23327 0.0343,-0.10467 -0.0981,-0.23711 -0.10314,-0.34396 -0.003,-0.0627 0.10312,-0.10151 0.13882,-0.16083 0.0441,-0.0732 0.18362,-0.1149 0.20582,-0.19768 0.0273,-0.10183 -0.1417,-0.23867 -0.1477,-0.35274 -0.005,-0.0938 0.14902,-0.16605 0.18632,-0.24403 0.0391,-0.0817 0.009,-0.35272 0.0544,-0.43126 0.0594,-0.10285 0.0911,-0.4798 0.17102,-0.54579 0.074,-0.0611 0.17257,0.0378 0.26167,0.057 0.0805,0.0173 0.15179,-0.0431 0.21569,-0.11886 0.0577,-0.0685 0.29287,-0.10939 0.34927,-0.18504 0.0701,-0.0939 0.23159,-0.19073 0.27289,-0.28061 0.0565,-0.12301 -0.006,-0.2297 0.14173,-0.26768 0.0519,-0.0134 0.22231,-0.13912 0.27421,-0.14152 0.10569,-0.005 0.3447,-0.0687 0.4386,-0.0286 0.0893,0.0382 0.0563,0.22682 0.12113,0.29657 0.0676,0.0728 0.21105,0.008 0.30985,0.0442 0.0908,0.033 0.13571,0.16804 0.23121,0.196 0.0485,0.0142 0.18838,-0.0437 0.23658,-0.0285 0.10007,0.0315 0.14882,0.18701 0.24062,0.2269 0.0922,0.0401 0.14767,0.20952 0.24267,0.23691 0.0877,0.0253 0.2325,0.139 0.3301,0.1328 0.0697,-0.004 0.10259,-0.10686 0.16119,-0.13672 0.0633,-0.0322 0.15225,0.009 0.22495,0.027 0.0519,0.013 0.18411,-0.0395 0.23621,-0.0276 0.0779,0.0178 0.15934,0.17563 0.23094,0.19682 0.0953,0.0282 0.22761,0.19925 0.31871,0.19981 0.0514,3.1e-4 0.0509,-0.12576 0.096,-0.15726 0.0704,-0.0491 0.1864,-0.0104 0.2792,0.002 0.063,0.009 0.19481,-0.0974 0.25791,-0.0886 0.1487,0.0207 0.19719,0.20507 0.33505,0.24118 0.0664,0.0174 0.19534,0.0331 0.29034,0.0811 0.0731,0.0369 0.11203,0.11165 0.17293,0.10614 0.15282,-0.0138 0.24062,-0.21119 0.37988,-0.21759 0.0758,-0.004 0.15004,-0.13473 0.22844,-0.13773 0.0934,-0.004 0.23744,-0.0854 0.32894,-0.0729 0.12475,0.0171 0.19441,0.12447 0.29818,0.0578 0.0628,-0.0404 0.22025,-0.0663 0.26365,-0.12615 0.0483,-0.0666 0.19804,-0.13737 0.22024,-0.2185 0.0255,-0.0931 -0.10803,-0.24201 -0.10786,-0.33054 1.2e-4,-0.064 0.12297,-0.0728 0.17397,-0.11925 0.0618,-0.0563 0.0848,-0.1981 0.15254,-0.24892 0.0621,-0.0466 0.0835,-0.22575 0.15403,-0.25757 0.0798,-0.036 0.20187,-0.17469 0.29627,-0.17159 0.0593,0.002 0.0873,0.0852 0.14027,0.11596 0.0705,0.041 0.16456,0.0305 0.23466,0.0121 0.0944,-0.0247 0.23321,-0.17726 0.33141,-0.17506 0.0871,0.002 0.14207,0.14626 0.22647,0.17107 0.0822,0.0242 0.16655,0.141 0.25145,0.1509 0.087,0.0102 0.27397,0.0697 0.36047,0.0392 0.0934,-0.0328 0.086,-0.15723 0.17465,-0.18616 0.0854,-0.0279 0.0588,-0.1741 0.13539,-0.22107 0.0936,-0.0574 0.12017,-0.29451 0.22921,-0.3436 0.12737,-0.0574 0.33654,0.0722 0.42984,-0.0159 0.0465,-0.044 0.14609,-0.0427 0.18569,-0.0937 0.0771,-0.0992 0.31429,-0.20517 0.37299,-0.32071 0.0327,-0.0643 0.13106,-0.13734 0.13506,-0.19909 0.007,-0.0992 -0.0842,-0.18131 0.009,-0.242 0.0551,-0.0358 0.0844,-0.26658 0.14712,-0.28861 0.0568,-0.0199 0.20674,-0.0613 0.27374,-0.0237 0.0734,0.0412 0.0641,0.16247 0.12914,0.15956 0.0506,-0.002 0.2041,-0.11549 0.2544,-0.11129 0.0778,0.007 0.12993,0.13334 0.20303,0.15564 0.0798,0.0243 0.16586,0.13958 0.24356,0.16735 0.10828,0.0387 0.22966,0.19746 0.33627,0.21675 0.12745,0.0231 0.35263,0.12171 0.48161,0.0793 0.075,-0.0247 0.0491,-0.19057 0.13113,-0.20215 0.0737,-0.0104 0.0695,-0.22512 0.13521,-0.26123 0.0956,-0.0525 0.19898,-0.26943 0.30925,-0.28599 0.11537,-0.0173 0.23788,0.16657 0.34998,0.15 0.0646,-0.01 0.27071,-0.26027 0.33561,-0.25707 0.0612,0.003 0.35402,-0.0933 0.41272,-0.0768 0.0978,0.0275 0.10359,0.20502 0.18229,0.26294 0.0858,0.0631 0.22174,-0.008 0.30414,0.0538 0.0827,0.0619 0.0441,0.23905 0.12112,0.30478 0.0628,0.0536 0.1716,0.21524 0.265,0.22434 0.11774,0.0114 0.22446,-0.14085 0.33468,-0.17586 0.0965,-0.0306 0.30887,-0.0453 0.38277,-0.11211 0.0637,-0.0576 0.0352,-0.21123 0.0805,-0.28678 0.068,-0.11325 0.0312,-0.31833 0.10558,-0.42202 0.0539,-0.0751 0.0933,-0.24662 0.18368,-0.28599 0.0993,-0.0433 0.13304,-0.33817 0.22904,-0.37886 0.0404,-0.0171 0.19402,-0.11552 0.28172,-0.0748 0.0972,0.0451 0.12918,0.23051 0.17668,0.22511 0.0967,-0.0111 0.2657,-0.0841 0.3618,-0.0665 0.0917,0.0168 0.1259,0.18082 0.2113,0.21612 0.08,0.0331 0.19628,-0.0807 0.27918,-0.0603 0.0932,0.0229 0.15122,0.16449 0.23892,0.19546 0.12192,0.043 0.27287,-0.0316 0.40213,-0.0798 0.0568,-0.0212 0.14739,-0.0107 0.20279,-0.0371 0.0931,-0.0444 0.3691,-0.029 0.4533,-0.0896 0.10125,-0.0728 0.30749,-0.16168 0.36239,-0.26407 0.0459,-0.0855 -0.0504,-0.21313 -0.0474,-0.30716 0.003,-0.0962 0.10712,-0.15882 0.15952,-0.24933 0.0733,-0.1266 0.17492,-0.27494 0.19142,-0.42162 0.0148,-0.13205 -0.1826,-0.35932 -0.1906,-0.49359 -0.005,-0.0852 -0.0639,-0.26629 -0.0192,-0.32902 0.0556,-0.078 0.22111,-0.0356 0.26281,-0.13077 0.0279,-0.0636 -0.004,-0.26055 0.0271,-0.32346 0.0468,-0.0951 -0.046,-0.48647 0.0112,-0.5714 0.0732,-0.10866 0.33057,-0.0623 0.43514,-0.12187 0.1538,-0.0876 0.19349,-0.35917 0.32215,-0.46361 0.0868,-0.0705 0.25774,0.0309 0.36556,-0.0474 0.0734,-0.0533 0.21777,0.0277 0.30127,-0.006 0.0898,-0.036 0.34018,0.0431 0.42978,0.007 0.11517,-0.0463 0.12027,-0.22811 0.19747,-0.30463 0.0924,-0.0917 0.255,-0.0805 0.38537,-0.15502 0.0851,-0.0487 0.0584,-0.27606 0.13543,-0.33628 0.0739,-0.0579 0.21335,-0.0761 0.28835,-0.13135 0.1316,-0.0969 0.38484,-0.0241 0.50805,-0.12168 0.0805,-0.0637 0.35571,-0.1305 0.41171,-0.22717 0.0772,-0.13328 -0.0661,-0.29936 0.062,-0.37518 0.0813,-0.0481 0.26753,-0.0396 0.35213,-0.0927 0.0823,-0.0516 0.0464,-0.39697 0.12348,-0.45058 0.0625,-0.0435 0.0882,-0.13323 0.17377,-0.1756 0.0785,-0.0389 0.2165,-0.0325 0.2855,-0.0302 0.079,0.003 0.11114,0.12446 0.17984,0.16099 0.0917,0.0488 0.21877,0.0172 0.32139,0.038 0.1103,0.0224 0.27595,0.009 0.36945,0.0621 0.0878,0.05 0.0835,0.24316 0.1576,0.31576 0.0719,0.0704 0.0688,0.26344 0.13723,0.34048 0.0439,0.0495 0.24932,0.0553 0.29532,0.10181 0.0587,0.0594 0.24848,0.11107 0.29748,0.17004 0.0769,0.0925 0.0149,0.29643 0.0577,0.38771 0.0322,0.0687 0.18451,-0.0202 0.26441,0.013 0.0499,0.0208 0.0227,0.15903 0.0709,0.19799 0.0413,0.0334 0.18397,-0.0196 0.22897,0.01 0.0726,0.0473 0.25236,0.0322 0.32436,0.0783 0.10497,0.0673 0.0803,0.25704 0.16127,0.33913 0.0752,0.0763 0.29847,0.0257 0.39257,0.0839 0.0909,0.0562 0.0528,0.22082 0.11488,0.31402 0.0618,0.0928 0.0891,-0.066 0.19316,-0.0871 0.0354,-0.007 0.0776,0.0415 0.11174,0.0313 0.0688,-0.0205 0.10139,-0.063 0.15219,-0.0808 0.0934,-0.0328 0.14978,-0.17542 0.24078,-0.21451 0.0707,-0.0304 0.1759,0.0426 0.2481,0.0159 0.0659,-0.0243 0.14653,-0.0167 0.19623,-0.068 0.0268,-0.0277 0.0176,-0.12267 0.0535,-0.13556 0.0654,-0.0235 0.18541,0.035 0.25441,0.0356 0.10356,9.1e-4 0.23882,-0.0569 0.2917,0.0364 0.0276,0.0487 -0.0367,0.24968 0.009,0.28372 0.0615,0.0458 0.23943,-0.006 0.30873,0.0122 0.0429,0.0113 0.12472,-0.0552 0.16972,-0.0572 0.0591,-0.003 0.10262,0.14601 0.18482,0.16255 0.0697,0.014 0.17909,-0.10124 0.22589,-0.12499 0.0703,-0.0356 0.0542,-0.20258 0.0935,-0.26673 0.037,-0.0603 0.20014,0.0131 0.22124,-0.0418 0.0302,-0.0784 -0.0945,-0.28347 -0.13941,-0.36229 -0.0253,-0.0444 -0.19228,-0.0628 -0.21258,-0.11968 -0.019,-0.054 0.003,-0.21978 -0.007,-0.27579 -0.01,-0.0552 0.0942,-0.15551 0.0922,-0.2088 -0.003,-0.0773 0.11946,-0.11042 0.11546,-0.19253 -0.003,-0.0507 -0.12252,-0.15325 -0.14532,-0.19733 -0.0274,-0.0529 -0.16475,-0.0655 -0.17475,-0.12423 -0.0121,-0.0735 0.0932,-0.21817 0.0922,-0.27667 -10e-4,-0.0543 0.0819,-0.14638 0.0819,-0.17174 0,-0.0367 0.001,-0.19853 -0.0642,-0.26404 -0.0592,-0.0594 -0.18472,-0.0199 -0.20052,-0.10336 -0.0128,-0.0673 0.13378,-0.17826 0.14148,-0.24448 0.007,-0.0627 0.13675,-0.13013 0.15377,-0.18257 0.0221,-0.0681 -0.0679,-0.1519 -0.0678,-0.22927 7e-5,-0.0759 0.0898,-0.14547 0.1334,-0.20243 0.0488,-0.0638 0.22952,-0.0858 0.30112,-0.1183 0.0671,-0.0304 0.13995,-0.10354 0.19215,-0.0824 0.0635,0.0257 0.10573,0.15251 0.18633,0.17772 0.0716,0.0224 0.19917,-0.0332 0.27847,-0.0174 0.0568,0.0113 0.1523,-0.072 0.2101,-0.0608 0.0499,0.01 0.12254,0.11928 0.17184,0.12028 0.0651,10e-4 0.17161,-0.0825 0.22242,-0.0276 0.0458,0.0494 0.0356,0.23729 0.0968,0.25138 0.0438,0.0101 0.14664,0.037 0.20634,0.004 0.0562,-0.0315 0.0694,-0.123 0.10858,-0.1288 0.0802,-0.0119 0.14404,-0.15109 0.22144,-0.17493 0.0764,-0.0235 0.12631,-0.12819 0.21241,-0.14163 0.0436,-0.007 0.12214,0.0638 0.16594,0.0701 0.0598,0.009 0.12194,0.11114 0.17614,0.0988 0.0669,-0.0153 0.12095,-0.13215 0.17325,-0.17574 0.0455,-0.038 0.0299,-0.24789 0.0667,-0.29451 0.0233,-0.0296 0.13975,0.0113 0.16852,-0.0349 0.0253,-0.0407 -0.0344,-0.16777 -0.0456,-0.20594 -0.0158,-0.0539 -0.15993,-0.0852 -0.15193,-0.13255 0.009,-0.0522 0.1351,-0.0745 0.1665,-0.11552 0.0382,-0.0499 -0.0443,-0.13627 -0.0413,-0.21823 0.003,-0.0659 0.0892,-0.12748 0.1235,-0.17523 0.0373,-0.0519 0.19812,-0.0449 0.25002,-0.0673 0.0763,-0.0331 0.22882,0.0834 0.30942,0.0788 0.0578,-0.003 0.11332,-0.005 0.14722,-0.0548 0.0163,-0.0241 -0.002,-0.10624 0.029,-0.11614 0.0386,-0.0125 0.14461,-0.0988 0.20861,-0.0774 0.053,0.0178 0.0651,0.14188 0.0937,0.15212 0.0315,0.0112 0.065,0.14065 0.0923,0.15998 0.0343,0.0246 0.007,0.18703 0.0403,0.21122 0.0512,0.0376 0.14289,-0.0208 0.18419,-0.004 0.0313,0.0129 0.0156,0.0952 0.0343,0.14554 0.0148,0.0397 0.10027,0.11096 0.10727,0.18525 0.008,0.0842 -0.0615,0.17118 -0.0315,0.20052 0.0326,0.0319 0.13759,-0.0132 0.1794,0.007 0.0741,0.0359 0.0172,0.17897 0.0691,0.24722 0.0445,0.0585 0.19711,0.0439 0.25981,0.0652 0.0569,0.0194 0.18762,-0.12672 0.24832,-0.0985 0.0584,0.0272 0.11205,0.19701 0.17775,0.20809 0.0906,0.0153 0.28644,-0.0608 0.37124,-0.0728 0.0806,-0.0114 0.13223,-0.14249 0.20673,-0.17357 0.0695,-0.029 0.11532,0.0219 0.22016,0.0428 0.0829,0.0165 0.22319,-0.0921 0.27529,-0.12453 0.0486,-0.0302 -0.006,-0.2398 0.0228,-0.28973 0.0208,-0.0366 -0.082,-0.21097 -0.0637,-0.24728 0.0216,-0.0429 0.0392,-0.16539 0.0864,-0.18127 0.0573,-0.0193 0.14585,0.0697 0.17705,0.0246 0.0408,-0.0595 -0.011,-0.21823 -0.005,-0.29571 0.005,-0.062 -0.10105,-0.20429 -0.10605,-0.26564 -0.006,-0.0826 0.0985,-0.15855 0.0905,-0.24613 -0.007,-0.0731 -0.12169,-0.15998 -0.16059,-0.21098 -0.0393,-0.0514 -0.17762,-0.0284 -0.22002,-0.0782 -0.0339,-0.0398 -0.14627,-0.0117 -0.16437,-0.0643 -0.0227,-0.0661 -0.18421,-0.10293 -0.24391,-0.1523 -0.0179,-0.0148 -0.038,-0.14863 0.0142,-0.21366 0.0476,-0.0592 0.1674,-0.0497 0.1614,-0.0708 -0.021,-0.0727 0.0916,-0.24135 0.0581,-0.29945 -0.035,-0.0606 -0.16361,-0.0312 -0.18081,-0.0973 -0.0192,-0.0738 0.073,-0.18667 0.065,-0.26273 -0.0119,-0.11332 -0.0644,-0.24637 0.0146,-0.32198 0.0489,-0.0468 0.23072,-0.0315 0.25542,-0.0966 0.0272,-0.0714 -0.0874,-0.23988 -0.0774,-0.31703 0.006,-0.0501 -0.10289,-0.14616 -0.10089,-0.19639 0.004,-0.0864 0.0177,-0.19004 -0.0655,-0.2428 -0.0453,-0.0287 -0.19718,0.003 -0.21558,-0.0436 -0.0307,-0.0783 0.10715,-0.27078 0.11315,-0.34798 0.005,-0.057 0.14866,-0.12072 0.16796,-0.17534 0.0195,-0.055 -0.0688,-0.1312 -0.0658,-0.19923 0,0 -0.23789,0.12823 -0.49661,0.10123 -0.10079,-0.0105 -0.32291,0.10318 -0.4348,0.0763 -0.11069,-0.0266 -0.14689,-0.22514 -0.24229,-0.27781 -0.0828,-0.0457 -0.21158,-0.19049 -0.30256,-0.20155 -0.11627,-0.0141 -0.19468,0.1115 -0.29349,0.0959 -0.0883,-0.0139 -0.2251,0.074 -0.31318,0.0588 -0.0928,-0.016 -0.41651,0.0674 -0.50709,0.046 -0.1192,-0.0282 -0.20176,-0.1851 -0.29822,-0.2282 -0.10924,-0.0488 -0.22762,-0.33721 -0.33138,-0.37223 -0.10199,-0.0344 -0.29781,-0.0966 -0.40669,-0.0575 -0.0885,0.0317 -0.0866,0.16689 -0.19601,0.14264 -0.10712,-0.0237 -0.41405,0.1413 -0.52104,0.11689 -0.0689,-0.0157 -0.3649,0.13092 -0.42505,0.10662 -0.0946,-0.0382 -0.33742,-0.0679 -0.39129,-0.13876 -0.0554,-0.0728 0.13025,-0.28 0.11574,-0.36163 -0.0181,-0.10192 -0.23957,-0.0745 -0.37721,-0.11203 -0.10383,-0.0283 -0.16386,-0.22621 -0.26673,-0.258 -0.0965,-0.0298 -0.20496,-0.18996 -0.30344,-0.21186 -0.10888,-0.0242 -0.25587,0.16947 -0.36519,0.1641 -0.11614,-0.006 -0.38412,0.14142 -0.49406,0.1075 -0.0944,-0.0291 -0.0532,-0.13804 -0.10952,-0.21401 -0.0589,-0.0795 -0.21531,-0.12592 -0.31918,-0.14948 -0.10631,-0.0241 -0.1917,-0.22836 -0.29918,-0.24647 -0.13973,-0.0235 -0.31371,-0.14756 -0.45622,-0.15135 -0.12546,-0.003 -0.24968,0.18913 -0.37302,0.20249 -0.0946,0.0102 -0.27502,0.15752 -0.36869,0.15246 -0.058,-0.003 -0.1152,0.11746 -0.2148,0.12754 -0.0853,0.009 -0.21456,-0.0912 -0.25663,-0.11228 -0.0489,-0.0246 0.0363,-0.19844 0.0142,-0.24089 -0.0444,-0.0849 -0.17823,-0.049 -0.29263,-0.0772 -0.0821,-0.0202 -0.32,0.0649 -0.4007,0.0398 -0.07,-0.0217 -0.31068,0.12125 -0.37691,0.0947 -0.0849,-0.0341 -0.29849,0.0545 -0.37264,0.009 -0.0652,-0.0402 -0.28059,-0.0382 -0.33518,-0.0889 -0.0861,-0.0799 -0.0415,-0.24367 -0.0983,-0.3389397 -0.0517,-0.0867 -0.003,-0.29024 -0.0736,-0.35929 -0.0551,-0.0542 -0.12052,-0.16548 -0.21252,-0.17945 -0.12171,-0.0185 -0.27782,0.0685 -0.39875,0.0454 -0.095,-0.0181 -0.19596,-0.12841 -0.29194,-0.13776 -0.10222,-0.01 -0.26951,-0.14688 -0.37216,-0.14394 -0.0943,0.003 -0.17463,0.21105 -0.26395,0.23035 -0.0514,0.0111 -0.0667,0.16594 -0.12644,0.20381 -0.0843,0.0534 -0.21412,-0.008 -0.28624,-0.0121 -0.0739,-0.004 -0.0703,-0.15498 -0.13656,-0.19853 -0.091,-0.0598 -0.25148,-0.0175 -0.35922,-0.0283 -0.0986,-0.01 -0.2619,0.16851 -0.36034,0.15698 -0.10784,-0.0126 -0.35797,0.12025 -0.46024,0.09 -0.1116,-0.0331 -0.31312,0.0713 -0.40084,0.006 -0.066,-0.0491 -0.21679,-0.0651 -0.26306,-0.14325 -0.0306,-0.0518 0.0898,-0.21623 0.0749,-0.27454 -0.0238,-0.0931 -0.18353,-0.0746 -0.27566,-0.0944 -0.0641,-0.0138 -0.24152,0.1284 -0.30535,0.1134 -0.0919,-0.0216 -0.27844,0.11448 -0.36586,0.0853 -0.0872,-0.0291 -0.33724,0.0367 -0.4169,-0.005 -0.0857,-0.045 -0.39253,0.0722 -0.46125,0.0113 -0.0499,-0.0442 -0.29815,-0.0602 -0.32919,-0.11885 -0.0357,-0.0675 -0.17513,-0.16076 -0.17754,-0.23825 -0.002,-0.063 0.0904,-0.12461 0.10671,-0.18103 0.0337,-0.11649 -0.01,-0.21089 -0.14641,-0.25019 -0.0712,-0.0205 -0.12019,-0.12491 -0.19052,-0.14975 -0.1058,-0.0374 -0.21341,-0.15521 -0.32221,-0.18144 -0.10529,-0.0254 -0.2495,-0.12242 -0.35646,-0.11767 -0.1114,0.005 -0.18558,0.11208 -0.29754,0.10317 -0.0704,-0.006 -0.21095,-0.16366 -0.28113,-0.16174 -0.0868,0.002 -0.14424,0.10664 -0.22712,0.1257 -0.0842,0.0194 -0.21143,-0.0183 -0.29548,0.004 -0.0908,0.0242 -0.15058,0.14655 -0.2363,0.17796 -0.0885,0.0325 -0.17082,0.14373 -0.26644,0.15099 -0.11299,0.009 -0.24034,-0.0896 -0.35719,-0.0809 -0.10767,0.008 -0.20071,0.11973 -0.31024,0.13362 -0.0825,0.0105 -0.14517,-0.11809 -0.22959,-0.12392 -0.0594,-0.004 -0.18034,-0.0749 -0.24226,-0.0678 -0.13843,0.0157 -0.21929,0.11801 -0.34142,0.0797 -0.0738,-0.0231 -0.1182,-0.17064 -0.18751,-0.20386 -0.0569,-0.0273 -0.086,-0.20637 -0.14128,-0.23497 -0.0692,-0.0358 -0.0627,-0.33062 -0.13126,-0.35837 -0.0714,-0.0289 -0.18064,-0.16942 -0.25892,-0.16679 -0.0403,0.001 -0.0658,0.0993 -0.10677,0.14298 -0.0466,0.0497 -0.10837,0.0467 -0.14971,0.0629 -0.10369,0.0406 -0.1891,-0.0662 -0.27771,-0.14933 -0.0502,-0.0471 -0.29296,0.0337 -0.3398,-0.0165 -0.0573,-0.0614 -0.27186,-0.076 -0.31288,-0.14923 -0.0309,-0.055 0.0396,-0.1578 0.0238,-0.21987 -0.0176,-0.0691 0.0897,-0.24648 0.0711,-0.31485 -0.0213,-0.0782 -0.006,-0.22389 -0.0586,-0.27681 -0.0399,-0.0399 -0.11688,-0.005 -0.17698,-0.0208 -0.0575,-0.0152 -0.0982,-0.0812 -0.13568,-0.12544 -0.0474,-0.0559 -0.1561,-0.0626 -0.1987,-0.12517 -0.0351,-0.0516 0.0361,-0.23104 0.006,-0.28717 -0.0302,-0.0563 0.0201,-0.25056 -0.0205,-0.29319 -0.0375,-0.0393 -0.0883,-0.14396 -0.14512,-0.15335 -0.11418,-0.0189 -0.25245,0.0844 -0.35459,0.0378 -0.0726,-0.0331 -0.14959,-0.17111 -0.22953,-0.19708 -0.0365,-0.0119 -0.10944,0.0228 -0.15001,0.0825 -0.0321,0.0472 -0.0319,0.12225 -0.0622,0.11725 -0.066,-0.0109 -0.21373,0.0567 -0.28051,0.043 -0.0867,-0.0178 -0.18401,0.0176 -0.26118,-0.005 -0.083,-0.0241 -0.14271,-0.12535 -0.21539,-0.14701 -0.0666,-0.0198 -0.15185,-0.0469 -0.22028,-0.0189 -0.0517,0.0212 -0.15174,0.004 -0.20139,0.0386 -0.0421,0.0297 -0.24219,0.0451 -0.26013,0.0953 -0.0207,0.0581 -0.076,0.16203 -0.0561,0.23793 0.0216,0.0824 0.15361,0.0911 0.19105,0.16402 0.0356,0.0692 -0.0221,0.20315 -0.0477,0.25891 -0.0222,0.0483 0.0216,0.16846 3.7e-4,0.2185 -0.018,0.0424 0.0886,0.13627 0.093,0.224 0.004,0.0782 -0.0933,0.15146 -0.12014,0.17899 -0.0355,0.0364 -0.094,-0.0852 -0.16503,-0.10684 -0.0546,-0.0166 -0.12323,0.0634 -0.15393,0.0903 -0.0388,0.0341 -0.13396,-0.0103 -0.17691,0.0183 -0.0468,0.0312 0.009,0.25671 -0.0385,0.28684 -0.0546,0.0347 -0.1014,0.14518 -0.16886,0.15489 -0.0736,0.0106 -0.1229,-0.0648 -0.20525,-0.0848 -0.0549,-0.0134 -0.12833,-0.0582 -0.18932,-0.0542 -0.0669,0.004 -0.121,0.0585 -0.17184,0.0679 -0.0868,0.0161 -0.14225,0.1294 -0.23727,0.14856 -0.094,0.019 -0.23193,0.10613 -0.33071,0.0993 -0.0914,-0.006 -0.0922,-0.10145 -0.16644,-0.14932 -0.082,-0.0528 -0.23587,-0.061 -0.30267,-0.12017 -0.0492,-0.0436 -0.0181,-0.1345 -0.0388,-0.20021 -0.0161,-0.0511 -0.0927,-0.11823 -0.10555,-0.16874 -0.0218,-0.0859 0.0283,-0.15437 0.058,-0.23602 0.0271,-0.0744 0.11891,-0.10665 0.17335,-0.16441 0.0395,-0.0419 0.12742,-0.0482 0.17562,-0.0848 0.0589,-0.0446 0.0787,-0.20035 0.14289,-0.24168 0.069,-0.0444 0.14152,-0.15828 0.21322,-0.19433 0.0624,-0.0314 0.15667,-0.0353 0.21509,-0.0597 0.0801,-0.0334 0.12644,-0.14937 0.17983,-0.19464 0.0729,-0.0618 0.14029,-0.0617 0.15315,-0.18401 0.009,-0.0824 0.0925,-0.20901 0.0629,-0.28965 -0.018,-0.049 -0.003,-0.22479 -0.0381,-0.26809 -0.037,-0.0455 -0.13908,0.008 -0.19305,-0.0174 -0.0529,-0.0249 -0.0613,-0.12392 -0.11183,-0.15325 -0.0894,-0.0519 -0.21875,-0.0351 -0.30326,-0.071 -0.0587,-0.0249 -0.13523,-0.12868 -0.19668,-0.13963 -0.0714,-0.0127 -0.14375,0.0616 -0.21678,0.0688 -0.11181,0.011 -0.21431,0.13572 -0.32762,0.16419 -0.0624,0.0157 -0.15814,-0.0451 -0.22158,-0.0381 -0.0768,0.008 -0.19497,-0.008 -0.26313,0.0163 -0.075,0.0273 -0.0995,0.0972 -0.17861,0.12292 -0.085,0.0277 -0.22659,-0.0105 -0.30194,0.0409 -0.0499,0.034 -0.16855,0.004 -0.20575,0.0537 -0.0503,0.0672 -0.0189,0.21283 -0.0973,0.22948 -0.054,0.0115 -0.12428,-0.0603 -0.17852,-0.0529 -0.0789,0.0107 -0.17955,-0.16005 -0.25865,-0.15518 -0.12825,0.008 -0.24504,-0.11374 -0.37232,-0.10634 -0.12222,0.007 -0.26636,-0.11394 -0.38921,-0.0973 -0.11113,0.0151 -0.36119,-0.0756 -0.4703,-0.0436 -0.0902,0.0264 -0.0838,0.14402 -0.15338,0.18764 -0.0602,0.0377 -0.0989,0.13859 -0.17532,0.15412 -0.10319,0.021 -0.24852,-0.0514 -0.35735,-0.0593 -0.0979,-0.007 -0.14201,-0.20086 -0.24019,-0.21284 -0.0862,-0.0105 -0.16804,0.0568 -0.25611,0.0505 -0.0913,-0.007 -0.21598,0.1005 -0.30883,0.0947 -0.0811,-0.005 -0.16697,0.0354 -0.24696,0.0259 -0.0808,-0.01 -0.16626,-0.14187 -0.24574,-0.15632 -0.1164,-0.0212 -0.25769,-0.14927 -0.37115,-0.14331 -0.0764,0.004 -0.21161,-0.053 -0.28153,-0.0139 -0.082,0.0458 -0.0985,0.18929 -0.18849,0.20407 -0.049,0.008 -0.18829,-0.0867 -0.23477,-0.0699 -0.06,0.0217 -0.17857,0.0333 -0.22899,0.0722 -0.0487,0.0375 -0.0515,0.14141 -0.0895,0.18664 -0.0463,0.0551 -0.0377,0.18456 -0.095,0.21681 -0.0645,0.0363 -0.1967,-0.0275 -0.28075,-0.0168 -0.073,0.009 -0.16894,0.11937 -0.24392,0.12442 -0.0646,0.004 -0.18333,0.11282 -0.24785,0.10972 -0.10015,-0.005 -0.17452,-0.11755 -0.26751,-0.1491 -0.0682,-0.0231 -0.17948,0.0624 -0.24714,0.0394 -0.0693,-0.0236 -0.31051,-0.0245 -0.37117,-0.0689 -0.0398,-0.0292 10e-4,-0.10954 -0.006,-0.14784 -0.0113,-0.0624 -0.0605,-0.0846 -0.12914,-0.12373 -0.0534,-0.0304 -0.036,-0.14852 -0.0792,-0.19053 -0.0482,-0.0469 -0.002,-0.28064 -0.045,-0.33253 -0.0251,-0.0299 -0.0585,-0.14061 -0.0462,-0.24034 0.0113,-0.0911 0.0689,-0.17219 0.0427,-0.19209 -0.0573,-0.0436 -0.19119,0.10712 -0.27826,0.11835 -0.0531,0.007 -0.17278,0.0706 -0.21944,0.0559 -0.0899,-0.0284 -0.0991,-0.15794 -0.17405,-0.21263 -0.0518,-0.0378 -0.0745,-0.20525 -0.13213,-0.23341 -0.0645,-0.0315 -0.13281,-0.14208 -0.2036,-0.16099 -0.0958,-0.0256 -0.2071,0.0588 -0.30927,0.0521 -0.10327,-0.007 -0.15363,-0.14799 -0.2564,-0.1577 -0.0994,-0.009 -0.18089,-0.139 -0.28193,-0.14112 -0.0853,-0.002 -0.13989,0.18594 -0.22279,0.19686 -0.0551,0.007 -0.20536,0.0447 -0.2614,0.009 -0.0846,-0.0533 -0.0719,-0.1966 -0.12578,-0.25655 -0.0426,-0.0475 -0.12628,-0.0935 -0.14148,-0.15515 -0.015,-0.0609 0.069,-0.16065 0.0739,-0.2286 0.007,-0.10435 -0.062,-0.17782 -0.10524,-0.26443 -0.0311,-0.0624 0.0198,-0.22175 -0.0264,-0.27541 -0.0344,-0.04 -0.18853,-0.0203 -0.23239,-0.0517 -0.0639,-0.0457 -0.26118,-0.043 -0.3106,-0.0922 -0.0389,-0.0387 -0.0969,-0.10432 -0.0977,-0.15868 -10e-4,-0.0747 0.0629,-0.14271 0.0405,-0.22144 -0.0162,-0.057 0.12282,-0.14491 0.1408,-0.20674 0.0182,-0.0625 0.11201,-0.14764 0.10223,-0.2029 -0.0125,-0.0707 -0.1362,-0.10969 -0.17823,-0.17373 -0.0149,-0.0228 -0.006,-0.13863 -0.0265,-0.15399 -0.0418,-0.0314 -0.11834,0.0155 -0.17896,0.0181 -0.12331,0.005 -0.24854,-0.003 -0.35633,-0.0369 -0.0914,-0.029 -0.13062,-0.19918996 -0.23142,-0.21510996 -0.10676,-0.0169 0.0157,-0.32849 -0.0981,-0.32635 -0.1088,0.002 -0.18196,-0.13391 -0.33179,-0.0783 -0.10883,0.0404 -0.0192,-0.1682 -0.0435,-0.29268 -0.0178,-0.0913 -0.15439,-0.0949 -0.18638,-0.13547 -0.11176,-0.1419 -0.16871,0.1753 -0.34028,0.11883 -0.13105,-0.0431 -0.0854,0.17516 -0.18312,0.26929 -0.077,0.0741 0.0553,0.36652 -0.0348,0.45274 -0.0575,0.055 -0.21438,-0.0126 -0.30648,0.0102 -0.1636,0.0406 -0.27424,0.15742996 -0.33985,0.26163996 -0.0302,0.048 -0.25361,0.0137 -0.2735,0.068 -0.0204,0.0556 -0.21902,0.12964 -0.21645,0.19574 0.003,0.0678 -0.0625,0.22379 -0.0261,0.29082 0.0708,0.13065 0.25483,0.16526 0.17038,0.24484 -0.0495,0.0466 -0.16579,-0.004 -0.23244,0.0138 -0.0987,0.0266 -0.15297,0.11387 -0.2429,0.15909 -0.0817,0.0411 -0.19581,-0.009 -0.27675,0.0353 -0.0895,0.0486 -0.12057,0.24924 -0.20237,0.31592 -0.0658,0.0536 -0.27228,-0.0333 -0.34398,7.2e-4 -0.11633,0.0551 -0.0982,0.22557 -0.19238,0.3178 -0.0737,0.0721 6e-5,0.29509 -0.0565,0.38163 -0.0454,0.0696 -0.10709,0.0398 -0.18704,0.073 -0.0653,0.0272 -0.15009,0.11617 -0.1886,0.1719 -0.0468,0.0677 -0.21313,0.0719 -0.25072,0.15062 -0.0293,0.0615 0.0957,0.16947 0.0884,0.23993 -0.009,0.089 -0.15271,0.13747 -0.22656,0.1712 -0.0665,0.0304 -0.15253,0.13347 -0.22442,0.13993 -0.0575,0.005 -0.14176,0.1325 -0.24277,0.16118 -0.10258,0.0291 -0.22188,-0.0406 -0.28097,-0.0645 -0.0558,-0.0225 0.002,-0.1551 -0.0211,-0.21194 -0.0352,-0.0876 -0.14228,-0.10675 -0.22463,-0.13272 -0.0524,-0.0165 0.006,-0.18186 -0.0425,-0.21178 -0.0538,-0.0334 -0.0895,-0.22262 -0.14893,-0.25288 -0.0667,-0.034 -0.14396,0.0757 -0.21777,0.0719 -0.0739,-0.004 -0.11081,-0.13317 -0.18434,-0.15335 -0.0798,-0.0219 -0.1961,0.0656 -0.27074,0.0708 -0.0811,0.006 -0.25656,-0.0708 -0.32422,-0.0312 -0.0563,0.0329 -0.25515,0.0531 -0.29821,0.10812 -0.0534,0.0682 0.038,0.25993 0.0154,0.34422 -0.0259,0.0968 -0.16112,0.0886 -0.25998,0.0299 -0.0584,-0.0346 -0.076,-0.13612 -0.12691,-0.11077 -0.0679,0.0338 -0.20485,0.01 -0.27114,0.0619 -0.0598,0.0471 -0.22869,0.0547 -0.28229,0.11354 -0.0503,0.0552 -0.0187,0.25204 -0.0538,0.31249 -0.0825,0.14224 -0.21559,0.14196 -0.36508,0.16566 -0.0792,0.0126 -0.15879,0.11586 -0.23872,0.12593 -0.1106,0.0139 -0.30281,0.0987 -0.41418,0.0956 -0.12766,-0.004 -0.20072,-0.13562 -0.30981,-0.17032 -0.12886,-0.041 -0.29305,0.0134 -0.44168,-0.008 -0.0875,-0.0126 -0.11335,-0.14094 -0.19733,-0.1737 -0.0795,-0.031 -0.20851,-0.0339 -0.26553,-0.0968 -0.0486,-0.0535 -0.0241,-0.16837 -0.0964,-0.18921 -0.0967,-0.0279 -0.24429,-0.086 -0.36511,-0.0698 -0.1276,0.0172 -0.22847,0.10987 -0.32883,0.11896 -0.0873,0.008 -0.24617,-0.0267 -0.32031,0.0265 -0.0555,0.0398 -0.019,0.24055 -0.0611,0.29637 -0.0855,0.11366 -0.24132,0.0854 -0.37484,0.0876 -0.0644,0.001 -0.18183,0.0685 -0.24405,0.0529 -0.0841,-0.021 -0.0788,-0.21532 -0.14971,-0.26956 -0.0637,-0.0487 -0.12424,-0.13947 -0.20123,-0.16399 -0.0912,-0.0291 -0.19897,0.009 -0.26926,-0.0515 -0.0398,-0.0341 0.0377,-0.13488 0.0648,-0.22475 0.0202,-0.0667 -0.007,-0.12496 -0.0277,-0.15831 -0.0311,-0.0498 0.004,-0.34598 -0.0422,-0.38363 -0.0673,-0.0548 -0.18391,-0.12854 -0.28136,-0.11486 -0.11741,0.0165 -0.21675,0.12321 -0.29702,0.0605 -0.0459,-0.0358 -0.048,-0.17667 -0.10144,-0.21022 -0.10987,-0.0689 -0.28003,-0.0156 -0.3955,0.0158 -0.12218,0.0332 -0.13419,0.18311 -0.21203,0.27983 -0.0555,0.069 -0.20588,0.10644 -0.25897,0.1839 -0.058,0.0845 -0.20452,0.14466 -0.24796,0.23557 -0.0356,0.0744 -0.002,0.1774 -0.0187,0.25247 -0.0168,0.0753 -0.0839,0.12263 -0.14815,0.17174 -0.057,0.0436 -0.0687,0.1581 -0.13153,0.1931 -0.0763,0.0425 -0.18422,-0.0494 -0.27436,-0.0296 -0.0602,0.0132 -0.21082,-0.0732 -0.26877,-0.0427 -0.0954,0.0502 -0.0966,0.22332 -0.18958,0.24657 -0.0761,0.019 -0.16359,-0.0724 -0.24067,-0.0579 -0.11505,0.0216 -0.20341,0.17957 -0.31908,0.20205 -0.11365,0.0221 -0.26252,0.14449 -0.38021,0.14638 -0.13219,0.002 -0.34436,0.0754 -0.46934,0.0401 -0.12681,-0.0358 -0.16641,-0.18027 -0.29757,-0.17932 -0.0734,5.3e-4 -0.17923,0.10537 -0.2527,0.0996 -0.14781,-0.0116 -0.23361,-0.19942 -0.37754,-0.23579 -0.0729,-0.0184 -0.25072,-0.26925 -0.32718,-0.27798 -0.10425,-0.0119 -0.35482,-0.1426 -0.44524,-0.10193 -0.0615,0.0277 -0.24565,0.0189 -0.27894,0.08 -0.0564,0.10363 0.0475,0.28674 -0.0685,0.30641 -0.0781,0.0132 -0.17432,-0.0898 -0.24702,-0.0487 -0.0753,0.0426 -0.20614,0.0469 -0.2763,0.1143 -0.0601,0.0578 -0.0201,0.28226 -0.0706,0.34406 -0.0482,0.059 -0.11966,0.13546 -0.19496,0.12897 -0.0703,-0.006 -0.14389,-0.0927 -0.20501,-0.10651 -0.0956,-0.0216 -0.0639,-0.13834 -0.12303,-0.23371 -0.0282,-0.0454 0.0298,-0.22415 5.8e-4,-0.27412 -0.0262,-0.0449 -0.0182,-0.19955 -0.0506,-0.23663 -0.074,-0.0845 -0.17212,-0.0474 -0.2748,-0.0547 -0.0422,-0.003 -0.0851,-0.12295 -0.12751,-0.13403 -0.0551,-0.0144 -0.17936,-0.006 -0.22945,0.004 -0.0703,0.0139 -0.0634,0.1064 -0.0946,0.1622 -0.0356,0.0637 -0.0206,0.15286 -0.0292,0.24686 -0.007,0.0749 -0.12325,0.12367 -0.12644,0.20624 -0.003,0.0829 -0.15409,0.16438 -0.14883,0.24894 0.002,0.0396 0.0246,0.15447 0.0872,0.19268 0.0525,0.032 0.14624,-0.0123 0.15624,0.0178 0.0206,0.0619 0.032,0.19454 -0.0113,0.2429 -0.0453,0.0506 -0.14705,0.0162 -0.19508,0.0436 -0.0774,0.0442 -0.16934,0.11196 -0.25314,0.11361 -0.079,0.002 -0.2193,0.0228 -0.30132,-0.004 -0.0843,-0.028 -0.12642,-0.16251 -0.20479,-0.20976 -0.0812,-0.049 -0.13618,-0.1378 -0.22553,-0.16435 -0.10696,-0.0318 -0.24919,0.002 -0.35479,-0.016 -0.10032,-0.0173 -0.17993,-0.16446 -0.28136,-0.17523 -0.10796,-0.0115 -0.18908,0.10377 -0.30205,0.12414 -0.11431,0.0206 -0.26046,-0.0537 -0.36726,-0.0785 -0.0844,-0.0196 -0.10754,-0.20776 -0.18927,-0.237 -0.0772,-0.0276 -0.13717,-0.18447 -0.22082,-0.19515 -0.0782,-0.01 -0.24262,-0.0638 -0.32663,-0.0422 -0.13116,0.0337 -0.18291,0.15035 -0.30037,0.12862 -0.0511,-0.01 -0.10306,0.0174 -0.15564,0.0149 -0.0965,-0.005 -0.27604,-0.13076 -0.37513,-0.12441 -0.0969,0.006 -0.18291,0.12726 -0.27071,0.14746 -0.062,0.0143 -0.11514,-0.0658 -0.12052,-0.16615 -0.004,-0.0685 0.0467,-0.16663 0.007,-0.1711 -0.0573,-0.006 -0.0279,-0.21244 -0.0905,-0.29915 -0.0722,-0.0999 -0.23642,-0.0839 -0.30145,-0.11992 -0.0957,-0.053 -0.18849,-0.13327 -0.26492,-0.1166 -0.10083,0.022 -0.25545,0.0663 -0.39947,0.0572 -0.0823,-0.005 -0.28302,-0.0218 -0.32583,0.0522 -0.0374,0.0646 -0.0895,0.15212 -0.0941,0.24855 -0.003,0.0659 0.15351,0.23144 0.15466,0.29377 0.002,0.0974 -0.1581,0.0829 -0.22625,0.1185 -0.0626,0.0327 -0.1717,-0.0429 -0.23983,-0.0288 -0.0483,0.01 -0.0672,-0.13173 -0.1564,-0.1772 -0.0889,-0.0453 -0.24808,0.006 -0.29667,0.0115 -0.0805,0.01 -0.27736,0.005 -0.33282,0.0479 -0.1075,0.0831 -0.0561,0.24065 -0.20582,0.29787 -0.0393,0.015 -0.21409,-0.0765 -0.25335,-0.0584 -0.0679,0.0314 -0.22519,0.0581 -0.2552,0.12566 -0.0358,0.0806 0.0592,0.20577 0.0116,0.27841 -0.033,0.0503 -0.10038,0.10945 -0.10549,0.17216 -0.006,0.0678 0.18579,0.16146 0.19592,0.23088 0.0148,0.10146 -0.15495,0.17579 -0.22007,0.24514 -0.0412,0.0439 -0.0758,0.24977 -0.13212,0.28101 -0.0676,0.0375 -0.23826,0.10751 -0.31835,0.0846 -0.10104,-0.0289 -0.11232,-0.16086 -0.19771,-0.19278 -0.053,-0.0198 -0.18483,0.0801 -0.22471,0.0431 -0.0664,-0.0615 -0.16878,-0.16859 -0.19734,-0.2818 -0.0191,-0.0756 0.0645,-0.20939 0.0614,-0.28568 -0.004,-0.0996 -0.0949,-0.13934 -0.13631,-0.21021 -0.0393,-0.0673 0.0755,-0.20598 0.0517,-0.28643 -0.0245,-0.083 -0.0161,-0.27703 -0.0841,-0.3359 -0.0706,-0.061 -0.21853,0.014 -0.2917,-0.0258 -0.0522,-0.0284 -0.095,-0.18423 -0.14969,-0.19862 -0.0846,-0.0222 -0.20468,-0.12778 -0.29459,-0.11733 -0.0893,0.0104 -0.39013,-0.0696 -0.48079,-0.0316 -0.0915,0.0383 -0.0766,0.19706 -0.14685,0.25885 -0.0842,0.0741 -0.10086,0.2393 -0.19911,0.28663 -0.12595,0.0607 -0.33742,-0.006 -0.47906,-0.004 -0.0971,0.002 -0.15642,-0.21549 -0.25348,-0.21935 -0.0908,-0.004 -0.17946,-0.22793 -0.27485,-0.20827 -0.0736,0.0152 -0.37537,-0.0972 -0.45035,-0.0453 -0.05,0.0346 0.0371,0.12137 0.0195,0.17858 -0.0369,0.11996 -0.14888,0.22008 -0.24629,0.20953 -0.0561,-0.006 -0.18771,0.14388 -0.24365,0.13669 -0.10215,-0.0131 -0.32137,0.039 -0.42051,0.0176 -0.075,-0.0162 -0.13107,-0.21378 -0.20147,-0.23521 -0.0713,-0.0217 -0.16803,-0.24157 -0.23675,-0.26003 -0.0903,-0.0243 -0.2910002,-0.24079 -0.3772402,-0.2441 -0.0875,-0.003 -0.15305,0.15484 -0.22646,0.18829 -0.0808,0.0368 -0.21983,-0.10025 -0.30701,-0.0917 -0.0987,0.01 -0.14775,0.16191 -0.27857,0.15237 -0.0693,-0.005 -0.15502,-0.25348 -0.22469,-0.25843 -0.0544,-0.004 -0.0255,-0.18585 -0.1176,-0.23571 -0.0643,-0.0348 -0.25406,0.0529 -0.29123,0.0647 -0.0642,0.0204 -0.2007,-0.0131 -0.24574,0.0433 -0.0377,0.0472 -0.0154,0.12387 -0.0352,0.18793 -0.0307,0.0995 -0.10179,0.18382 -0.18556,0.19817 -0.0731,0.0125 -0.1661,-0.0337 -0.23651,-0.0113 -0.11526,0.0367 -0.20246,0.18676 -0.31049,0.24771 -0.0852,0.048 -0.19278,-0.0225 -0.28573,-0.006 -0.0739,0.0135 -0.13263,0.11623 -0.20616,0.13576 -0.0423,0.0112 -0.0339,-0.10422 -0.0765,-0.17833 -0.0407,-0.071 -0.13222,-0.10048 -0.18112,-0.10317 -0.0364,-0.002 -0.13398,-0.11544 -0.25635,-0.13272 -0.0947,-0.0134 -0.21935,0.0633 -0.24662,0.0892 -0.0238,0.0226 -0.0245,0.0685 -0.0547,0.11492 -0.0349,0.0536 -0.0966,0.10965 -0.0743,0.16046 0.016,0.0366 0.0671,0.0942 0.0818,0.16341 0.0197,0.0928 -1.1e-4,0.19795 -0.0103,0.21914 -0.0353,0.0734 0.0653,0.0744 0.12441,0.12079 0.0402,0.0316 0.12841,0.0246 0.18029,0.0572 0.0775,0.0487 0.0999,0.12156 0.15005,0.19145 0.0492,0.0685 0.12697,0.13359 0.11885,0.21431 -0.005,0.046 0.0398,0.16195 0.0206,0.20309 -0.0229,0.0491 -0.0326,0.16929 -0.0767,0.20401 -0.0367,0.0289 -0.13508,-0.0388 -0.18271,-0.0268 -0.0947,0.0238 -0.14666,0.1147 -0.21951,0.16975 -0.0388,0.0293 -0.17445,-0.10857 -0.22158,-0.0903 -0.0444,0.0172 -0.22611,-0.0977 -0.2694,-0.0772 -0.0515,0.0244 -0.16855,0.0109 -0.20232,0.0542 -0.0429,0.055 0.002,0.13204 -0.009,0.21212 -0.0138,0.0955 -0.0825,0.19544 -0.1224,0.26785 -0.0361,0.0656 -0.01,0.13098 -0.006,0.20263 0.004,0.0823 0.10112,0.16827 0.12632,0.25586 0.0279,0.097 0.0803,0.19604 0.0844,0.29441 0.004,0.0968 -0.0399,0.19299 -0.052,0.28599 -0.007,0.0513 -0.0884,0.0936 -0.10216,0.14622 -0.0275,0.10512 -6.3e-4,0.21669 -0.0812,0.28155 -0.0574,0.0462 -0.0779,0.18843 -0.14923,0.21901 -0.0651,0.0279 -0.18566,0.13209 -0.26314,0.12878 -0.071,-0.003 -0.0804,-0.0991 -0.13987,-0.13952 -0.0647,-0.0439 -0.17901,-0.0331 -0.2422,-0.0555 -0.0936,-0.0332 -0.0944,-0.17368 -0.14932,-0.27775 -0.0272,-0.0516 0.0255,-0.22347 -0.003,-0.27525 -0.0154,-0.0279 -0.087,-0.0633 -0.10193,-0.10933 -0.0291,-0.0896 -0.003,-0.19821 -0.0501,-0.22154 -0.0497,-0.0248 -0.12976,-0.0503 -0.19144,-0.0149 -0.0572,0.0328 -0.0958,0.12541 -0.1458,0.13494 -0.0631,0.012 -0.19106,-0.0547 -0.22211,-0.008 -0.0236,0.0354 -0.12464,0.11318 -0.13131,0.16789 -0.007,0.0556 -0.1203,0.22427 -0.11026,0.28846 0.0102,0.0649 0.18636,0.0873 0.21644,0.13902 0.0313,0.0538 0.11906,0.16359 0.10462,0.21811 -0.0156,0.0587 -0.13557,0.062 -0.16293,0.11133 -0.0403,0.0727 -0.0495,0.20958 -0.0964,0.27942 -0.0431,0.0642 -0.0207,0.30599 -0.0752,0.35549 -0.0405,0.0368 -0.10991,-0.10341 -0.16773,-0.10567 -0.0889,-0.004 -0.1713,0.12114 -0.24129,0.17354 -0.0376,0.0281 -0.16034,-0.0364 -0.2001,-0.0106 -0.0693,0.0451 -0.21759,-2.6e-4 -0.28112,0.0485 -0.0626,0.0481 -0.0392,0.18629 -0.0861,0.24641 -0.0586,0.0752 -0.18822,0.0693 -0.28827,0.0823 -0.0644,0.008 -0.14824,0.0906 -0.21325,0.082 -0.0643,-0.009 -0.10902,-0.19435 -0.17249,-0.21718 -0.0559,-0.0201 -0.11598,-0.12568 -0.17243,-0.14052 -0.0836,-0.022 -0.19771,-0.17174 -0.28061,-0.16507 -0.0635,0.005 -0.24734999,-0.0607 -0.30367999,-0.0153 -0.0777,0.0626 -0.0267,0.24351 -0.11032,0.27272 -0.0567,0.0198 -0.20197,-0.0997 -0.25158,-0.0632 -0.0463,0.034 -0.20051,0.023 -0.22495,0.0903 -0.0194,0.0533 -0.10088,0.14357 -0.0895,0.21574 0.0161,0.10218 0.1301,0.18733 0.1077,0.24607 -0.0198,0.052 0.0797,0.11261 0.0685,0.16644 -0.012,0.0578 -0.1333,0.16981 -0.14231,0.2288697 -0.008,0.054 -0.17583,0.16784 -0.17552,0.21972 4.1e-4,0.067 0.11191,0.10865 0.14094,0.16684 0.0266,0.0534 -0.0505,0.16452 -0.0318,0.21987 0.0325,0.0962 0.15385,0.13979 0.17082,0.25104 0.0106,0.0692 -0.0545,0.18828 -0.0418,0.25765 0.0158,0.0864 -0.0288,0.2449 9.4e-4,0.32443 0.0211,0.0563 0.1805,0.0743 0.2143,0.11957 0.0318,0.0426 0.10189,0.0867 0.11413,0.13252 0.0198,0.0739 -0.0252,0.15205 0.018,0.23527 0.028,0.0539 -0.009,0.20499 0.0247,0.25507 0.0283,0.0418 0.0416,0.18987 0.0767,0.22429 0.0325,0.0319 0.17124,-7.1e-4 0.20863,0.0199 0.0521,0.0288 0.27004999,0.007 0.30824999,0.0383 0.0371,0.03 0.0794,0.0772 0.0668,0.12834 -0.0105,0.0427 -0.0778,0.0881 -0.0434,0.12849 0.0309,0.0363 0.0364,0.17848 0.0695,0.21307 0.0381,0.0397 0.0399,0.16764 0.0809,0.20167 0.0567,0.0471 0.072,0.18323 0.13385,0.21638 0.0291,0.0156 0.0709,-0.0425 0.13303,-0.0613 0.0514,-0.0155 0.12391,0.008 0.14997,0.0146 0.0462,0.012 0.2432,-0.0223 0.26918,0.008 0.0258,0.0303 0.0438,0.0907 0.0206,0.14695 -0.0221,0.0536 -0.0855,0.10275 -0.0626,0.14649 0.0281,0.0535 0.0908,0.0982 0.10694,0.15604 0.0151,0.054 -0.061,0.11792 -0.0562,0.17524 0.005,0.0555 -0.0656,0.17575 -0.048,0.23057 0.0122,0.0378 0.0216,0.0871 0.0527,0.11119 0.0438,0.0339 0.11189,0.0404 0.12781,0.0909 0.0145,0.0459 0.0623,0.0734 0.0754,0.12043 0.011,0.0396 0.15103,0.0799 0.16079,0.1204 0.0109,0.0452 -0.0548,0.0984 -0.0502,0.14394 0.004,0.0441 -0.0973,0.11078 -0.091,0.15395 0.007,0.0493 -0.0294,0.12284 -0.006,0.1677 0.0277,0.054 -0.0281,0.18375 0.0236,0.22699 0.0257,0.0215 0.0882,-0.0554 0.13412,-0.0507 0.068,0.007 0.12222,0.0921 0.15086,0.12567 0.0211,0.0248 0.026,0.12021 0.052,0.14151 0.0341,0.0279 0.13366,-0.0105 0.17442,0.009 0.0439,0.0206 0.18994,-0.009 0.23127,0.0113 0.0537,0.0262 0.1393,-0.0113 0.16488,0.0255 0.034,0.0488 0.003,0.17303 0.0496,0.21031 0.0307,0.0246 0.0288,0.11773 0.0869,0.15625 0.0504,0.0334 0.0573,0.13754 0.12239,0.17544 0.0418,0.0244 0.14837,-0.0212 0.19536,0.002 0.0384,0.0188 0.23632,-0.006 0.27246,0.0164 0.0515,0.0322 0.16117,0.0305 0.18456,0.0753 0.0174,0.0333 0.0781,0.093 0.0766,0.13615 -0.003,0.0858 -0.0825,0.16275 -0.0521,0.23306 0.015,0.0347 -0.0155,0.0967 -0.007,0.13255 0.0136,0.0568 0.082,0.12578 0.0847,0.18378 0.003,0.0578 0.0754,0.15771 0.0678,0.21573 -0.009,0.0715 0.0292,0.18596 0.005,0.25325 -0.0165,0.0454 -0.13033,0.0765 -0.15336,0.11696 -0.0238,0.0417 -0.0996,0.0994 -0.10626,0.14179 -0.0124,0.079 0.0618,0.14519 0.0787,0.23928 0.0155,0.0859 -0.035,0.19343 -0.0109,0.27832 0.0197,0.0692 -0.0218,0.25475 0.0125,0.31942 0.0295,0.0556 0.15316,-0.003 0.20028,0.0305 0.0452,0.032 0.14675,0.0653 0.17085,0.1232 0.0208,0.05 -0.0354,0.12376 -0.006,0.16518 0.0342,0.0485 0.0221,0.1905 0.0686,0.24069 0.0288,0.0311 0.0279,0.21724 0.0611,0.24514 0.038,0.0319 0.09,0.20832 0.13264,0.22831 0.0599,0.0281 0.1324,0.14092 0.19157,0.13467 0.07,-0.007 0.0636,-0.16997 0.11651,-0.21488 0.0545,-0.0463 0.16756,0.0253 0.19353,0.0383 0.031,0.0155 0.15166,-0.0674 0.2311,-0.0181 0.0548,0.034 0.27711,0.0486 0.34031,0.10301 0.0385,0.0332 0.19132,0.0217 0.2223,0.061 0.0398,0.0506 -0.0491,0.17407 -0.0304,0.23471 0.0164,0.0532 -0.0104,0.18024 0.0228,0.22141 0.057,0.0708 0.18558,0.0462 0.25278,0.1007 0.0369,0.0299 0.16738,0.0131 0.20733,0.0419 0.0642,0.0462 0.24155,0.0401 0.30134,0.0895 0.0654,0.054 0.25404,0.0315 0.29555,0.0983 0.0269,0.0433 0.13395,0.10347 0.13794,0.1606 0.005,0.0688 0.0411,0.16543 0.0145,0.23791 -0.0284,0.0771 -0.11953,0.12994 -0.10106,0.19683 0.0189,0.0683 0.10752,0.17808 0.0917,0.24572 -0.0125,0.0534 0.0386,0.19232 0.007,0.24226 -0.0381,0.0606 -0.17941,0.0123 -0.23637,0.0569 -0.0376,0.0294 -0.18132,0.0866 -0.19806,0.13375 -0.0274,0.0774 0.0867,0.15356 0.0901,0.22685 0.004,0.0786 -0.1012,0.21743 -0.0802,0.29376 0.0159,0.0579 0.0133,0.2159 0.0525,0.26377 0.0399,0.0488 0.13319,-0.0283 0.18745,-0.007 0.0622,0.0242 0.0851,0.14626 0.12115,0.20587 0.0283,0.0468 -0.0342,0.18586 -0.004,0.2329 0.0294,0.0456 -0.027,0.21221 0.0123,0.249 0.0227,0.0213 0.0157,0.11533 0.0459,0.14765 0.0425,0.0455 0.1251,0.0287 0.17411,0.0376 0.0586,0.0106 0.0736,-0.1341 0.13168,-0.14738 0.0648,-0.0148 0.17198,0.10213 0.2232,0.12843 0.0331,0.017 0.0711,0.0985 0.10617,0.11444 0.044,0.02 0.10088,0.16776 0.14724,0.18337 0.0449,0.0151 0.11719,-0.0893 0.1631,-0.0834 0.0618,0.008 0.18395,-0.0468 0.24411,-0.0433 0.0639,0.004 0.12052,0.0754 0.17384,0.0798 0.0573,0.005 0.15275,0.0436 0.20726,0.0196 0.0532,-0.0234 0.0653,-0.10912 0.12501,-0.14096 0.0652,-0.0348 0.2318,-0.058 0.25877,-0.12913 0.0219,-0.0577 -0.0939,-0.16835 -0.10483,-0.23885 -0.0126,-0.0811 0.0801,-0.12148 0.12693,-0.17217 0.057,-0.0617 0.071,-0.22965 0.13917,-0.27755 0.0515,-0.0362 0.12977,-0.16936 0.18761,-0.19543 0.083,-0.0374 0.16942,-0.1504 0.25605,-0.16641 0.0787,-0.0145 0.1804802,-0.10905 0.2572302,-0.10844 0.0704,5.6e-4 0.15253,0.11548 0.21191,0.12662 0.0616,0.0116 0.10021,-0.0816 0.15797,-0.135 0.0527,-0.0488 0.15188,-0.0901 0.18695,-0.15693 0.0264,-0.0503 -0.008,-0.19735 0.008,-0.24945 0.0239,-0.0773 0.10051,-0.0557 0.17272,-0.0906 0.0425,-0.0205 0.12292,-0.17739 0.17085,-0.18796 0.0379,-0.008 0.0483,-0.15071 0.11276,-0.17215 0.0541,-0.018 0.16312,0.0819 0.19292,0.0979 0.0331,0.0178 0.139,0.009 0.15288,0.0519 0.0233,0.0712 -0.0531,0.2023 -0.003,0.23193 0.0347,0.0205 0.10128,-0.0136 0.13126,0.012 0.0539,0.046 0.0417,0.19784 0.0808,0.26096 0.0238,0.0384 -0.003,0.16833 0.0197,0.20656 0.0236,0.0402 0.17487,0.004 0.20072,0.0377 0.0293,0.0383 0.18937,0.0459 0.20329,0.0901 0.0131,0.0417 0.14019,0.21323 0.12187,0.26456 -0.0122,0.0342 -0.13139,-0.0166 -0.17192,-0.01 -0.0493,0.009 -0.0189,0.0735 -0.002,0.11 0.0169,0.0374 -0.0258,0.13619 -0.008,0.17426 0.0263,0.0551 0.15775,0.0514 0.19064,0.0962 0.0492,0.067 -0.004,0.18119 -0.0102,0.26966 -0.004,0.061 0.0978,0.2314 0.0792,0.28961 -0.0179,0.0562 0.0252,0.22771 -0.0159,0.26801 -0.0445,0.0436 -0.14754,-0.005 -0.21767,0.006 -0.088,0.0135 -0.14385,0.085 -0.19135,0.14947 -0.043,0.0583 -0.18374,0.0736 -0.23139,0.12908 -0.0382,0.0445 -0.21708,0.0484 -0.2494,0.0941 -0.04,0.0566 0.0611,0.19634 0.0488,0.25736 -0.0178,0.0879 -0.148,0.0946 -0.23775,0.14606 -0.0547,0.0313 -0.171,0.009 -0.22984,0.0303 -0.0918,0.0332 -0.2859,-0.062 -0.37399,-0.034 -0.076,0.0242 -0.0734,0.21713 -0.12603,0.26946 -0.0666,0.0662 -0.18525,-8.7e-4 -0.28563,0.0367 -0.0801,0.03 -0.2526602,3.2e-4 -0.3216202,0.036 -0.0709,0.0367 -0.26144,0.0366 -0.30905,0.0878 -0.0344,0.037 0.0382,0.11487 0.0327,0.16264 -0.008,0.0665 -0.0916,0.10351 -0.15824,0.14572 -0.0461,0.0292 -0.0426,0.15785 -0.0886,0.18744 -0.0882,0.0568 -0.22971,0.25327 -0.32683,0.29117 -0.0468,0.0183 -0.0983,-0.10951 -0.13568,-0.11835 -0.0592,-0.014 -0.10019,0.086 -0.16186,0.13668 -0.0489,0.0402 -0.21888,0.015 -0.2657,0.0576 -0.0405,0.0369 -0.18135,0.075 -0.20903,0.11952 -0.0133,0.0214 0.10436,0.0493 0.1271,0.0923 0.026,0.0492 -0.0415,0.11397 -0.045,0.14044 -0.006,0.0478 -0.0891,0.019 -0.13342,0.042 -0.0413,0.0215 -0.0433,0.0951 -0.0789,0.13147 -0.0363,0.0371 -0.15832,0.0342 -0.1943,0.0715 -0.037,0.0384 -0.18814,0.057 -0.2211,0.0975 -0.0341,0.0419 0.0108,0.14288 -0.0132,0.1876 -0.0293,0.0548 -0.16471,0.0561 -0.19692,0.10531 -0.029,0.0442 -0.13661,0.0795 -0.14926,0.13157 -0.007,0.0293 0.0695,0.0574 0.0768,0.0895 0.0127,0.0553 -0.0412,0.11505 -0.0799,0.15959 -0.0385,0.0442 -0.19048,0.0393 -0.23281,0.0816 -0.0421,0.042 -0.14593,0.0652 -0.17903,0.11122 -0.0392,0.0544 0.0123,0.1562 -0.007,0.2188 -0.0125,0.0414 0.005,0.11253 -0.018,0.14831 -0.0383,0.0594 -0.12149,0.0818 -0.14694,0.15309 -0.012,0.0335 -0.0967,0.0905 -0.10526,0.12497 -0.0121,0.0484 0.0402,0.1065 0.0372,0.15523 -0.005,0.0753 0.0815,0.15013 0.0849,0.22487 0.003,0.0763 0.0937,0.18297 0.0851,0.25932 -0.004,0.0368 -0.0827,0.062 -0.10211,0.0938 -0.0335,0.0549 -0.0119,0.11435 5.6e-4,0.17891 0.0121,0.0626 -0.082,0.1648 -0.067,0.22862 0.0215,0.0912 -7.8e-4,0.32373 0.0566,0.4016 0.0306,0.0416 0.11838,-0.0247 0.16704,-0.0163 0.0679,0.0117 0.0995,0.0927 0.14582,0.1423 0.0322,0.0344 -0.008,0.18834 0.0306,0.22219 0.0406,0.0354 0.0947,0.14298 0.14951,0.15739 0.0794,0.0209 0.18227,0.046 0.26453,0.0132 0.0551,-0.022 0.0925,-0.0994 0.13872,-0.11194 0.0649,-0.0176 0.19739,-0.0125 0.24094,-0.0627 0.0684,-0.0789 0.20459,-0.14392 0.23564,-0.26909 0.0254,-0.10226 0.0962,-0.22389 0.1059,-0.3328 0.0102,-0.11557 -0.0584,-0.34209 -0.0444,-0.42433 0.0154,-0.0907 0.11727,-0.0315 0.21816,-0.0345 0.10604,-0.003 0.30027,-0.0176 0.37428,0.0578 0.0647,0.0659 0.19085,0.12857 0.21907,0.23545 0.0197,0.0745 -0.0593,0.172 -0.0632,0.25636 -0.005,0.10558 0.0645,0.19707 0.0964,0.27139 0.0291,0.0679 0.10504,0.16288 0.0904,0.24853 -0.0108,0.0632 -0.18942,0.18091 -0.20364,0.23185 -0.0141,0.0504 0.13579,0.0342 0.19968,0.0598 0.0398,0.0159 0.0363,0.18722 0.10022,0.20731 0.0772,0.0242 0.16203,0.11197 0.26839,0.12243 0.0936,0.009 0.20387,0.10235 0.3086,0.0967 0.0835,-0.004 0.2359002,0.0276 0.3171002,0.005 0.12543,-0.0347 0.17627,-0.12554 0.28045,-0.10744 0.0864,0.015 0.17542,0.1064 0.26891,0.0974 0.10161,-0.01 0.15024,-0.1682 0.25475,-0.18717 0.0578,-0.0105 0.27534,-0.0562 0.34598,-0.0175 0.0673,0.0369 -0.0121,0.15716 0.0378,0.19366 0.0479,0.035 0.19039,0.0218 0.21713,0.072 0.0454,0.0853 0.19696,0.1694 0.18628,0.28978 -0.005,0.0535 -0.17235,0.0968 -0.20281,0.15551 -0.0545,0.10497 0.0191,0.22572 0.0371,0.30371 0.009,0.0375 -0.0866,0.14017 -0.0793,0.178 0.0108,0.0565 -0.0738,0.1845 -0.0422,0.22713 0.0396,0.0534 0.19664,0.0206 0.20791,0.0918 0.007,0.0469 0.14902,0.0904 0.15726,0.1447 0.0138,0.0905 0.18137,0.21667 0.1902,0.31953 0.0121,0.14079 -0.11747,0.26318 -0.12902,0.40024 -0.008,0.0928 -0.16413,0.22142 -0.16505,0.30485 -8.8e-4,0.0808 0.0703,0.1127 0.0947,0.17059 0.0505,0.12013 0.076,0.22569 0.076,0.22569 z"
     style="display:inline;fill:none;fill-rule:evenodd;stroke:#000000;stroke-width:0.105833;stroke-linecap:square;stroke-dasharray:none;paint-order:markers fill stroke"
     id="Outline" />
  <path
     d="m 11.853378,33.513535 c 0.0985,-0.0249 0.23994,-0.26706 0.34355,-0.29484 0.14765,-0.0396 0.2574,0.1446 0.38979,0.20317 0.0675,0.0299 0.29748,-0.0191 0.34038,0.04 0.0654,0.09 0.277,0.17428 0.287,0.30708 0.005,0.0728 -0.17999,0.12131 -0.20688,0.19668 -0.0385,0.10795 0.0838,0.23685 0.16005,0.28129 0.0699,0.0407 0.10068,0.26134 0.17768,0.28542 0.12089,0.0378 0.31991,0.23039 0.45815,0.20417 0.11209,-0.0213 0.37352,0.0544 0.47022,-0.0264 0.10203,-0.0852 0.039,-0.3268 0.14673,-0.34097 0.0871,-0.0115 0.15065,-0.20029 0.23415,-0.22817 0.16485,-0.055 0.34498,0.0322 0.49918,-0.0468 0.0993,-0.0509 0.38151,0.0173 0.47231,-0.0482 0.0896,-0.0646 0.35247,-0.11931 0.40127,-0.21269 0.0645,-0.12348 -0.0877,-0.28628 0.0431,-0.35023 0.0835,-0.0408 0.14173,-0.25225 0.22853,-0.28722 0.0969,-0.039 0.31124,-0.14444 0.41863,-0.12716 0.0964,0.0155 0.0857,0.15293 0.17784,0.13938 0.11308,-0.0166 0.37302,-0.31176 0.48773,-0.32316 0.10365,-0.0103 0.2017,-0.20215 0.34005,-0.22873 0.13814,-0.0265 0.31661,0.11217 0.40861,0.13624 0.12752,0.0334 0.44221,0.0299 0.53651,0.10434 0.0755,0.0596 0.008,0.18642 0.0342,0.26072 0.0238,0.0679 0.13899,0.0848 0.2401,0.11171 0.087,0.0231 0.27226,-0.10307 0.35206,-0.0594 0.1345,0.0736 -0.0381,0.37326 0.0717,0.49416 0.0737,0.0812 0.0924,0.42621 0.21644,0.46911 0.11806,0.0408 0.37899,0.14754 0.52659,0.0874 0.11975,-0.0488 0.12985,-0.26457 0.20825,-0.25797 0.1574,0.0133 0.44041,0.26007 0.59135,0.22252 0.1392,-0.0347 0.57397,0.0498 0.69553,-0.0394 0.093,-0.0682 0.4686,-0.0737 0.5199,-0.17194 0.0602,-0.11522 -0.24321,-0.39024 -0.26011,-0.51573 -0.0169,-0.12555 0.25255,-0.10155 0.37833,-0.13715 0.0972,-0.0275 0.15213,-0.2459 0.25073,-0.26789 0.20853,-0.0465 0.43766,-0.20454 0.6583,-0.19646 0.18311,0.007 0.35869,0.18332 0.52708,0.12824 0.0921,-0.0301 0.37848,0.11206 0.47778,0.0881 0.13519,-0.0326 0.52583,0.0615 0.63503,0.003 0.15075,-0.0813 0.28803,-0.17652 0.32503,-0.34356 0.0223,-0.10046 -0.0641,-0.26828 -0.002,-0.35825 0.0487,-0.0703 0.27147,-0.19688 0.28367,-0.28506 0.0101,-0.0729 0.0194,-0.22037 -0.036,-0.28499 -0.0612,-0.0714 -0.18948,-0.0596 -0.21708,-0.13272 -0.0249,-0.0659 -0.25316,-0.0508 -0.29336,-0.1074 -0.0591,-0.0831 -0.33824,-0.0651 -0.38424,-0.14847 -0.0422,-0.0766 -0.1153,-0.18644 -0.10319,-0.28567 0.0107,-0.0875 0.1093,-0.16561 0.0475,-0.22235 -0.0621,-0.057 -0.22958,0.0308 -0.31607,-0.0133 -0.0878,-0.0447 -0.27428,0.0123 -0.34658,-0.0525 -0.0839,-0.0753 -0.0475,-0.21672 -0.0591,-0.34185 -0.008,-0.0896 -0.0758,-0.16294 -0.0728,-0.23404 0.005,-0.11605 0.0481,-0.33627 0.14318,-0.40912 0.094,-0.072 0.22951,-0.0463 0.36163,-0.0565 0.11444,-0.009 0.22499,-0.0556 0.32019,-0.0844 0.12674,-0.0384 0.30231,-0.13656 0.43882,-0.11394 0.13649,0.0226 0.23391,0.16602 0.35563,0.11394 0.10454,-0.0447 0.095,-0.25535 0.17394,-0.33813 0.0658,-0.069 0.2021,-0.0653 0.2837,-0.11042 0.0873,-0.0483 0.11972,-0.14535 0.18402,-0.22367 0.0674,-0.0815 0.004,-0.30224 0.0634,-0.38958 0.0532,-0.0784 0.30378,-0.0922 0.38058,-0.14462 0.11039,-0.0754 0.0517,-0.18445 0.13659,-0.2908 0.0655,-0.082 -0.0476,-0.46799 0.0116,-0.5648 0.0712,-0.1164 0.23844,-0.121 0.34918,-0.17255 0.0637,-0.0297 0.025,-0.40172 0.0832,-0.43174 0.0977,-0.0504 0.26485,-0.29572 0.38457,-0.31828 0.1205,-0.0227 0.36349,-0.0135 0.48034,0.0599 0.0834,0.0524 0.085,0.2382 0.158,0.32223 0.0842,0.0969 0.31012,0.0369 0.39612,0.13748 0.0695,0.0813 0.0361,0.33233 0.0839,0.43346 0.09,0.19059 0.24754,0.23476 0.37536,0.32044 0.061,0.0409 0.0441,0.2686 0.10099,0.31504 0.10316,0.0842 0.086,0.3819 0.18766,0.46111 0.0932,0.0726 0.33637,-0.0364 0.44437,0.007 0.0837,0.0337 0.35703,-0.0254 0.42644,0.0229 0.15562,0.10832 0.0913,0.34374 0.27665,0.44655 0.0846,0.0469 0.0605,0.28441 0.15263,0.31935 0.14096,0.0535 0.40208,-0.10641 0.55015,-0.10546 0.087,5.6e-4 0.34053,0.16031 0.43213,0.1522 0.14059,-0.0124 0.41586,-0.0393 0.49776,-0.134 0.0664,-0.0768 -0.0572,-0.21471 0.0173,-0.2932 0.0672,-0.0707 0.27716,-0.17824 0.29886,-0.27232 0.03,-0.12999 -0.20563,-0.3561 -0.24113,-0.49304 -0.0325,-0.12547 0.13329,-0.16223 0.18672,-0.27353 0.0332,-0.0691 -0.0582,-0.33434 -0.0225,-0.41705 0.0495,-0.11489 0.19799,-0.0704 0.29599,-0.11476 0.10534,-0.0477 0.16249,-0.17946 0.27656,-0.17096 0.0862,0.006 0.28398,-0.0138 0.32118,0.0646 0.0311,0.0655 0.15355,0.148 0.14763,0.24487 -0.009,0.14843 -0.1506,0.31594 -0.0716,0.3933 0.0475,0.0466 0.027,0.24348 0.0786,0.28765 0.0746,0.0639 0.2333,0.0396 0.3219,0.0813 0.0981,0.0462 0.19804,0.23139 0.29264,0.27114 0.16147,0.0678 0.32332,0.16429 0.50391,0.18524 0.11275,0.0131 0.44709,0.12013 0.55794,0.0549 0.0746,-0.0439 0.27651,-0.0937 0.29611,-0.18148 0.0134,-0.06 0.18035,0.17979 0.2822,0.13977 0.0627,-0.0246 0.0672,-0.33648 0.0957,-0.35128 0.13307,-0.0691 0.28473,-0.12001 0.30083,-0.22792 0.018,-0.12109 -0.104,-0.30275 -0.0104,-0.44261 0.0354,-0.053 0.1747,-0.11602 0.1946,-0.17655 0.0484,-0.14732 -0.15192,-0.41264 -0.15238,-0.56667 -3.5e-4,-0.12177 0.19104,-0.13548 0.26334,-0.23455 0.0446,-0.0616 -0.002,-0.38781 0.0516,-0.44657 0.0759,-0.0825 0.13892,-0.38474 0.24927,-0.39612 0.15751,-0.0163 0.36148,0.0368 0.51333,0.0191 0.0959,-0.0112 0.12375,0.16228 0.21475,0.22497 0.084,0.0579 0.33261,-0.0239 0.42651,0.0308 0.0535,0.0312 0.0448,0.13268 0.0731,0.18311 0.0516,0.0921 0.12562,0.14013 0.21312,0.17083 0.0919,0.0322 0.19117,-0.111 0.29201,-0.0954 0.0818,0.0127 0.29972,-0.0853 0.38042,-0.0497 0.0715,0.0315 0.0171,0.17131 0.0572,0.23834 0.06,0.1004 0.20441,0.13834 0.27871,0.21225 0.0645,0.0641 0.25821,0.0494 0.28741,0.13444 0.0317,0.0923 -0.0772,0.21709 -0.0822,0.33161 -0.005,0.11074 0.10482,0.19239 0.11742,0.30196 0.0108,0.0935 0.0777,0.18654 0.0807,0.27682 0.003,0.0901 -0.0598,0.1775 -0.006,0.23851 0.0851,0.0966 0.31968,0.0396 0.43518,0.0938 0.12657,0.0594 0.13958,0.31857 0.25661,0.38236 0.10176,0.0555 0.23386,0.16744 0.3628,0.17494 0.1047,0.006 0.20726,-0.0958 0.28986,-0.04 0.0864,0.0584 0.28528,0.003 0.35829,0.0774 0.0602,0.0617 -0.06,0.30508 -0.0262,0.39441 0.047,0.12416 0.24566,0.0966 0.34016,0.1698 0.0507,0.0393 0.003,0.25295 0.0557,0.28975 0.0896,0.0628 0.1898,0.26805 0.29484,0.30475 0.10022,0.035 0.28124,0.25628 0.38535,0.25545 0.16493,-0.001 0.25214,-0.23138 0.39465,-0.14717 0.0572,0.0338 0.25137,-0.015 0.30777,0.0209 0.1129,0.072 0.39365,0.0717 0.48715,0.15618 0.0907,0.082 -0.022,0.35457 0.0294,0.4474 0.0598,0.10798 0.28512,0.0334 0.42845,0.0782 0.0974,0.0305 0.1893,0.27474 0.29017,0.29667 0.14412,0.0313 0.34976,0.13234 0.49856,0.0948 0.0843,-0.0213 0.3174,0.0301 0.3884,-0.0227 0.0854,-0.0634 0.008,-0.23143 0.1062,-0.24653 0.0654,-0.0101 0.0653,-0.18905 0.12919,-0.20773 0.11311,-0.0331 0.21866,-0.15848 0.34176,-0.16895 0.10925,-0.009 0.2372,0.0987 0.3235,0.0406 0.0431,-0.0291 0.37225,0.0667 0.41425,0.0353 0.0743,-0.0557 0.22605,-0.15169 0.25285,-0.23327 0.0343,-0.10467 -0.0981,-0.23711 -0.10314,-0.34396 -0.003,-0.0627 0.10312,-0.10151 0.13882,-0.16083 0.0441,-0.0732 0.18362,-0.1149 0.20582,-0.19768 0.0273,-0.10183 -0.1417,-0.23867 -0.1477,-0.35274 -0.005,-0.0938 0.14902,-0.16605 0.18632,-0.24403 0.0391,-0.0817 0.009,-0.35272 0.0544,-0.43126 0.0594,-0.10285 0.0911,-0.4798 0.17102,-0.54579 0.074,-0.0611 0.17257,0.0378 0.26167,0.057 0.0805,0.0173 0.15179,-0.0431 0.21569,-0.11886 0.0577,-0.0685 0.29287,-0.10939 0.34927,-0.18504 0.0701,-0.0939 0.23159,-0.19073 0.27289,-0.28061 0.0565,-0.12301 -0.006,-0.2297 0.14173,-0.26768 0.0519,-0.0134 0.22231,-0.13912 0.27421,-0.14152 0.10569,-0.005 0.3447,-0.0687 0.4386,-0.0286 0.0893,0.0382 0.0563,0.22682 0.12113,0.29657 0.0676,0.0728 0.21105,0.008 0.30985,0.0442 0.0908,0.033 0.13571,0.16804 0.23121,0.196 0.0485,0.0142 0.18838,-0.0437 0.23658,-0.0285 0.10007,0.0315 0.14882,0.18701 0.24062,0.2269 0.0922,0.0401 0.14767,0.20952 0.24267,0.23691 0.0877,0.0253 0.2325,0.139 0.3301,0.1328 0.0697,-0.004 0.10259,-0.10686 0.16119,-0.13672 0.0633,-0.0322 0.15225,0.009 0.22495,0.027 0.0519,0.013 0.18411,-0.0395 0.23621,-0.0276 0.0779,0.0178 0.15934,0.17563 0.23094,0.19682 0.0953,0.0282 0.22761,0.19925 0.31871,0.19981 0.0514,3.1e-4 0.0509,-0.12576 0.096,-0.15726 0.0704,-0.0491 0.1864,-0.0104 0.2792,0.002 0.063,0.009 0.19481,-0.0974 0.25791,-0.0886 0.1487,0.0207 0.19719,0.20507 0.33505,0.24118 0.0664,0.0174 0.19534,0.0331 0.29034,0.0811 0.0731,0.0369 0.11203,0.11165 0.17293,0.10614 0.15282,-0.0138 0.24062,-0.21119 0.37988,-0.21759 0.0758,-0.004 0.15004,-0.13473 0.22844,-0.13773 0.0934,-0.004 0.23744,-0.0854 0.32894,-0.0729 0.12475,0.0171 0.19441,0.12447 0.29818,0.0578 0.0628,-0.0404 0.22025,-0.0663 0.26365,-0.12615 0.0483,-0.0666 0.19804,-0.13737 0.22024,-0.2185 0.0255,-0.0931 -0.10803,-0.24201 -0.10786,-0.33054 1.2e-4,-0.064 0.12297,-0.0728 0.17397,-0.11925 0.0618,-0.0563 0.0848,-0.1981 0.15254,-0.24892 0.0621,-0.0466 0.0835,-0.22575 0.15403,-0.25757 0.0798,-0.036 0.20187,-0.17469 0.29627,-0.17159 0.0593,0.002 0.0873,0.0852 0.14027,0.11596 0.0705,0.041 0.16456,0.0305 0.23466,0.0121 0.0944,-0.0247 0.23321,-0.17726 0.33141,-0.17506 0.0871,0.002 0.14207,0.14626 0.22647,0.17107 0.0822,0.0242 0.16655,0.141 0.25145,0.1509 0.087,0.0102 0.27397,0.0697 0.36047,0.0392 0.0934,-0.0328 0.086,-0.15723 0.17465,-0.18616 0.0854,-0.0279 0.0588,-0.1741 0.13539,-0.22107 0.0936,-0.0574 0.12017,-0.29451 0.22921,-0.3436 0.12737,-0.0574 0.33654,0.0722 0.42984,-0.0159 0.0465,-0.044 0.14609,-0.0427 0.18569,-0.0937 0.0771,-0.0992 0.31429,-0.20517 0.37299,-0.32071 0.0327,-0.0643 0.13106,-0.13734 0.13506,-0.19909 0.007,-0.0992 -0.0842,-0.18131 0.009,-0.242 0.0551,-0.0358 0.0844,-0.26658 0.14712,-0.28861 0.0568,-0.0199 0.20674,-0.0613 0.27374,-0.0237 0.0734,0.0412 0.0641,0.16247 0.12914,0.15956 0.0506,-0.002 0.2041,-0.11549 0.2544,-0.11129 0.0778,0.007 0.12993,0.13334 0.20303,0.15564 0.0798,0.0243 0.16586,0.13958 0.24356,0.16735 0.10828,0.0387 0.22966,0.19746 0.33627,0.21675 0.12745,0.0231 0.35263,0.12171 0.48161,0.0793 0.075,-0.0247 0.0491,-0.19057 0.13113,-0.20215 0.0737,-0.0104 0.0695,-0.22512 0.13521,-0.26123 0.0956,-0.0525 0.19898,-0.26943 0.30925,-0.28599 0.11537,-0.0173 0.23788,0.16657 0.34998,0.15 0.0646,-0.01 0.27071,-0.26027 0.33561,-0.25707 0.0612,0.003 0.35402,-0.0933 0.41272,-0.0768 0.0978,0.0275 0.10359,0.20502 0.18229,0.26294 0.0858,0.0631 0.22174,-0.008 0.30414,0.0538 0.0827,0.0619 0.0441,0.23905 0.12112,0.30478 0.0628,0.0536 0.1716,0.21524 0.265,0.22434 0.11774,0.0114 0.22446,-0.14085 0.33468,-0.17586 0.0965,-0.0306 0.30887,-0.0453 0.38277,-0.11211 0.0637,-0.0576 0.0352,-0.21123 0.0805,-0.28678 0.068,-0.11325 0.0312,-0.31833 0.10558,-0.42202 0.0539,-0.0751 0.0933,-0.24662 0.18368,-0.28599 0.0993,-0.0433 0.13304,-0.33817 0.22904,-0.37886 0.0404,-0.0171 0.19402,-0.11552 0.28172,-0.0748 0.0972,0.0451 0.12918,0.23051 0.17668,0.22511 0.0967,-0.0111 0.2657,-0.0841 0.3618,-0.0665 0.0917,0.0168 0.1259,0.18082 0.2113,0.21612 0.08,0.0331 0.19628,-0.0807 0.27918,-0.0603 0.0932,0.0229 0.15122,0.16449 0.23892,0.19546 0.12192,0.043 0.27287,-0.0316 0.40213,-0.0798 0.0568,-0.0212 0.14739,-0.0107 0.20279,-0.0371 0.0931,-0.0444 0.3691,-0.029 0.4533,-0.0896 0.10125,-0.0728 0.30749,-0.16168 0.36239,-0.26407 0.0459,-0.0855 -0.0504,-0.21313 -0.0474,-0.30716 0.003,-0.0962 0.10712,-0.15882 0.15952,-0.24933 0.0733,-0.1266 0.17492,-0.27494 0.19142,-0.42162 0.0148,-0.13205 -0.1826,-0.35932 -0.1906,-0.49359 -0.005,-0.0852 -0.0639,-0.26629 -0.0192,-0.32902 0.0556,-0.078 0.22111,-0.0356 0.26281,-0.13077 0.0279,-0.0636 -0.004,-0.26055 0.0271,-0.32346 0.0468,-0.0951 -0.046,-0.48647 0.0112,-0.5714 0.0732,-0.10866 0.33057,-0.0623 0.43514,-0.12187 0.1538,-0.0876 0.19349,-0.35917 0.32215,-0.46361 0.0868,-0.0705 0.25774,0.0309 0.36556,-0.0474 0.0734,-0.0533 0.21777,0.0277 0.30127,-0.006 0.0898,-0.036 0.34018,0.0431 0.42978,0.007 0.11517,-0.0463 0.12027,-0.22811 0.19747,-0.30463 0.0924,-0.0917 0.255,-0.0805 0.38537,-0.15502 0.0851,-0.0487 0.0584,-0.27606 0.13543,-0.33628 0.0739,-0.0579 0.21335,-0.0761 0.28835,-0.13135 0.1316,-0.0969 0.38484,-0.0241 0.50805,-0.12168 0.0805,-0.0637 0.35571,-0.1305 0.41171,-0.22717 0.0772,-0.13328 -0.0661,-0.29936 0.062,-0.37518 0.0813,-0.0481 0.26753,-0.0396 0.35213,-0.0927 0.0823,-0.0516 0.0464,-0.39697 0.12348,-0.45058 0.0625,-0.0435 0.0882,-0.13323 0.17377,-0.1756 0.0785,-0.0389 0.2165,-0.0325 0.2855,-0.0302 0.079,0.003 0.11114,0.12446 0.17984,0.16099 0.0917,0.0488 0.21877,0.0172 0.32139,0.038 0.1103,0.0224 0.27595,0.009 0.36945,0.0621 0.0878,0.05 0.0835,0.24316 0.1576,0.31576 0.0719,0.0704 0.0688,0.26344 0.13723,0.34048 0.0439,0.0495 0.24932,0.0553 0.29532,0.10181 0.0587,0.0594 0.24848,0.11107 0.29748,0.17004 0.0769,0.0925 0.0149,0.29643 0.0577,0.38771 0.0322,0.0687 0.18451,-0.0202 0.26441,0.013 0.0499,0.0208 0.0227,0.15903 0.0709,0.19799 0.0413,0.0334 0.18397,-0.0196 0.22897,0.01 0.0726,0.0473 0.25236,0.0322 0.32436,0.0783 0.10497,0.0673 0.0803,0.25704 0.16127,0.33913 0.0752,0.0763 0.29847,0.0257 0.39257,0.0839 0.0909,0.0562 0.0528,0.22082 0.11488,0.31402 0.0618,0.0928 0.0891,-0.066 0.19316,-0.0871 0.0354,-0.007 0.0776,0.0415 0.11174,0.0313 0.0688,-0.0205 0.10139,-0.063 0.15219,-0.0808 0.0934,-0.0328 0.14978,-0.17542 0.24078,-0.21451 0.0707,-0.0304 0.1759,0.0426 0.2481,0.0159 0.0659,-0.0243 0.14653,-0.0167 0.19623,-0.068 0.0268,-0.0277 0.0176,-0.12267 0.0535,-0.13556 0.0654,-0.0235 0.18541,0.035 0.25441,0.0356 0.10356,9.1e-4 0.23882,-0.0569 0.2917,0.0364 0.0276,0.0487 -0.0367,0.24968 0.009,0.28372 0.0615,0.0458 0.23943,-0.006 0.30873,0.0122 0.0429,0.0113 0.12472,-0.0552 0.16972,-0.0572 0.0591,-0.003 0.10262,0.14601 0.18482,0.16255 0.0697,0.014 0.17909,-0.10124 0.22589,-0.12499 0.0703,-0.0356 0.0542,-0.20258 0.0935,-0.26673 0.037,-0.0603 0.20014,0.0131 0.22124,-0.0418 0.0302,-0.0784 -0.0945,-0.28347 -0.13941,-0.36229 -0.0253,-0.0444 -0.19228,-0.0628 -0.21258,-0.11968 -0.019,-0.054 0.003,-0.21978 -0.007,-0.27579 -0.01,-0.0552 0.0942,-0.15551 0.0922,-0.2088 -0.003,-0.0773 0.11946,-0.11042 0.11546,-0.19253 -0.003,-0.0507 -0.12252,-0.15325 -0.14532,-0.19733 -0.0274,-0.0529 -0.16475,-0.0655 -0.17475,-0.12423 -0.0121,-0.0735 0.0932,-0.21817 0.0922,-0.27667 -10e-4,-0.0543 0.0819,-0.14638 0.0819,-0.17174 0,-0.0367 0.001,-0.19853 -0.0642,-0.26404 -0.0592,-0.0594 -0.18472,-0.0199 -0.20052,-0.10336 -0.0128,-0.0673 0.13378,-0.17826 0.14148,-0.24448 0.007,-0.0627 0.13675,-0.13013 0.15377,-0.18257 0.0221,-0.0681 -0.0679,-0.1519 -0.0678,-0.22927 7e-5,-0.0759 0.0898,-0.14547 0.1334,-0.20243 0.0488,-0.0638 0.22952,-0.0858 0.30112,-0.1183 0.0671,-0.0304 0.13995,-0.10354 0.19215,-0.0824 0.0635,0.0257 0.10573,0.15251 0.18633,0.17772 0.0716,0.0224 0.19917,-0.0332 0.27847,-0.0174 0.0568,0.0113 0.1523,-0.072 0.2101,-0.0608 0.0499,0.01 0.12254,0.11928 0.17184,0.12028 0.0651,10e-4 0.17161,-0.0825 0.22242,-0.0276 0.0458,0.0494 0.0356,0.23729 0.0968,0.25138 0.0438,0.0101 0.14664,0.037 0.20634,0.004 0.0562,-0.0315 0.0694,-0.123 0.10858,-0.1288 0.0802,-0.0119 0.14404,-0.15109 0.22144,-0.17493 0.0764,-0.0235 0.12631,-0.12819 0.21241,-0.14163 0.0436,-0.007 0.12214,0.0638 0.16594,0.0701 0.0598,0.009 0.12194,0.11114 0.17614,0.0988 0.0669,-0.0153 0.12095,-0.13215 0.17325,-0.17574 0.0455,-0.038 0.0299,-0.24789 0.0667,-0.29451 0.0233,-0.0296 0.13975,0.0113 0.16852,-0.0349 0.0253,-0.0407 -0.0344,-0.16777 -0.0456,-0.20594 -0.0158,-0.0539 -0.15993,-0.0852 -0.15193,-0.13255 0.009,-0.0522 0.1351,-0.0745 0.1665,-0.11552 0.0382,-0.0499 -0.0443,-0.13627 -0.0413,-0.21823 0.003,-0.0659 0.0892,-0.12748 0.1235,-0.17523 0.0373,-0.0519 0.19812,-0.0449 0.25002,-0.0673 0.0763,-0.0331 0.22882,0.0834 0.30942,0.0788 0.0578,-0.003 0.11332,-0.005 0.14722,-0.0548 0.0163,-0.0241 -0.002,-0.10624 0.029,-0.11614 0.0386,-0.0125 0.14461,-0.0988 0.20861,-0.0774 0.053,0.0178 0.0651,0.14188 0.0937,0.15212 0.0315,0.0112 0.065,0.14065 0.0923,0.15998 0.0343,0.0246 0.007,0.18703 0.0403,0.21122 0.0512,0.0376 0.14289,-0.0208 0.18419,-0.004 0.0313,0.0129 0.0156,0.0952 0.0343,0.14554 0.0148,0.0397 0.10027,0.11096 0.10727,0.18525 0.008,0.0842 -0.0615,0.17118 -0.0315,0.20052 0.0326,0.0319 0.13759,-0.0132 0.1794,0.007 0.0741,0.0359 0.0172,0.17897 0.0691,0.24722 0.0445,0.0585 0.19711,0.0439 0.25981,0.0652 0.0569,0.0194 0.18762,-0.12672 0.24832,-0.0985 0.0584,0.0272 0.11205,0.19701 0.17775,0.20809 0.0906,0.0153 0.28644,-0.0608 0.37124,-0.0728 0.0806,-0.0114 0.13223,-0.14249 0.20673,-0.17357 0.0695,-0.029 0.11532,0.0219 0.22016,0.0428 0.0829,0.0165 0.22319,-0.0921 0.27529,-0.12453 0.0486,-0.0302 -0.006,-0.2398 0.0228,-0.28973 0.0208,-0.0366 -0.082,-0.21097 -0.0637,-0.24728 0.0216,-0.0429 0.0392,-0.16539 0.0864,-0.18127 0.0573,-0.0193 0.14585,0.0697 0.17705,0.0246 0.0408,-0.0595 -0.011,-0.21823 -0.005,-0.29571 0.005,-0.062 -0.10105,-0.20429 -0.10605,-0.26564 -0.006,-0.0826 0.0985,-0.15855 0.0905,-0.24613 -0.007,-0.0731 -0.12169,-0.15998 -0.16059,-0.21098 -0.0393,-0.0514 -0.17762,-0.0284 -0.22002,-0.0782 -0.0339,-0.0398 -0.14627,-0.0117 -0.16437,-0.0643 -0.0227,-0.0661 -0.18421,-0.10293 -0.24391,-0.1523 -0.0179,-0.0148 -0.038,-0.14863 0.0142,-0.21366 0.0476,-0.0592 0.1674,-0.0497 0.1614,-0.0708 -0.021,-0.0727 0.0916,-0.24135 0.0581,-0.29945 -0.035,-0.0606 -0.16361,-0.0312 -0.18081,-0.0973 -0.0192,-0.0738 0.073,-0.18667 0.065,-0.26273 -0.0119,-0.11332 -0.0644,-0.24637 0.0146,-0.32198 0.0489,-0.0468 0.23072,-0.0315 0.25542,-0.0966 0.0272,-0.0714 -0.0874,-0.23988 -0.0774,-0.31703 0.006,-0.0501 -0.10289,-0.14616 -0.10089,-0.19639 0.004,-0.0864 0.0177,-0.19004 -0.0655,-0.2428 -0.0453,-0.0287 -0.19718,0.003 -0.21558,-0.0436 -0.0307,-0.0783 0.10715,-0.27078 0.11315,-0.34798 0.005,-0.057 0.14866,-0.12072 0.16796,-0.17534 0.0195,-0.055 -0.0688,-0.1312 -0.0658,-0.19923 0,0 -0.23789,0.12823 -0.49661,0.10123 -0.10079,-0.0105 -0.32291,0.10318 -0.4348,0.0763 -0.11069,-0.0266 -0.14689,-0.22514 -0.24229,-0.27781 -0.0828,-0.0457 -0.21158,-0.19049 -0.30256,-0.20155 -0.11627,-0.0141 -0.19468,0.1115 -0.29349,0.0959 -0.0883,-0.0139 -0.2251,0.074 -0.31318,0.0588 -0.0928,-0.016 -0.41651,0.0674 -0.50709,0.046 -0.1192,-0.0282 -0.20176,-0.1851 -0.29822,-0.2282 -0.10924,-0.0488 -0.22762,-0.33721 -0.33138,-0.37223 -0.10199,-0.0344 -0.29781,-0.0966 -0.40669,-0.0575 -0.0885,0.0317 -0.0866,0.16689 -0.19601,0.14264 -0.10712,-0.0237 -0.41405,0.1413 -0.52104,0.11689 -0.0689,-0.0157 -0.3649,0.13092 -0.42505,0.10662 -0.0946,-0.0382 -0.33742,-0.0679 -0.39129,-0.13876 -0.0554,-0.0728 0.13025,-0.28 0.11574,-0.36163 -0.0181,-0.10192 -0.23957,-0.0745 -0.37721,-0.11203 -0.10383,-0.0283 -0.16386,-0.22621 -0.26673,-0.258 -0.0965,-0.0298 -0.20496,-0.18996 -0.30344,-0.21186 -0.10888,-0.0242 -0.25587,0.16947 -0.36519,0.1641 -0.11614,-0.006 -0.38412,0.14142 -0.49406,0.1075 -0.0944,-0.0291 -0.0532,-0.13804 -0.10952,-0.21401 -0.0589,-0.0795 -0.21531,-0.12592 -0.31918,-0.14948 -0.10631,-0.0241 -0.1917,-0.22836 -0.29918,-0.24647 -0.13973,-0.0235 -0.31371,-0.14756 -0.45622,-0.15135 -0.12546,-0.003 -0.24968,0.18913 -0.37302,0.20249 -0.0946,0.0102 -0.27502,0.15752 -0.36869,0.15246 -0.058,-0.003 -0.1152,0.11746 -0.2148,0.12754 -0.0853,0.009 -0.21456,-0.0912 -0.25663,-0.11228 -0.0489,-0.0246 0.0363,-0.19844 0.0142,-0.24089 -0.0444,-0.0849 -0.17823,-0.049 -0.29263,-0.0772 -0.0821,-0.0202 -0.32,0.0649 -0.4007,0.0398 -0.07,-0.0217 -0.31068,0.12125 -0.37691,0.0947 -0.0849,-0.0341 -0.29849,0.0545 -0.37264,0.009 -0.0652,-0.0402 -0.28059,-0.0382 -0.33518,-0.0889 -0.0861,-0.0799 -0.0415,-0.24367 -0.0983,-0.3389397 -0.0517,-0.0867 -0.003,-0.29024 -0.0736,-0.35929 -0.0551,-0.0542 -0.12052,-0.16548 -0.21252,-0.17945 -0.12171,-0.0185 -0.27782,0.0685 -0.39875,0.0454 -0.095,-0.0181 -0.19596,-0.12841 -0.29194,-0.13776 -0.10222,-0.01 -0.26951,-0.14688 -0.37216,-0.14394 -0.0943,0.003 -0.17463,0.21105 -0.26395,0.23035 -0.0514,0.0111 -0.0667,0.16594 -0.12644,0.20381 -0.0843,0.0534 -0.21412,-0.008 -0.28624,-0.0121 -0.0739,-0.004 -0.0703,-0.15498 -0.13656,-0.19853 -0.091,-0.0598 -0.25148,-0.0175 -0.35922,-0.0283 -0.0986,-0.01 -0.2619,0.16851 -0.36034,0.15698 -0.10784,-0.0126 -0.35797,0.12025 -0.46024,0.09 -0.1116,-0.0331 -0.31312,0.0713 -0.40084,0.006 -0.066,-0.0491 -0.21679,-0.0651 -0.26306,-0.14325 -0.0306,-0.0518 0.0898,-0.21623 0.0749,-0.27454 -0.0238,-0.0931 -0.18353,-0.0746 -0.27566,-0.0944 -0.0641,-0.0138 -0.24152,0.1284 -0.30535,0.1134 -0.0919,-0.0216 -0.27844,0.11448 -0.36586,0.0853 -0.0872,-0.0291 -0.33724,0.0367 -0.4169,-0.005 -0.0857,-0.045 -0.39253,0.0722 -0.46125,0.0113 -0.0499,-0.0442 -0.29815,-0.0602 -0.32919,-0.11885 -0.0357,-0.0675 -0.17513,-0.16076 -0.17754,-0.23825 -0.002,-0.063 0.0904,-0.12461 0.10671,-0.18103 0.0337,-0.11649 -0.01,-0.21089 -0.14641,-0.25019 -0.0712,-0.0205 -0.12019,-0.12491 -0.19052,-0.14975 -0.1058,-0.0374 -0.21341,-0.15521 -0.32221,-0.18144 -0.10529,-0.0254 -0.2495,-0.12242 -0.35646,-0.11767 -0.1114,0.005 -0.18558,0.11208 -0.29754,0.10317 -0.0704,-0.006 -0.21095,-0.16366 -0.28113,-0.16174 -0.0868,0.002 -0.14424,0.10664 -0.22712,0.1257 -0.0842,0.0194 -0.21143,-0.0183 -0.29548,0.004 -0.0908,0.0242 -0.15058,0.14655 -0.2363,0.17796 -0.0885,0.0325 -0.17082,0.14373 -0.26644,0.15099 -0.11299,0.009 -0.24034,-0.0896 -0.35719,-0.0809 -0.10767,0.008 -0.20071,0.11973 -0.31024,0.13362 -0.0825,0.0105 -0.14517,-0.11809 -0.22959,-0.12392 -0.0594,-0.004 -0.18034,-0.0749 -0.24226,-0.0678 -0.13843,0.0157 -0.21929,0.11801 -0.34142,0.0797 -0.0738,-0.0231 -0.1182,-0.17064 -0.18751,-0.20386 -0.0569,-0.0273 -0.086,-0.20637 -0.14128,-0.23497 -0.0692,-0.0358 -0.0627,-0.33062 -0.13126,-0.35837 -0.0714,-0.0289 -0.18064,-0.16942 -0.25892,-0.16679 -0.0403,0.001 -0.0658,0.0993 -0.10677,0.14298 -0.0466,0.0497 -0.10837,0.0467 -0.14971,0.0629 -0.10369,0.0406 -0.1891,-0.0662 -0.27771,-0.14933 -0.0502,-0.0471 -0.29296,0.0337 -0.3398,-0.0165 -0.0573,-0.0614 -0.27186,-0.076 -0.31288,-0.14923 -0.0309,-0.055 0.0396,-0.1578 0.0238,-0.21987 -0.0176,-0.0691 0.0897,-0.24648 0.0711,-0.31485 -0.0213,-0.0782 -0.006,-0.22389 -0.0586,-0.27681 -0.0399,-0.0399 -0.11688,-0.005 -0.17698,-0.0208 -0.0575,-0.0152 -0.0982,-0.0812 -0.13568,-0.12544 -0.0474,-0.0559 -0.1561,-0.0626 -0.1987,-0.12517 -0.0351,-0.0516 0.0361,-0.23104 0.006,-0.28717 -0.0302,-0.0563 0.0201,-0.25056 -0.0205,-0.29319 -0.0375,-0.0393 -0.0883,-0.14396 -0.14512,-0.15335 -0.11418,-0.0189 -0.25245,0.0844 -0.35459,0.0378 -0.0726,-0.0331 -0.14959,-0.17111 -0.22953,-0.19708 -0.0365,-0.0119 -0.10944,0.0228 -0.15001,0.0825 -0.0321,0.0472 -0.0319,0.12225 -0.0622,0.11725 -0.066,-0.0109 -0.21373,0.0567 -0.28051,0.043 -0.0867,-0.0178 -0.18401,0.0176 -0.26118,-0.005 -0.083,-0.0241 -0.14271,-0.12535 -0.21539,-0.14701 -0.0666,-0.0198 -0.15185,-0.0469 -0.22028,-0.0189 -0.0517,0.0212 -0.15174,0.004 -0.20139,0.0386 -0.0421,0.0297 -0.24219,0.0451 -0.26013,0.0953 -0.0207,0.0581 -0.076,0.16203 -0.0561,0.23793 0.0216,0.0824 0.15361,0.0911 0.19105,0.16402 0.0356,0.0692 -0.0221,0.20315 -0.0477,0.25891 -0.0222,0.0483 0.0216,0.16846 3.7e-4,0.2185 -0.018,0.0424 0.0886,0.13627 0.093,0.224 0.004,0.0782 -0.0933,0.15146 -0.12014,0.17899 -0.0355,0.0364 -0.094,-0.0852 -0.16503,-0.10684 -0.0546,-0.0166 -0.12323,0.0634 -0.15393,0.0903 -0.0388,0.0341 -0.13396,-0.0103 -0.17691,0.0183 -0.0468,0.0312 0.009,0.25671 -0.0385,0.28684 -0.0546,0.0347 -0.1014,0.14518 -0.16886,0.15489 -0.0736,0.0106 -0.1229,-0.0648 -0.20525,-0.0848 -0.0549,-0.0134 -0.12833,-0.0582 -0.18932,-0.0542 -0.0669,0.004 -0.121,0.0585 -0.17184,0.0679 -0.0868,0.0161 -0.14225,0.1294 -0.23727,0.14856 -0.094,0.019 -0.23193,0.10613 -0.33071,0.0993 -0.0914,-0.006 -0.0922,-0.10145 -0.16644,-0.14932 -0.082,-0.0528 -0.23587,-0.061 -0.30267,-0.12017 -0.0492,-0.0436 -0.0181,-0.1345 -0.0388,-0.20021 -0.0161,-0.0511 -0.0927,-0.11823 -0.10555,-0.16874 -0.0218,-0.0859 0.0283,-0.15437 0.058,-0.23602 0.0271,-0.0744 0.11891,-0.10665 0.17335,-0.16441 0.0395,-0.0419 0.12742,-0.0482 0.17562,-0.0848 0.0589,-0.0446 0.0787,-0.20035 0.14289,-0.24168 0.069,-0.0444 0.14152,-0.15828 0.21322,-0.19433 0.0624,-0.0314 0.15667,-0.0353 0.21509,-0.0597 0.0801,-0.0334 0.12644,-0.14937 0.17983,-0.19464 0.0729,-0.0618 0.14029,-0.0617 0.15315,-0.18401 0.009,-0.0824 0.0925,-0.20901 0.0629,-0.28965 -0.018,-0.049 -0.003,-0.22479 -0.0381,-0.26809 -0.037,-0.0455 -0.13908,0.008 -0.19305,-0.0174 -0.0529,-0.0249 -0.0613,-0.12392 -0.11183,-0.15325 -0.0894,-0.0519 -0.21875,-0.0351 -0.30326,-0.071 -0.0587,-0.0249 -0.13523,-0.12868 -0.19668,-0.13963 -0.0714,-0.0127 -0.14375,0.0616 -0.21678,0.0688 -0.11181,0.011 -0.21431,0.13572 -0.32762,0.16419 -0.0624,0.0157 -0.15814,-0.0451 -0.22158,-0.0381 -0.0768,0.008 -0.19497,-0.008 -0.26313,0.0163 -0.075,0.0273 -0.0995,0.0972 -0.17861,0.12292 -0.085,0.0277 -0.22659,-0.0105 -0.30194,0.0409 -0.0499,0.034 -0.16855,0.004 -0.20575,0.0537 -0.0503,0.0672 -0.0189,0.21283 -0.0973,0.22948 -0.054,0.0115 -0.12428,-0.0603 -0.17852,-0.0529 -0.0789,0.0107 -0.17955,-0.16005 -0.25865,-0.15518 -0.12825,0.008 -0.24504,-0.11374 -0.37232,-0.10634 -0.12222,0.007 -0.26636,-0.11394 -0.38921,-0.0973 -0.11113,0.0151 -0.36119,-0.0756 -0.4703,-0.0436 -0.0902,0.0264 -0.0838,0.14402 -0.15338,0.18764 -0.0602,0.0377 -0.0989,0.13859 -0.17532,0.15412 -0.10319,0.021 -0.24852,-0.0514 -0.35735,-0.0593 -0.0979,-0.007 -0.14201,-0.20086 -0.24019,-0.21284 -0.0862,-0.0105 -0.16804,0.0568 -0.25611,0.0505 -0.0913,-0.007 -0.21598,0.1005 -0.30883,0.0947 -0.0811,-0.005 -0.16697,0.0354 -0.24696,0.0259 -0.0808,-0.01 -0.16626,-0.14187 -0.24574,-0.15632 -0.1164,-0.0212 -0.25769,-0.14927 -0.37115,-0.14331 -0.0764,0.004 -0.21161,-0.053 -0.28153,-0.0139 -0.082,0.0458 -0.0985,0.18929 -0.18849,0.20407 -0.049,0.008 -0.18829,-0.0867 -0.23477,-0.0699 -0.06,0.0217 -0.17857,0.0333 -0.22899,0.0722 -0.0487,0.0375 -0.0515,0.14141 -0.0895,0.18664 -0.0463,0.0551 -0.0377,0.18456 -0.095,0.21681 -0.0645,0.0363 -0.1967,-0.0275 -0.28075,-0.0168 -0.073,0.009 -0.16894,0.11937 -0.24392,0.12442 -0.0646,0.004 -0.18333,0.11282 -0.24785,0.10972 -0.10015,-0.005 -0.17452,-0.11755 -0.26751,-0.1491 -0.0682,-0.0231 -0.17948,0.0624 -0.24714,0.0394 -0.0693,-0.0236 -0.31051,-0.0245 -0.37117,-0.0689 -0.0398,-0.0292 10e-4,-0.10954 -0.006,-0.14784 -0.0113,-0.0624 -0.0605,-0.0846 -0.12914,-0.12373 -0.0534,-0.0304 -0.036,-0.14852 -0.0792,-0.19053 -0.0482,-0.0469 -0.002,-0.28064 -0.045,-0.33253 -0.0251,-0.0299 -0.0585,-0.14061 -0.0462,-0.24034 0.0113,-0.0911 0.0689,-0.17219 0.0427,-0.19209 -0.0573,-0.0436 -0.19119,0.10712 -0.27826,0.11835 -0.0531,0.007 -0.17278,0.0706 -0.21944,0.0559 -0.0899,-0.0284 -0.0991,-0.15794 -0.17405,-0.21263 -0.0518,-0.0378 -0.0745,-0.20525 -0.13213,-0.23341 -0.0645,-0.0315 -0.13281,-0.14208 -0.2036,-0.16099 -0.0958,-0.0256 -0.2071,0.0588 -0.30927,0.0521 -0.10327,-0.007 -0.15363,-0.14799 -0.2564,-0.1577 -0.0994,-0.009 -0.18089,-0.139 -0.28193,-0.14112 -0.0853,-0.002 -0.13989,0.18594 -0.22279,0.19686 -0.0551,0.007 -0.20536,0.0447 -0.2614,0.009 -0.0846,-0.0533 -0.0719,-0.1966 -0.12578,-0.25655 -0.0426,-0.0475 -0.12628,-0.0935 -0.14148,-0.15515 -0.015,-0.0609 0.069,-0.16065 0.0739,-0.2286 0.007,-0.10435 -0.062,-0.17782 -0.10524,-0.26443 -0.0311,-0.0624 0.0198,-0.22175 -0.0264,-0.27541 -0.0344,-0.04 -0.18853,-0.0203 -0.23239,-0.0517 -0.0639,-0.0457 -0.26118,-0.043 -0.3106,-0.0922 -0.0389,-0.0387 -0.0969,-0.10432 -0.0977,-0.15868 -10e-4,-0.0747 0.0629,-0.14271 0.0405,-0.22144 -0.0162,-0.057 0.12282,-0.14491 0.1408,-0.20674 0.0182,-0.0625 0.11201,-0.14764 0.10223,-0.2029 -0.0125,-0.0707 -0.1362,-0.10969 -0.17823,-0.17373 -0.0149,-0.0228 -0.006,-0.13863 -0.0265,-0.15399 -0.0418,-0.0314 -0.11834,0.0155 -0.17896,0.0181 -0.12331,0.005 -0.24854,-0.003 -0.35633,-0.0369 -0.0914,-0.029 -0.13062,-0.19918996 -0.23142,-0.21510996 -0.10676,-0.0169 0.0157,-0.32849 -0.0981,-0.32635 -0.1088,0.002 -0.18196,-0.13391 -0.33179,-0.0783 -0.10883,0.0404 -0.0192,-0.1682 -0.0435,-0.29268 -0.0178,-0.0913 -0.15439,-0.0949 -0.18638,-0.13547 -0.11176,-0.1419 -0.16871,0.1753 -0.34028,0.11883 -0.13105,-0.0431 -0.0854,0.17516 -0.18312,0.26929 -0.077,0.0741 0.0553,0.36652 -0.0348,0.45274 -0.0575,0.055 -0.21438,-0.0126 -0.30648,0.0102 -0.1636,0.0406 -0.27424,0.15742996 -0.33985,0.26163996 -0.0302,0.048 -0.25361,0.0137 -0.2735,0.068 -0.0204,0.0556 -0.21902,0.12964 -0.21645,0.19574 0.003,0.0678 -0.0625,0.22379 -0.0261,0.29082 0.0708,0.13065 0.25483,0.16526 0.17038,0.24484 -0.0495,0.0466 -0.16579,-0.004 -0.23244,0.0138 -0.0987,0.0266 -0.15297,0.11387 -0.2429,0.15909 -0.0817,0.0411 -0.19581,-0.009 -0.27675,0.0353 -0.0895,0.0486 -0.12057,0.24924 -0.20237,0.31592 -0.0658,0.0536 -0.27228,-0.0333 -0.34398,7.2e-4 -0.11633,0.0551 -0.0982,0.22557 -0.19238,0.3178 -0.0737,0.0721 6e-5,0.29509 -0.0565,0.38163 -0.0454,0.0696 -0.10709,0.0398 -0.18704,0.073 -0.0653,0.0272 -0.15009,0.11617 -0.1886,0.1719 -0.0468,0.0677 -0.21313,0.0719 -0.25072,0.15062 -0.0293,0.0615 0.0957,0.16947 0.0884,0.23993 -0.009,0.089 -0.15271,0.13747 -0.22656,0.1712 -0.0665,0.0304 -0.15253,0.13347 -0.22442,0.13993 -0.0575,0.005 -0.14176,0.1325 -0.24277,0.16118 -0.10258,0.0291 -0.22188,-0.0406 -0.28097,-0.0645 -0.0558,-0.0225 0.002,-0.1551 -0.0211,-0.21194 -0.0352,-0.0876 -0.14228,-0.10675 -0.22463,-0.13272 -0.0524,-0.0165 0.006,-0.18186 -0.0425,-0.21178 -0.0538,-0.0334 -0.0895,-0.22262 -0.14893,-0.25288 -0.0667,-0.034 -0.14396,0.0757 -0.21777,0.0719 -0.0739,-0.004 -0.11081,-0.13317 -0.18434,-0.15335 -0.0798,-0.0219 -0.1961,0.0656 -0.27074,0.0708 -0.0811,0.006 -0.25656,-0.0708 -0.32422,-0.0312 -0.0563,0.0329 -0.25515,0.0531 -0.29821,0.10812 -0.0534,0.0682 0.038,0.25993 0.0154,0.34422 -0.0259,0.0968 -0.16112,0.0886 -0.25998,0.0299 -0.0584,-0.0346 -0.076,-0.13612 -0.12691,-0.11077 -0.0679,0.0338 -0.20485,0.01 -0.27114,0.0619 -0.0598,0.0471 -0.22869,0.0547 -0.28229,0.11354 -0.0503,0.0552 -0.0187,0.25204 -0.0538,0.31249 -0.0825,0.14224 -0.21559,0.14196 -0.36508,0.16566 -0.0792,0.0126 -0.15879,0.11586 -0.23872,0.12593 -0.1106,0.0139 -0.30281,0.0987 -0.41418,0.0956 -0.12766,-0.004 -0.20072,-0.13562 -0.30981,-0.17032 -0.12886,-0.041 -0.29305,0.0134 -0.44168,-0.008 -0.0875,-0.0126 -0.11335,-0.14094 -0.19733,-0.1737 -0.0795,-0.031 -0.20851,-0.0339 -0.26553,-0.0968 -0.0486,-0.0535 -0.0241,-0.16837 -0.0964,-0.18921 -0.0967,-0.0279 -0.24429,-0.086 -0.36511,-0.0698 -0.1276,0.0172 -0.22847,0.10987 -0.32883,0.11896 -0.0873,0.008 -0.24617,-0.0267 -0.32031,0.0265 -0.0555,0.0398 -0.019,0.24055 -0.0611,0.29637 -0.0855,0.11366 -0.24132,0.0854 -0.37484,0.0876 -0.0644,0.001 -0.18183,0.0685 -0.24405,0.0529 -0.0841,-0.021 -0.0788,-0.21532 -0.14971,-0.26956 -0.0637,-0.0487 -0.12424,-0.13947 -0.20123,-0.16399 -0.0912,-0.0291 -0.19897,0.009 -0.26926,-0.0515 -0.0398,-0.0341 0.0377,-0.13488 0.0648,-0.22475 0.0202,-0.0667 -0.007,-0.12496 -0.0277,-0.15831 -0.0311,-0.0498 0.004,-0.34598 -0.0422,-0.38363 -0.0673,-0.0548 -0.18391,-0.12854 -0.28136,-0.11486 -0.11741,0.0165 -0.21675,0.12321 -0.29702,0.0605 -0.0459,-0.0358 -0.048,-0.17667 -0.10144,-0.21022 -0.10987,-0.0689 -0.28003,-0.0156 -0.3955,0.0158 -0.12218,0.0332 -0.13419,0.18311 -0.21203,0.27983 -0.0555,0.069 -0.20588,0.10644 -0.25897,0.1839 -0.058,0.0845 -0.20452,0.14466 -0.24796,0.23557 -0.0356,0.0744 -0.002,0.1774 -0.0187,0.25247 -0.0168,0.0753 -0.0839,0.12263 -0.14815,0.17174 -0.057,0.0436 -0.0687,0.1581 -0.13153,0.1931 -0.0763,0.0425 -0.18422,-0.0494 -0.27436,-0.0296 -0.0602,0.0132 -0.21082,-0.0732 -0.26877,-0.0427 -0.0954,0.0502 -0.0966,0.22332 -0.18958,0.24657 -0.0761,0.019 -0.16359,-0.0724 -0.24067,-0.0579 -0.11505,0.0216 -0.20341,0.17957 -0.31908,0.20205 -0.11365,0.0221 -0.26252,0.14449 -0.38021,0.14638 -0.13219,0.002 -0.34436,0.0754 -0.46934,0.0401 -0.12681,-0.0358 -0.16641,-0.18027 -0.29757,-0.17932 -0.0734,5.3e-4 -0.17923,0.10537 -0.2527,0.0996 -0.14781,-0.0116 -0.23361,-0.19942 -0.37754,-0.23579 -0.0729,-0.0184 -0.25072,-0.26925 -0.32718,-0.27798 -0.10425,-0.0119 -0.35482,-0.1426 -0.44524,-0.10193 -0.0615,0.0277 -0.24565,0.0189 -0.27894,0.08 -0.0564,0.10363 0.0475,0.28674 -0.0685,0.30641 -0.0781,0.0132 -0.17432,-0.0898 -0.24702,-0.0487 -0.0753,0.0426 -0.20614,0.0469 -0.2763,0.1143 -0.0601,0.0578 -0.0201,0.28226 -0.0706,0.34406 -0.0482,0.059 -0.11966,0.13546 -0.19496,0.12897 -0.0703,-0.006 -0.14389,-0.0927 -0.20501,-0.10651 -0.0956,-0.0216 -0.0639,-0.13834 -0.12303,-0.23371 -0.0282,-0.0454 0.0298,-0.22415 5.8e-4,-0.27412 -0.0262,-0.0449 -0.0182,-0.19955 -0.0506,-0.23663 -0.074,-0.0845 -0.17212,-0.0474 -0.2748,-0.0547 -0.0422,-0.003 -0.0851,-0.12295 -0.12751,-0.13403 -0.0551,-0.0144 -0.17936,-0.006 -0.22945,0.004 -0.0703,0.0139 -0.0634,0.1064 -0.0946,0.1622 -0.0356,0.0637 -0.0206,0.15286 -0.0292,0.24686 -0.007,0.0749 -0.12325,0.12367 -0.12644,0.20624 -0.003,0.0829 -0.15409,0.16438 -0.14883,0.24894 0.002,0.0396 0.0246,0.15447 0.0872,0.19268 0.0525,0.032 0.14624,-0.0123 0.15624,0.0178 0.0206,0.0619 0.032,0.19454 -0.0113,0.2429 -0.0453,0.0506 -0.14705,0.0162 -0.19508,0.0436 -0.0774,0.0442 -0.16934,0.11196 -0.25314,0.11361 -0.079,0.002 -0.2193,0.0228 -0.30132,-0.004 -0.0843,-0.028 -0.12642,-0.16251 -0.20479,-0.20976 -0.0812,-0.049 -0.13618,-0.1378 -0.22553,-0.16435 -0.10696,-0.0318 -0.24919,0.002 -0.35479,-0.016 -0.10032,-0.0173 -0.17993,-0.16446 -0.28136,-0.17523 -0.10796,-0.0115 -0.18908,0.10377 -0.30205,0.12414 -0.11431,0.0206 -0.26046,-0.0537 -0.36726,-0.0785 -0.0844,-0.0196 -0.10754,-0.20776 -0.18927,-0.237 -0.0772,-0.0276 -0.13717,-0.18447 -0.22082,-0.19515 -0.0782,-0.01 -0.24262,-0.0638 -0.32663,-0.0422 -0.13116,0.0337 -0.18291,0.15035 -0.30037,0.12862 -0.0511,-0.01 -0.10306,0.0174 -0.15564,0.0149 -0.0965,-0.005 -0.27604,-0.13076 -0.37513,-0.12441 -0.0969,0.006 -0.18291,0.12726 -0.27071,0.14746 -0.062,0.0143 -0.11514,-0.0658 -0.12052,-0.16615 -0.004,-0.0685 0.0467,-0.16663 0.007,-0.1711 -0.0573,-0.006 -0.0279,-0.21244 -0.0905,-0.29915 -0.0722,-0.0999 -0.23642,-0.0839 -0.30145,-0.11992 -0.0957,-0.053 -0.18849,-0.13327 -0.26492,-0.1166 -0.10083,0.022 -0.25545,0.0663 -0.39947,0.0572 -0.0823,-0.005 -0.28302,-0.0218 -0.32583,0.0522 -0.0374,0.0646 -0.0895,0.15212 -0.0941,0.24855 -0.003,0.0659 0.15351,0.23144 0.15466,0.29377 0.002,0.0974 -0.1581,0.0829 -0.22625,0.1185 -0.0626,0.0327 -0.1717,-0.0429 -0.23983,-0.0288 -0.0483,0.01 -0.0672,-0.13173 -0.1564,-0.1772 -0.0889,-0.0453 -0.24808,0.006 -0.29667,0.0115 -0.0805,0.01 -0.27736,0.005 -0.33282,0.0479 -0.1075,0.0831 -0.0561,0.24065 -0.20582,0.29787 -0.0393,0.015 -0.21409,-0.0765 -0.25335,-0.0584 -0.0679,0.0314 -0.22519,0.0581 -0.2552,0.12566 -0.0358,0.0806 0.0592,0.20577 0.0116,0.27841 -0.033,0.0503 -0.10038,0.10945 -0.10549,0.17216 -0.006,0.0678 0.18579,0.16146 0.19592,0.23088 0.0148,0.10146 -0.15495,0.17579 -0.22007,0.24514 -0.0412,0.0439 -0.0758,0.24977 -0.13212,0.28101 -0.0676,0.0375 -0.23826,0.10751 -0.31835,0.0846 -0.10104,-0.0289 -0.11232,-0.16086 -0.19771,-0.19278 -0.053,-0.0198 -0.18483,0.0801 -0.22471,0.0431 -0.0664,-0.0615 -0.16878,-0.16859 -0.19734,-0.2818 -0.0191,-0.0756 0.0645,-0.20939 0.0614,-0.28568 -0.004,-0.0996 -0.0949,-0.13934 -0.13631,-0.21021 -0.0393,-0.0673 0.0755,-0.20598 0.0517,-0.28643 -0.0245,-0.083 -0.0161,-0.27703 -0.0841,-0.3359 -0.0706,-0.061 -0.21853,0.014 -0.2917,-0.0258 -0.0522,-0.0284 -0.095,-0.18423 -0.14969,-0.19862 -0.0846,-0.0222 -0.20468,-0.12778 -0.29459,-0.11733 -0.0893,0.0104 -0.39013,-0.0696 -0.48079,-0.0316 -0.0915,0.0383 -0.0766,0.19706 -0.14685,0.25885 -0.0842,0.0741 -0.10086,0.2393 -0.19911,0.28663 -0.12595,0.0607 -0.33742,-0.006 -0.47906,-0.004 -0.0971,0.002 -0.15642,-0.21549 -0.25348,-0.21935 -0.0908,-0.004 -0.17946,-0.22793 -0.27485,-0.20827 -0.0736,0.0152 -0.37537,-0.0972 -0.45035,-0.0453 -0.05,0.0346 0.0371,0.12137 0.0195,0.17858 -0.0369,0.11996 -0.14888,0.22008 -0.24629,0.20953 -0.0561,-0.006 -0.18771,0.14388 -0.24365,0.13669 -0.10215,-0.0131 -0.32137,0.039 -0.42051,0.0176 -0.075,-0.0162 -0.13107,-0.21378 -0.20147,-0.23521 -0.0713,-0.0217 -0.16803,-0.24157 -0.23675,-0.26003 -0.0903,-0.0243 -0.2910002,-0.24079 -0.3772402,-0.2441 -0.0875,-0.003 -0.15305,0.15484 -0.22646,0.18829 -0.0808,0.0368 -0.21983,-0.10025 -0.30701,-0.0917 -0.0987,0.01 -0.14775,0.16191 -0.27857,0.15237 -0.0693,-0.005 -0.15502,-0.25348 -0.22469,-0.25843 -0.0544,-0.004 -0.0255,-0.18585 -0.1176,-0.23571 -0.0643,-0.0348 -0.25406,0.0529 -0.29123,0.0647 -0.0642,0.0204 -0.2007,-0.0131 -0.24574,0.0433 -0.0377,0.0472 -0.0154,0.12387 -0.0352,0.18793 -0.0307,0.0995 -0.10179,0.18382 -0.18556,0.19817 -0.0731,0.0125 -0.1661,-0.0337 -0.23651,-0.0113 -0.11526,0.0367 -0.20246,0.18676 -0.31049,0.24771 -0.0852,0.048 -0.19278,-0.0225 -0.28573,-0.006 -0.0739,0.0135 -0.13263,0.11623 -0.20616,0.13576 -0.0423,0.0112 -0.0339,-0.10422 -0.0765,-0.17833 -0.0407,-0.071 -0.13222,-0.10048 -0.18112,-0.10317 -0.0364,-0.002 -0.13398,-0.11544 -0.25635,-0.13272 -0.0947,-0.0134 -0.21935,0.0633 -0.24662,0.0892 -0.0238,0.0226 -0.0245,0.0685 -0.0547,0.11492 -0.0349,0.0536 -0.0966,0.10965 -0.0743,0.16046 0.016,0.0366 0.0671,0.0942 0.0818,0.16341 0.0197,0.0928 -1.1e-4,0.19795 -0.0103,0.21914 -0.0353,0.0734 0.0653,0.0744 0.12441,0.12079 0.0402,0.0316 0.12841,0.0246 0.18029,0.0572 0.0775,0.0487 0.0999,0.12156 0.15005,0.19145 0.0492,0.0685 0.12697,0.13359 0.11885,0.21431 -0.005,0.046 0.0398,0.16195 0.0206,0.20309 -0.0229,0.0491 -0.0326,0.16929 -0.0767,0.20401 -0.0367,0.0289 -0.13508,-0.0388 -0.18271,-0.0268 -0.0947,0.0238 -0.14666,0.1147 -0.21951,0.16975 -0.0388,0.0293 -0.17445,-0.10857 -0.22158,-0.0903 -0.0444,0.0172 -0.22611,-0.0977 -0.2694,-0.0772 -0.0515,0.0244 -0.16855,0.0109 -0.20232,0.0542 -0.0429,0.055 0.002,0.13204 -0.009,0.21212 -0.0138,0.0955 -0.0825,0.19544 -0.1224,0.26785 -0.0361,0.0656 -0.01,0.13098 -0.006,0.20263 0.004,0.0823 0.10112,0.16827 0.12632,0.25586 0.0279,0.097 0.0803,0.19604 0.0844,0.29441 0.004,0.0968 -0.0399,0.19299 -0.052,0.28599 -0.007,0.0513 -0.0884,0.0936 -0.10216,0.14622 -0.0275,0.10512 -6.3e-4,0.21669 -0.0812,0.28155 -0.0574,0.0462 -0.0779,0.18843 -0.14923,0.21901 -0.0651,0.0279 -0.18566,0.13209 -0.26314,0.12878 -0.071,-0.003 -0.0804,-0.0991 -0.13987,-0.13952 -0.0647,-0.0439 -0.17901,-0.0331 -0.2422,-0.0555 -0.0936,-0.0332 -0.0944,-0.17368 -0.14932,-0.27775 -0.0272,-0.0516 0.0255,-0.22347 -0.003,-0.27525 -0.0154,-0.0279 -0.087,-0.0633 -0.10193,-0.10933 -0.0291,-0.0896 -0.003,-0.19821 -0.0501,-0.22154 -0.0497,-0.0248 -0.12976,-0.0503 -0.19144,-0.0149 -0.0572,0.0328 -0.0958,0.12541 -0.1458,0.13494 -0.0631,0.012 -0.19106,-0.0547 -0.22211,-0.008 -0.0236,0.0354 -0.12464,0.11318 -0.13131,0.16789 -0.007,0.0556 -0.1203,0.22427 -0.11026,0.28846 0.0102,0.0649 0.18636,0.0873 0.21644,0.13902 0.0313,0.0538 0.11906,0.16359 0.10462,0.21811 -0.0156,0.0587 -0.13557,0.062 -0.16293,0.11133 -0.0403,0.0727 -0.0495,0.20958 -0.0964,0.27942 -0.0431,0.0642 -0.0207,0.30599 -0.0752,0.35549 -0.0405,0.0368 -0.10991,-0.10341 -0.16773,-0.10567 -0.0889,-0.004 -0.1713,0.12114 -0.24129,0.17354 -0.0376,0.0281 -0.16034,-0.0364 -0.2001,-0.0106 -0.0693,0.0451 -0.21759,-2.6e-4 -0.28112,0.0485 -0.0626,0.0481 -0.0392,0.18629 -0.0861,0.24641 -0.0586,0.0752 -0.18822,0.0693 -0.28827,0.0823 -0.0644,0.008 -0.14824,0.0906 -0.21325,0.082 -0.0643,-0.009 -0.10902,-0.19435 -0.17249,-0.21718 -0.0559,-0.0201 -0.11598,-0.12568 -0.17243,-0.14052 -0.0836,-0.022 -0.19771,-0.17174 -0.28061,-0.16507 -0.0635,0.005 -0.24734999,-0.0607 -0.30367999,-0.0153 -0.0777,0.0626 -0.0267,0.24351 -0.11032,0.27272 -0.0567,0.0198 -0.20197,-0.0997 -0.25158,-0.0632 -0.0463,0.034 -0.20051,0.023 -0.22495,0.0903 -0.0194,0.0533 -0.10088,0.14357 -0.0895,0.21574 0.0161,0.10218 0.1301,0.18733 0.1077,0.24607 -0.0198,0.052 0.0797,0.11261 0.0685,0.16644 -0.012,0.0578 -0.1333,0.16981 -0.14231,0.2288697 -0.008,0.054 -0.17583,0.16784 -0.17552,0.21972 4.1e-4,0.067 0.11191,0.10865 0.14094,0.16684 0.0266,0.0534 -0.0505,0.16452 -0.0318,0.21987 0.0325,0.0962 0.15385,0.13979 0.17082,0.25104 0.0106,0.0692 -0.0545,0.18828 -0.0418,0.25765 0.0158,0.0864 -0.0288,0.2449 9.4e-4,0.32443 0.0211,0.0563 0.1805,0.0743 0.2143,0.11957 0.0318,0.0426 0.10189,0.0867 0.11413,0.13252 0.0198,0.0739 -0.0252,0.15205 0.018,0.23527 0.028,0.0539 -0.009,0.20499 0.0247,0.25507 0.0283,0.0418 0.0416,0.18987 0.0767,0.22429 0.0325,0.0319 0.17124,-7.1e-4 0.20863,0.0199 0.0521,0.0288 0.27004999,0.007 0.30824999,0.0383 0.0371,0.03 0.0794,0.0772 0.0668,0.12834 -0.0105,0.0427 -0.0778,0.0881 -0.0434,0.12849 0.0309,0.0363 0.0364,0.17848 0.0695,0.21307 0.0381,0.0397 0.0399,0.16764 0.0809,0.20167 0.0567,0.0471 0.072,0.18323 0.13385,0.21638 0.0291,0.0156 0.0709,-0.0425 0.13303,-0.0613 0.0514,-0.0155 0.12391,0.008 0.14997,0.0146 0.0462,0.012 0.2432,-0.0223 0.26918,0.008 0.0258,0.0303 0.0438,0.0907 0.0206,0.14695 -0.0221,0.0536 -0.0855,0.10275 -0.0626,0.14649 0.0281,0.0535 0.0908,0.0982 0.10694,0.15604 0.0151,0.054 -0.061,0.11792 -0.0562,0.17524 0.005,0.0555 -0.0656,0.17575 -0.048,0.23057 0.0122,0.0378 0.0216,0.0871 0.0527,0.11119 0.0438,0.0339 0.11189,0.0404 0.12781,0.0909 0.0145,0.0459 0.0623,0.0734 0.0754,0.12043 0.011,0.0396 0.15103,0.0799 0.16079,0.1204 0.0109,0.0452 -0.0548,0.0984 -0.0502,0.14394 0.004,0.0441 -0.0973,0.11078 -0.091,0.15395 0.007,0.0493 -0.0294,0.12284 -0.006,0.1677 0.0277,0.054 -0.0281,0.18375 0.0236,0.22699 0.0257,0.0215 0.0882,-0.0554 0.13412,-0.0507 0.068,0.007 0.12222,0.0921 0.15086,0.12567 0.0211,0.0248 0.026,0.12021 0.052,0.14151 0.0341,0.0279 0.13366,-0.0105 0.17442,0.009 0.0439,0.0206 0.18994,-0.009 0.23127,0.0113 0.0537,0.0262 0.1393,-0.0113 0.16488,0.0255 0.034,0.0488 0.003,0.17303 0.0496,0.21031 0.0307,0.0246 0.0288,0.11773 0.0869,0.15625 0.0504,0.0334 0.0573,0.13754 0.12239,0.17544 0.0418,0.0244 0.14837,-0.0212 0.19536,0.002 0.0384,0.0188 0.23632,-0.006 0.27246,0.0164 0.0515,0.0322 0.16117,0.0305 0.18456,0.0753 0.0174,0.0333 0.0781,0.093 0.0766,0.13615 -0.003,0.0858 -0.0825,0.16275 -0.0521,0.23306 0.015,0.0347 -0.0155,0.0967 -0.007,0.13255 0.0136,0.0568 0.082,0.12578 0.0847,0.18378 0.003,0.0578 0.0754,0.15771 0.0678,0.21573 -0.009,0.0715 0.0292,0.18596 0.005,0.25325 -0.0165,0.0454 -0.13033,0.0765 -0.15336,0.11696 -0.0238,0.0417 -0.0996,0.0994 -0.10626,0.14179 -0.0124,0.079 0.0618,0.14519 0.0787,0.23928 0.0155,0.0859 -0.035,0.19343 -0.0109,0.27832 0.0197,0.0692 -0.0218,0.25475 0.0125,0.31942 0.0295,0.0556 0.15316,-0.003 0.20028,0.0305 0.0452,0.032 0.14675,0.0653 0.17085,0.1232 0.0208,0.05 -0.0354,0.12376 -0.006,0.16518 0.0342,0.0485 0.0221,0.1905 0.0686,0.24069 0.0288,0.0311 0.0279,0.21724 0.0611,0.24514 0.038,0.0319 0.09,0.20832 0.13264,0.22831 0.0599,0.0281 0.1324,0.14092 0.19157,0.13467 0.07,-0.007 0.0636,-0.16997 0.11651,-0.21488 0.0545,-0.0463 0.16756,0.0253 0.19353,0.0383 0.031,0.0155 0.15166,-0.0674 0.2311,-0.0181 0.0548,0.034 0.27711,0.0486 0.34031,0.10301 0.0385,0.0332 0.19132,0.0217 0.2223,0.061 0.0398,0.0506 -0.0491,0.17407 -0.0304,0.23471 0.0164,0.0532 -0.0104,0.18024 0.0228,0.22141 0.057,0.0708 0.18558,0.0462 0.25278,0.1007 0.0369,0.0299 0.16738,0.0131 0.20733,0.0419 0.0642,0.0462 0.24155,0.0401 0.30134,0.0895 0.0654,0.054 0.25404,0.0315 0.29555,0.0983 0.0269,0.0433 0.13395,0.10347 0.13794,0.1606 0.005,0.0688 0.0411,0.16543 0.0145,0.23791 -0.0284,0.0771 -0.11953,0.12994 -0.10106,0.19683 0.0189,0.0683 0.10752,0.17808 0.0917,0.24572 -0.0125,0.0534 0.0386,0.19232 0.007,0.24226 -0.0381,0.0606 -0.17941,0.0123 -0.23637,0.0569 -0.0376,0.0294 -0.18132,0.0866 -0.19806,0.13375 -0.0274,0.0774 0.0867,0.15356 0.0901,0.22685 0.004,0.0786 -0.1012,0.21743 -0.0802,0.29376 0.0159,0.0579 0.0133,0.2159 0.0525,0.26377 0.0399,0.0488 0.13319,-0.0283 0.18745,-0.007 0.0622,0.0242 0.0851,0.14626 0.12115,0.20587 0.0283,0.0468 -0.0342,0.18586 -0.004,0.2329 0.0294,0.0456 -0.027,0.21221 0.0123,0.249 0.0227,0.0213 0.0157,0.11533 0.0459,0.14765 0.0425,0.0455 0.1251,0.0287 0.17411,0.0376 0.0586,0.0106 0.0736,-0.1341 0.13168,-0.14738 0.0648,-0.0148 0.17198,0.10213 0.2232,0.12843 0.0331,0.017 0.0711,0.0985 0.10617,0.11444 0.044,0.02 0.10088,0.16776 0.14724,0.18337 0.0449,0.0151 0.11719,-0.0893 0.1631,-0.0834 0.0618,0.008 0.18395,-0.0468 0.24411,-0.0433 0.0639,0.004 0.12052,0.0754 0.17384,0.0798 0.0573,0.005 0.15275,0.0436 0.20726,0.0196 0.0532,-0.0234 0.0653,-0.10912 0.12501,-0.14096 0.0652,-0.0348 0.2318,-0.058 0.25877,-0.12913 0.0219,-0.0577 -0.0939,-0.16835 -0.10483,-0.23885 -0.0126,-0.0811 0.0801,-0.12148 0.12693,-0.17217 0.057,-0.0617 0.071,-0.22965 0.13917,-0.27755 0.0515,-0.0362 0.12977,-0.16936 0.18761,-0.19543 0.083,-0.0374 0.16942,-0.1504 0.25605,-0.16641 0.0787,-0.0145 0.1804802,-0.10905 0.2572302,-0.10844 0.0704,5.6e-4 0.15253,0.11548 0.21191,0.12662 0.0616,0.0116 0.10021,-0.0816 0.15797,-0.135 0.0527,-0.0488 0.15188,-0.0901 0.18695,-0.15693 0.0264,-0.0503 -0.008,-0.19735 0.008,-0.24945 0.0239,-0.0773 0.10051,-0.0557 0.17272,-0.0906 0.0425,-0.0205 0.12292,-0.17739 0.17085,-0.18796 0.0379,-0.008 0.0483,-0.15071 0.11276,-0.17215 0.0541,-0.018 0.16312,0.0819 0.19292,0.0979 0.0331,0.0178 0.139,0.009 0.15288,0.0519 0.0233,0.0712 -0.0531,0.2023 -0.003,0.23193 0.0347,0.0205 0.10128,-0.0136 0.13126,0.012 0.0539,0.046 0.0417,0.19784 0.0808,0.26096 0.0238,0.0384 -0.003,0.16833 0.0197,0.20656 0.0236,0.0402 0.17487,0.004 0.20072,0.0377 0.0293,0.0383 0.18937,0.0459 0.20329,0.0901 0.0131,0.0417 0.14019,0.21323 0.12187,0.26456 -0.0122,0.0342 -0.13139,-0.0166 -0.17192,-0.01 -0.0493,0.009 -0.0189,0.0735 -0.002,0.11 0.0169,0.0374 -0.0258,0.13619 -0.008,0.17426 0.0263,0.0551 0.15775,0.0514 0.19064,0.0962 0.0492,0.067 -0.004,0.18119 -0.0102,0.26966 -0.004,0.061 0.0978,0.2314 0.0792,0.28961 -0.0179,0.0562 0.0252,0.22771 -0.0159,0.26801 -0.0445,0.0436 -0.14754,-0.005 -0.21767,0.006 -0.088,0.0135 -0.14385,0.085 -0.19135,0.14947 -0.043,0.0583 -0.18374,0.0736 -0.23139,0.12908 -0.0382,0.0445 -0.21708,0.0484 -0.2494,0.0941 -0.04,0.0566 0.0611,0.19634 0.0488,0.25736 -0.0178,0.0879 -0.148,0.0946 -0.23775,0.14606 -0.0547,0.0313 -0.171,0.009 -0.22984,0.0303 -0.0918,0.0332 -0.2859,-0.062 -0.37399,-0.034 -0.076,0.0242 -0.0734,0.21713 -0.12603,0.26946 -0.0666,0.0662 -0.18525,-8.7e-4 -0.28563,0.0367 -0.0801,0.03 -0.2526602,3.2e-4 -0.3216202,0.036 -0.0709,0.0367 -0.26144,0.0366 -0.30905,0.0878 -0.0344,0.037 0.0382,0.11487 0.0327,0.16264 -0.008,0.0665 -0.0916,0.10351 -0.15824,0.14572 -0.0461,0.0292 -0.0426,0.15785 -0.0886,0.18744 -0.0882,0.0568 -0.22971,0.25327 -0.32683,0.29117 -0.0468,0.0183 -0.0983,-0.10951 -0.13568,-0.11835 -0.0592,-0.014 -0.10019,0.086 -0.16186,0.13668 -0.0489,0.0402 -0.21888,0.015 -0.2657,0.0576 -0.0405,0.0369 -0.18135,0.075 -0.20903,0.11952 -0.0133,0.0214 0.10436,0.0493 0.1271,0.0923 0.026,0.0492 -0.0415,0.11397 -0.045,0.14044 -0.006,0.0478 -0.0891,0.019 -0.13342,0.042 -0.0413,0.0215 -0.0433,0.0951 -0.0789,0.13147 -0.0363,0.0371 -0.15832,0.0342 -0.1943,0.0715 -0.037,0.0384 -0.18814,0.057 -0.2211,0.0975 -0.0341,0.0419 0.0108,0.14288 -0.0132,0.1876 -0.0293,0.0548 -0.16471,0.0561 -0.19692,0.10531 -0.029,0.0442 -0.13661,0.0795 -0.14926,0.13157 -0.007,0.0293 0.0695,0.0574 0.0768,0.0895 0.0127,0.0553 -0.0412,0.11505 -0.0799,0.15959 -0.0385,0.0442 -0.19048,0.0393 -0.23281,0.0816 -0.0421,0.042 -0.14593,0.0652 -0.17903,0.11122 -0.0392,0.0544 0.0123,0.1562 -0.007,0.2188 -0.0125,0.0414 0.005,0.11253 -0.018,0.14831 -0.0383,0.0594 -0.12149,0.0818 -0.14694,0.15309 -0.012,0.0335 -0.0967,0.0905 -0.10526,0.12497 -0.0121,0.0484 0.0402,0.1065 0.0372,0.15523 -0.005,0.0753 0.0815,0.15013 0.0849,0.22487 0.003,0.0763 0.0937,0.18297 0.0851,0.25932 -0.004,0.0368 -0.0827,0.062 -0.10211,0.0938 -0.0335,0.0549 -0.0119,0.11435 5.6e-4,0.17891 0.0121,0.0626 -0.082,0.1648 -0.067,0.22862 0.0215,0.0912 -7.8e-4,0.32373 0.0566,0.4016 0.0306,0.0416 0.11838,-0.0247 0.16704,-0.0163 0.0679,0.0117 0.0995,0.0927 0.14582,0.1423 0.0322,0.0344 -0.008,0.18834 0.0306,0.22219 0.0406,0.0354 0.0947,0.14298 0.14951,0.15739 0.0794,0.0209 0.18227,0.046 0.26453,0.0132 0.0551,-0.022 0.0925,-0.0994 0.13872,-0.11194 0.0649,-0.0176 0.19739,-0.0125 0.24094,-0.0627 0.0684,-0.0789 0.20459,-0.14392 0.23564,-0.26909 0.0254,-0.10226 0.0962,-0.22389 0.1059,-0.3328 0.0102,-0.11557 -0.0584,-0.34209 -0.0444,-0.42433 0.0154,-0.0907 0.11727,-0.0315 0.21816,-0.0345 0.10604,-0.003 0.30027,-0.0176 0.37428,0.0578 0.0647,0.0659 0.19085,0.12857 0.21907,0.23545 0.0197,0.0745 -0.0593,0.172 -0.0632,0.25636 -0.005,0.10558 0.0645,0.19707 0.0964,0.27139 0.0291,0.0679 0.10504,0.16288 0.0904,0.24853 -0.0108,0.0632 -0.18942,0.18091 -0.20364,0.23185 -0.0141,0.0504 0.13579,0.0342 0.19968,0.0598 0.0398,0.0159 0.0363,0.18722 0.10022,0.20731 0.0772,0.0242 0.16203,0.11197 0.26839,0.12243 0.0936,0.009 0.20387,0.10235 0.3086,0.0967 0.0835,-0.004 0.2359002,0.0276 0.3171002,0.005 0.12543,-0.0347 0.17627,-0.12554 0.28045,-0.10744 0.0864,0.015 0.17542,0.1064 0.26891,0.0974 0.10161,-0.01 0.15024,-0.1682 0.25475,-0.18717 0.0578,-0.0105 0.27534,-0.0562 0.34598,-0.0175 0.0673,0.0369 -0.0121,0.15716 0.0378,0.19366 0.0479,0.035 0.19039,0.0218 0.21713,0.072 0.0454,0.0853 0.19696,0.1694 0.18628,0.28978 -0.005,0.0535 -0.17235,0.0968 -0.20281,0.15551 -0.0545,0.10497 0.0191,0.22572 0.0371,0.30371 0.009,0.0375 -0.0866,0.14017 -0.0793,0.178 0.0108,0.0565 -0.0738,0.1845 -0.0422,0.22713 0.0396,0.0534 0.19664,0.0206 0.20791,0.0918 0.007,0.0469 0.14902,0.0904 0.15726,0.1447 0.0138,0.0905 0.18137,0.21667 0.1902,0.31953 0.0121,0.14079 -0.11747,0.26318 -0.12902,0.40024 -0.008,0.0928 -0.16413,0.22142 -0.16505,0.30485 -8.8e-4,0.0808 0.0703,0.1127 0.0947,0.17059 0.0505,0.12013 0.076,0.22569 0.076,0.22569 z"
     style="display:inline;fill:none;fill-rule:evenodd;stroke:#000000;stroke-width:0.105833;stroke-linecap:square;stroke-dasharray:none;paint-order:markers fill stroke"
     id="Asturias" />
  <path
     style="fill:none;fill-rule:evenodd;stroke:#000000;stroke-width:0.105833;stroke-linecap:square;paint-order:markers fill stroke"
     id="Capital"
     d="m 44.61111,13.322222 -2.259147,-1.833711 -2.399502,1.645791 1.045848,-2.715224 -2.306728,-1.773485 2.905517,0.15561 0.973866,-2.7418651 0.74986,2.8113965 2.90861,0.078919 -2.442078,1.5819287 z"
     transform="translate(0.97777778,0.12222222)" />
</svg>
