<?xml version="1.0" encoding="UTF-8" standalone="no"?>
<!-- Created with Inkscape (http://www.inkscape.org/) -->

<svg
   width="220.46092"
   height="238.30994"
   viewBox="0 0 58.330284 63.052837"
   version="1.1"
   id="svg1"
   xml:space="preserve"
   xmlns="http://www.w3.org/2000/svg"
   xmlns:svg="http://www.w3.org/2000/svg"><defs
     id="defs1" /><path
     style="fill:none;fill-rule:evenodd;stroke:#000000;stroke-width:0.1;stroke-linecap:square;paint-order:markers fill stroke"
     d="m 33.748644,62.252003 c 0.185546,0.118075 0.69514,-0.07869 0.94395,-0.0021 0.36543,0.112549 0.289982,0.394408 0.6018,0.51468 0.27047,0.104323 0.754774,0.08816 1.110571,-0.03618 0.119949,-0.04192 0.177416,-0.153577 0.271454,-0.199906 0.267797,-0.131935 0.239554,-0.541717 0.361148,-0.784327 0.09792,-0.195382 0.346178,-0.217801 0.517173,-0.393969 0.203278,-0.209427 -0.05092,-0.384658 0.06638,-0.656621 0.06253,-0.144959 0.310365,-0.170154 0.393026,-0.330027 0.10776,-0.208415 0.106188,-0.476663 0.198299,-0.714843 0.08679,-0.22442 0.149224,-0.483194 0.264378,-0.681621 0.08308,-0.143162 0.219505,-0.234192 0.289612,-0.356407 0.21057,-0.367078 0.428165,-0.839724 0.722141,-1.137043 0.299875,-0.303285 0.67441,-0.43158 0.707289,-0.843902 0.02123,-0.26627 -0.153729,-0.509195 -0.288658,-0.752162 -0.05716,-0.102931 0.08455,-0.385643 0.02107,-0.479326 -0.248532,-0.366812 -0.895956,0.141818 -1.261463,-0.122842 -0.1616,-0.117014 -0.370541,-0.320878 -0.457143,-0.597794 -0.100062,-0.319958 -0.07299,-0.719343 -0.206394,-0.902199 -0.200537,-0.274879 -1.012403,-0.413515 -1.142945,-0.731187 -0.09681,-0.235579 0.343561,-0.600861 0.279974,-0.845044 -0.06798,-0.26106 -0.159265,-0.463025 -0.106967,-0.73236 0.0235,-0.121025 0.213938,-0.307384 0.209394,-0.429152 -0.01255,-0.336258 -0.259144,-0.674254 -0.285759,-1.007934 -0.01132,-0.141945 -0.24336,-0.120506 -0.392585,-0.248966 -0.186082,-0.160189 -0.29735,-0.46953 -0.316756,-0.646477 -0.05433,-0.495408 0.509348,-1.052138 0.526008,-1.549 0.01018,-0.303517 0.232865,-0.613484 0.269779,-0.917301 0.03312,-0.272588 -0.157428,-0.669861 -0.05775,-0.923445 0.216929,-0.551847 0.618636,-1.222349 1.077375,-1.666872 0.161339,-0.156339 0.291031,-0.429532 0.445644,-0.534299 0.279278,-0.189242 0.54209,-0.195622 0.526058,-0.571971 -0.01371,-0.321902 -0.08123,-0.696508 -0.369835,-0.911706 -0.07898,-0.05889 -0.273596,0.01782 -0.389499,-0.0126 -0.173687,-0.04558 -0.264811,-0.197171 -0.279555,-0.328478 -0.02836,-0.252583 0.297239,-0.408652 0.38737,-0.643434 0.04848,-0.126291 0.06689,-0.325972 0.137346,-0.44817 0.116672,-0.202361 -0.0075,-0.550564 0.05931,-0.780166 0.08403,-0.288602 0.357162,-0.458738 0.515975,-0.694897 0.155377,-0.23105 0.383685,-0.475468 0.66348,-0.623511 0.221642,-0.117273 0.49169,-0.141877 0.670098,-0.27803 0.203142,-0.155028 0.222849,-0.375947 0.284956,-0.610584 0.01803,-0.06811 0.03326,-0.181503 0.04751,-0.253001 0.05439,-0.272818 0.131336,-0.601829 0.0036,-0.846282 -0.123672,-0.236692 -0.451376,-0.388709 -0.447433,-0.658035 0.0067,-0.456189 0.245936,-0.944465 0.414932,-1.398971 0.116263,-0.312682 0.08662,-0.657671 0.379514,-0.770475 0.126954,-0.04889 0.09453,0.260268 0.192534,0.414676 0.03784,0.05961 0.196234,-0.01416 0.240528,0.02337 0.131172,0.111154 0.286123,0.22759 0.444335,0.240598 0.09487,0.0078 0.29895,-0.0013 0.391744,0.0081 0.133476,0.01352 0.03545,-0.168272 0.1714,-0.197621 0.19721,-0.04258 0.516273,-0.03086 0.667791,-0.153 0.07743,-0.06242 -0.05681,-0.176251 -0.100908,-0.334765 -0.07778,-0.279559 -0.125987,-0.6525 -0.03046,-0.80165 0.184739,-0.288453 0.477818,-0.539535 0.790997,-0.718878 0.203022,-0.116261 0.470859,-0.13348 0.532043,-0.344707 0.02919,-0.100778 -0.316749,-0.212599 -0.490119,-0.364008 -0.05844,-0.05104 -0.0877,-0.173605 -0.08922,-0.211755 -0.01268,-0.317187 0.655068,0.185611 0.72546,-0.09837 0.0356,-0.143633 -0.176936,-0.474583 -0.05099,-0.758637 0.158443,-0.357348 0.09749,-0.717073 0.05765,-0.828341 -0.138804,-0.387648 0.44804,0.145558 1.005036,0.254937 0.53983,0.106008 1.078708,-0.1247 1.43941,-0.01049 0.155776,0.04932 0.555499,0.107699 0.731031,0.09358 0.310104,-0.02494 0.396508,-0.209235 0.582858,-0.429695 0.09981,-0.118079 -0.0134,-0.396496 0.0051,-0.546597 0.037,-0.300691 0.160201,-0.491325 0.162209,-0.789561 0.0018,-0.261463 -0.127126,-0.633126 0.01606,-0.863842 0.208735,-0.336339 0.661599,-0.172265 1.162291,-0.153238 0.390393,0.01484 0.821843,-0.118407 1.11122,-0.255293 0.299784,-0.141809 0.653099,-0.477106 0.795921,-0.832664 0.132353,-0.329496 0.05373,-0.680707 0.322235,-0.806026 0.341488,-0.159384 0.862181,-0.05193 1.069443,-0.366667 0.03293,-0.05 -0.236707,-0.391312 0.02511,-0.53613 0.181183,-0.100217 0.567872,0.159086 0.75744,0.04652 0.482232,-0.286356 0.75228,-0.969525 0.836896,-1.465942 0.02825,-0.165744 -0.178947,-0.07833 -0.26197,-0.232711 -0.08575,-0.159464 -0.0073,-0.383253 -0.05454,-0.607669 -0.04291,-0.203769 -0.216297,-0.408055 -0.202934,-0.565176 0.02805,-0.329827 -0.06612,-0.729051 0.101063,-1.020471 0.114971,-0.200406 0.326569,-0.160595 0.519904,-0.327226 0.234756,-0.202331 0.457082,-0.607572 0.631808,-0.821747 0.281473,-0.345023 -0.2314,-1.086127 0.170569,-1.334546 0.249331,-0.154087 0.727588,-0.797394 1.138413,-0.867121 0.547344,-0.0929 1.511248,0.351823 1.624353,0.0017 0.112073,-0.346959 -0.17548,-0.78942 -0.224342,-1.2013 -0.05744,-0.484156 -0.310595,-0.926057 -0.692326,-1.120922 -0.642035,-0.327743 -1.365671,0.774188 -2.077778,0.886112 -0.849004,0.133441 -1.728114,-0.05618 -2.566667,-0.244445 -0.471539,-0.105866 -0.898608,0.321776 -1.350789,0.150119 -0.328789,-0.124816 -1.027182,-0.278373 -1.360029,-0.53671 -0.430089,-0.333811 -0.491984,-0.791592 -0.925292,-0.927298 -0.942039,-0.295033 -2.376494,-0.07785 -2.780554,-0.886111 -0.146873,-0.293796 -0.527809,-0.510541 -0.855557,-0.488889 -0.268312,0.01773 -0.375442,0.526701 -0.641667,0.488889 -0.338828,-0.04812 -0.350982,-0.60262 -0.611111,-0.825 -0.251896,-0.215342 -0.860044,0.02467 -1.149468,-0.158386 -0.382971,-0.242217 -0.460274,-0.881004 -0.897754,-0.911058 -0.231435,-0.0159 -0.603704,-0.04918 -0.819333,0.08764 -0.317404,0.201395 -0.473663,0.593091 -0.800112,0.492913 -0.313585,-0.09618 -0.360521,-0.551204 -0.580583,-0.794409 -0.144713,-0.159931 -0.444431,-0.111241 -0.637864,-0.236424 -0.162341,-0.105061 -0.231752,-0.377759 -0.248247,-0.558021 -0.03546,-0.3875457 0.415043,-0.8570477 0.821205,-1.1360777 0.359273,-0.246817 0.690499,-0.304716 0.523238,-0.605588 -0.179127,-0.3222168 -0.529349,-0.119796 -0.962575,0.01743 -0.276587,0.08761 -0.64131,0.04005 -0.840203,0.165898 -0.432491,0.27366 -0.654018,0.821732 -0.794443,1.3138887 -0.15052,0.527538 -0.05167,1.179089 0.0044,1.742089 0.03035,0.304637 0.200976,0.613908 -0.03497,0.794022 -0.426335,0.325445 -0.757693,-0.121917 -1.320544,-0.346694 -0.497452,-0.19866 -1.227748,-0.140695 -1.612788,-0.417195 -0.313751,-0.225307 -0.385777,-0.502823 -0.618115,-0.842404 -0.192459,-0.281295 -0.579677,-0.611958 -0.542996,-0.929818 0.04318,-0.3742067 0.612173,-0.3684057 0.941666,-0.5930847 0.445592,-0.303846 0.703898,-0.814309 0.983334,-1.2402482 0.245957,-0.3749074 0.03857,-0.8769269 0.213364,-1.2995814 0.08999,-0.217591 0.0765,-0.7886321 0.229074,-0.9931308 0.196386,-0.2632172 0.554381,-0.1603911 0.565894,-0.4572878 0.01259,-0.3245614 -0.03841,-0.7996958 0.02132,-1.2350151 C 36.653365,4.0016604 36.82656,3.7279154 36.784974,3.4917029 36.651559,2.7338163 36.080489,2.3442134 35.551422,1.84367 35.303624,1.6092317 35.171142,2.2429224 34.827748,2.1839407 34.550053,2.1362437 34.087967,2.0474975 33.745363,1.8248585 33.481115,1.6531381 33.331709,1.3361202 33.12138,1.3040007 33.008716,1.2867958 32.84602,1.3532994 32.692925,1.2652219 32.5387,1.1764944 32.394057,0.93313626 32.276267,0.90325906 c -0.443147,-0.1124028 -0.755178,0.0406907 -1.13161,0.14231604 -0.167472,0.045212 -0.39968,-0.041069 -0.572788,0.042365 -0.280544,0.1352157 0.05538,1.0367696 -0.05609,1.4037631 -0.130178,0.4286115 -0.705427,0.3168333 -1.067426,0.281508 -0.34414,-0.033582 -0.838214,-0.3445666 -0.893236,-0.7428955 -0.07651,-0.5538723 0.332842,-1.26653834 -0.05743,-1.54734474 -0.219666,-0.1580525 -0.501359,-0.2096915 -0.769063,-0.2853044 -0.132201,-0.03734 -0.236484,-0.1458747 -0.37632,-0.1476415 -0.193349,-0.00244 -0.392554,0.1837099 -0.590127,0.2302988 -0.250209,0.059001 -0.497803,-0.014512 -0.727579,0.029799 -0.362704,0.069945 -0.621273,0.5054459 -0.985665,0.6291591 -0.646065,0.21934284 -1.370066,0.080749 -1.779908,0.59158234 -0.170984,0.2131173 -0.323108,0.5354012 -0.337037,0.8528703 -0.01475,0.3361011 0.109737,0.6681108 -0.05187,0.9080218 -0.107356,0.1593711 -0.483089,0.136043 -0.625279,0.2723584 -0.276281,0.2648669 -0.464688,0.5880006 -0.753377,0.6474224 -0.0819,0.016858 -0.171869,-0.2557153 -0.274206,-0.2283875 -0.08168,0.021812 -0.155327,0.4786161 -0.24169,0.4867802 -0.06155,0.00582 -0.12856,-0.4628378 -0.187494,-0.486751 -0.11708,-0.047506 -0.34879,-0.1062952 -0.436748,0.05884 -0.09149,0.1717762 -0.03897,0.5690075 -0.148614,0.5838569 -0.113159,0.015325 -0.393842,0.2354254 -0.512641,0.1748494 -0.160082,-0.081626 -0.151661,-0.5456514 -0.259506,-0.6877467 -0.111533,-0.1469561 -0.338401,0.030874 -0.449533,0.1294442 -0.138006,0.1224065 0.217816,0.5531967 0.195767,0.7344735 -0.05028,0.4133906 -0.44718,0.6636367 -0.390219,1.0804337 0.0274,0.2005163 -0.04201,0.4832577 0.07051,0.6772882 0.11097,0.1913527 0.0845,0.7010489 0.222543,0.872801 0.201008,0.2500943 0.545086,0.1588272 0.46316,0.4376666 -0.06497,0.2211216 -0.297132,0.2109615 -0.427921,0.386764 -0.155416,0.2089045 -0.259313,0.5497245 -0.4709,0.7281575 -0.289264,0.243936 -0.530696,0.579792 -0.877454,0.780484 -0.114592,0.06632 -0.382303,0.0902 -0.486811,0.2077068 -0.152708,0.171697 -0.140897,0.445189 -0.312891,0.532863 -0.420108,0.214151 -0.886634,0.157009 -1.140261,0.518506 -0.07276,0.103702 -0.262443,0.22613 -0.260583,0.355899 0.0033,0.233502 0.24008,0.490773 0.147661,0.705484 -0.174065,0.404388 -0.706423,0.713129 -0.708108,1.142433 -0.002,0.50578 0.748447,0.975484 0.518545,1.425998 -0.38132,0.74723 -1.669806,0.31569 -2.419876,0.691394 -0.160617,0.08045 0.02895,0.807993 -0.108531,0.934763 -0.499682,0.460773 -1.230464,0.503962 -1.879225,0.57766 -0.155468,0.01766 -0.342482,0.254975 -0.481857,0.161224 -0.29705,-0.199813 -0.530782,-0.831939 -0.8577178,-0.766193 -0.266364,0.05357 -0.282577,0.510065 -0.461868,0.732204 -0.197333,0.244493 -0.5511127,0.26446 -0.7048577,0.520946 -0.132707,0.22139 0.1741536,0.771373 0.079997,1.017162 -0.1002541,0.261705 -0.5973671,0.220432 -0.5985416,0.495261 -0.00127,0.296043 0.3244345,0.333478 0.4779907,0.614317 0.2317816,0.423905 0.1281407,0.967467 0.1468888,1.457447 0.00705,0.184309 -0.05459,0.33943 -0.1063344,0.499355 -0.174742,0.54007 -0.7053092,0.554906 -1.0370901,1.015483 -0.1564355,0.217164 0.089969,0.647199 0.025989,0.91413 -0.040574,0.169279 -0.4255591,0.169628 -0.414898,0.339021 0.021744,0.345489 0.2207675,0.775432 0.4064733,1.080407 0.094395,0.155021 0.3055264,0.181611 0.2417077,0.345591 -0.078744,0.20233 -0.1941201,0.365155 -0.424266,0.414649 -0.2129393,0.04579 -0.4560347,0.257116 -0.6966658,0.281093 -0.2492122,0.02483 -0.4942127,-0.135597 -0.6075514,0.03886 -0.072657,0.111841 -0.3798765,0.458575 -0.3320784,0.697307 0.043342,0.216474 0.4400438,0.324941 0.422804,0.446896 -0.051066,0.361242 0.02788,0.655424 0.012379,0.907405 -0.010898,0.177148 -0.1504315,0.306119 -0.059892,0.541118 0.095185,0.247058 0.5343137,0.17808 0.7693676,0.353339 0.1727585,0.12881 0.1806373,0.493869 0.1380861,0.683751 -0.060061,0.268017 -0.4977995,0.01281 -0.7793262,0.125733 -0.3465911,0.139025 -0.5678303,0.613194 -0.905945,0.608872 -0.1872803,-0.0024 -0.6092646,0.162814 -0.7762162,0.07265 C 4.3627233,30.501457 4.3628435,30.080643 4.1916732,29.866562 4.0275827,29.661336 3.6929507,29.649294 3.4346856,29.640321 3.2942088,29.635441 3.1016593,29.371175 2.9652255,29.403414 c -0.1955124,0.0462 -0.3007917,0.296873 -0.4756077,0.450328 -0.2255508,0.19799 -0.5165943,0.313128 -0.7402034,0.445564 -0.2172758,0.128686 -0.1418097,0.611743 -0.3703693,0.750527 -0.1728488,0.104955 -0.54054871,0.647388 -0.74907741,0.70521 -0.1256804,0.03485 -0.2034362,-0.177933 -0.2836499,-0.222348 -0.123547,-0.06841 -0.2232756,0.0254 -0.2821746,0.192609 -0.091251,0.259051 0.2769273,0.476395 0.3619905,0.755462 0.055798,0.183056 -0.2133287,0.441907 -0.1027179,0.584113 0.1076008,0.138337 0.5259772,-0.35105 0.68036351,-0.233934 0.1060328,0.08044 0.3192891,0.208368 0.3962639,0.354699 0.1570818,0.298616 0.156853,0.639664 0.3925833,0.570628 0.3932586,-0.11517 0.5435032,-0.705649 0.7119045,-1.113161 0.07631,-0.18466 0.053331,-0.409014 0.2387613,-0.399261 0.2607489,0.01371 0.4018466,0.468886 0.5505587,0.683301 0.2328478,0.335723 0.1834903,0.817267 0.2785866,1.202701 0.041957,0.170057 0.041772,0.279718 0.067505,0.458255 0.018274,0.126786 -0.2355229,0.0944 -0.210197,0.223834 0.030116,0.153914 -0.05996,0.473517 8.65e-4,0.652376 0.092268,0.271318 0.3209386,0.401493 0.1769231,0.582196 -0.1022422,0.128288 -0.5369522,-0.06697 -0.7251207,-0.04253 -0.2414045,0.03136 -0.2375126,0.277805 -0.3119693,0.47465 -0.129697,0.342887 0.2788637,0.667285 0.5239441,1.000114 0.1511364,0.205249 0.086124,0.447178 0.2538732,0.598734 0.2398749,0.21672 0.6462554,-0.01666 0.9717414,0.05636 0.1379128,0.03094 0.1903941,0.39166 0.3246212,0.418967 0.1558203,0.0317 0.3575972,-0.08328 0.5176966,-0.07867 0.07991,0.0023 0.00841,0.511474 0.087969,0.512539 0.079309,0.0011 0.3044677,0.123338 0.3904927,-0.01816 0.072255,-0.118848 0.00499,-0.503324 0.076656,-0.521339 0.2880731,-0.07241 0.4875562,0.250131 0.7721367,0.319442 0.1002302,0.02441 0.260921,0.159378 0.3782688,0.127394 0.1498487,-0.04084 0.2562717,-0.251729 0.3695049,-0.211569 0.1651228,0.05856 0.154785,0.228129 0.2986318,0.325916 0.091136,0.06195 0.012714,0.310001 0.1092712,0.375682 0.052923,0.036 0.2501472,-0.352357 0.3097248,-0.321688 0.1400576,0.0721 0.384169,0.146536 0.5167928,0.276127 0.084589,0.08265 0.3036279,0.122305 0.3663798,0.213617 0.1035255,0.150644 -0.2063904,0.435319 -0.077574,0.513131 0.2216935,0.133915 0.5475495,0.07706 0.8108625,0.20393 0.110996,0.05348 0.03698,0.319781 0.145724,0.383128 0.08756,0.05101 0.194903,-0.296069 0.2962988,-0.261297 0.151105,0.05182 0.472957,0.03369 0.629699,0.145562 0.199317,0.142255 0.231634,0.414724 0.396853,0.436131 0.247822,0.03211 0.36911,-0.232991 0.640162,-0.361418 0.394555,-0.186943 0.763177,-0.19589 1.113203,-0.106169 0.116253,0.0298 0.326568,-0.05447 0.407239,0.03547 0.191637,0.213642 -0.397698,0.569619 -0.259273,0.821028 0.12844,0.233274 0.538307,0.327195 0.725395,0.540058 0.09611,0.109346 0.03004,0.28984 0.05242,0.453821 0.01916,0.140372 0.261675,0.221368 0.209507,0.379509 -0.118304,0.358624 -0.415656,0.714276 -0.166294,0.916854 0.250006,0.203101 0.692039,0.215414 1.002221,0.04312 0.296084,-0.164458 0.467811,-0.5415 0.73685,-0.718819 0.174679,-0.115128 0.494387,-0.370701 0.691608,-0.339789 0.264461,0.04145 0.619788,0.171869 0.828373,0.381667 0.186169,0.187253 0.503364,0.248827 0.642466,0.466821 0.114507,0.179451 0.04913,0.520618 0.20363,0.642327 0.187308,0.147555 0.689108,-0.137205 0.875628,0.01271 0.119329,0.09591 0.136788,0.556895 0.266893,0.619277 0.07567,0.03628 0.282371,-0.355373 0.326182,-0.265079 0.0683,0.140759 0.183299,0.244117 0.220465,0.437982 0.0222,0.115827 0.150582,0.225073 0.162565,0.350612 0.01826,0.19131 -0.07665,0.39189 0.0064,0.486557 0.103889,0.118445 0.292613,0.117516 0.377202,0.25184 0.07743,0.12296 0.781537,-0.05611 0.843976,0.08286 0.0577,0.128422 0.195582,0.315817 0.183983,0.48016 -0.03167,0.448781 -0.340963,0.93493 -0.06559,1.172899 0.05485,0.0474 0.289509,0.313584 0.442712,0.247982 0.218477,-0.09355 0.371798,-0.538017 0.460648,-0.486398 0.163304,0.09488 0.149266,0.547822 0.316335,0.618972 0.116938,0.0498 0.427301,-0.296845 0.502722,-0.191077 0.07979,0.111891 -0.138474,0.559389 -0.08913,0.717339 0.05587,0.178834 0.378582,0.07322 0.527314,0.130272 0.127175,0.04878 0.209652,0.228223 0.334293,0.278667 0.149307,0.06042 0.451138,-0.275505 0.602348,-0.2264 0.07458,0.02422 0.04781,0.620212 0.11552,0.661215 0.102644,0.06216 0.208039,0.08733 0.315334,0.09631 0.09091,0.0076 0.193976,-0.3745 0.287088,-0.377461 0.156313,-0.005 0.304199,0.371105 0.46281,0.431911 0.133803,0.0513 0.54516,-0.166783 0.702544,-0.142739 0.166265,0.0254 0.30956,0.0714 0.433858,0.136686 0.125514,0.06593 -0.006,0.421591 0.08486,0.525496 0.03422,0.03913 0.116246,0.23006 0.260845,0.258526 0.230373,0.04535 0.553112,-0.07239 0.592073,0.01065 0.143223,0.305262 -0.745687,0.430008 -0.734605,0.767016 0.0037,0.113969 0.14152,0.19947 0.209709,0.303263 0.109228,0.166261 0.354361,0.333255 0.397996,0.503492 0.02311,0.09015 -0.103575,0.181207 -0.132373,0.273547 -0.07221,0.231521 -0.448088,0.241038 -0.688073,0.352832 -0.07716,0.03594 -0.261453,0.09851 -0.363555,0.0066 -0.156134,-0.140533 -0.235744,-0.468771 -0.352765,-0.44587 -0.263297,0.05152 -0.885067,-0.170981 -1.077541,-0.05212 -0.184664,0.114042 0.06019,0.570659 -0.197215,0.570659 -0.216726,0 -0.536845,0.09061 -0.818231,-0.105904 -0.326286,-0.227874 -0.615383,-0.745033 -0.866869,-0.702817 -0.20404,0.03425 -0.485131,0.364258 -0.598609,0.699246 -0.0649,0.191596 0.0064,0.396169 -0.04974,0.498383 -0.607835,1.106666 -1.733344,1.854141 -2.074181,3.024846 -0.160735,0.552094 -0.02693,0.963211 0.196967,1.488179 0.03434,0.08052 0.195224,0.232984 0.245963,0.305124 0.09786,0.139134 0.323274,0.132957 0.437527,0.243264 0.137264,0.132523 0.371793,0.220951 0.494032,0.37287 0.114674,0.142516 0.116274,0.349978 0.265673,0.435097 0.08102,0.04616 0.168812,-0.220979 0.26132,-0.192622 0.159058,0.04876 0.23484,0.336358 0.411395,0.439016 0.176019,0.102346 0.452791,0.01975 0.62555,0.06355 0.13512,0.03426 0.348013,-0.105504 0.486541,-0.0902 0.179289,0.01981 0.16817,0.273777 0.338068,0.306003 0.07212,0.01368 0.216755,0.05681 0.312591,-0.0048 0.103153,-0.06635 0.158329,-0.238661 0.256974,-0.247367 0.107934,-0.0095 0.250379,-0.02696 0.344549,0.0299 0.101799,0.06147 0.15447,0.198837 0.249033,0.222558 0.13823,0.03467 0.112926,0.463051 0.248442,0.506407 0.189153,0.06052 0.180186,0.494656 0.379711,0.533226 0.221791,0.04288 0.235894,0.352381 0.493789,0.327217 0.156224,-0.01524 0.384508,0.231841 0.575328,0.170976 0.09121,-0.02909 0.267653,0.236391 0.355171,0.182053 0.09465,-0.05876 0.457129,0.06504 0.530935,-0.04183 0.141959,-0.205558 -0.02581,-0.652078 0.09577,-0.597743 0.06869,0.0307 0.312484,-0.032 0.416636,0.0037 0.111733,0.03828 0.08395,0.175121 0.155705,0.212754 0.08914,0.04675 0.221067,-0.172175 0.340288,-0.211748 0.07356,-0.02442 0.142274,0.11311 0.193125,0.143565 0.161292,0.0966 0.62064,0.143167 0.762292,0.273009 0.106485,0.09761 0.398953,0.206199 0.466251,0.314207 0.124411,0.19967 0.183483,0.310114 0.23944,0.484415 0.01578,0.04915 0.160582,0.04372 0.148625,0.119685 -0.02861,0.181722 0.29739,0.554273 0.586449,0.571245 0.190118,0.01116 0.53643,0.374816 0.751993,0.335565 0.211803,-0.03857 0.593713,0.24158 0.796264,0.142622 0.160749,-0.07854 0.679576,0.06093 0.808053,-0.06122 0.294779,-0.280265 0.146992,-0.832124 0.406859,-0.666754 z"
     id="Navarre1" /><path
     style="fill:none;fill-rule:evenodd;stroke:#000000;stroke-width:0.1;stroke-linecap:square;paint-order:markers fill stroke"
     d="m 43.837976,40.713417 c -0.228483,-0.132595 -0.111693,-0.422416 -0.02006,-0.731526 0.0536,-0.180827 0.02825,-0.388355 0.106492,-0.521623 0.08897,-0.151548 0.324361,-0.178137 0.479243,-0.315343 0.193703,-0.171598 0.317505,-0.430029 0.514633,-0.332838 0.215572,0.106284 0.04407,0.398297 0.0036,0.683313 -0.02279,0.160399 0.142055,0.318582 0.08286,0.4402 -0.120759,0.248082 -0.379909,0.426197 -0.642623,0.588658 -0.182342,0.112759 -0.358482,0.28528 -0.524113,0.189159 z"
     id="Navarre3" /><path
     style="fill:none;fill-rule:evenodd;stroke:#000000;stroke-width:0.1;stroke-linecap:square;paint-order:markers fill stroke"
     d="m 48.072762,39.114571 c -0.299901,0.39077 -0.763769,-0.02686 -1.358897,-0.22913 -0.52365,-0.177979 -1.193768,-0.09092 -1.320253,-0.505475 -0.09141,-0.299604 0.390144,-0.518745 0.623552,-0.819761 0.276498,-0.356587 0.346486,-0.769533 0.716023,-0.735875 0.352041,0.03207 0.501166,0.597852 0.784928,0.943533 0.426176,0.519172 0.877882,0.925534 0.554647,1.346708 z"
     id="Navarre2" /><path
     style="fill:none;fill-rule:evenodd;stroke:#000000;stroke-width:0.1;stroke-linecap:square;paint-order:markers fill stroke"
     id="Capital"
     d="m 29.531979,19.779781 -1.90474,-0.681468 -1.300906,1.549217 0.05952,-2.0221 -1.875396,-0.758501 1.941524,-0.568259 0.141849,-2.017997 1.140409,1.670898 1.963063,-0.48869 -1.236712,1.60093 z" /><path
     d="m 33.748644,62.252003 c 0.185546,0.118075 0.69514,-0.07869 0.94395,-0.0021 0.36543,0.112549 0.289982,0.394408 0.6018,0.51468 0.27047,0.104323 0.754774,0.08816 1.110571,-0.03618 0.119949,-0.04192 0.177416,-0.153577 0.271454,-0.199906 0.267797,-0.131935 0.239554,-0.541717 0.361148,-0.784327 0.09792,-0.195382 0.346178,-0.217801 0.517173,-0.393969 0.203278,-0.209427 -0.05092,-0.384658 0.06638,-0.656621 0.06253,-0.144959 0.310365,-0.170154 0.393026,-0.330027 0.10776,-0.208415 0.106188,-0.476663 0.198299,-0.714843 0.08679,-0.22442 0.149224,-0.483194 0.264378,-0.681621 0.08308,-0.143162 0.219505,-0.234192 0.289612,-0.356407 0.21057,-0.367078 0.428165,-0.839724 0.722141,-1.137043 0.299875,-0.303285 0.67441,-0.43158 0.707289,-0.843902 0.02123,-0.26627 -0.153729,-0.509195 -0.288658,-0.752162 -0.05716,-0.102931 0.08455,-0.385643 0.02107,-0.479326 -0.248532,-0.366812 -0.895956,0.141818 -1.261463,-0.122842 -0.1616,-0.117014 -0.370541,-0.320878 -0.457143,-0.597794 -0.100062,-0.319958 -0.07299,-0.719343 -0.206394,-0.902199 -0.200537,-0.274879 -1.012403,-0.413515 -1.142945,-0.731187 -0.09681,-0.235579 0.343561,-0.600861 0.279974,-0.845044 -0.06798,-0.26106 -0.159265,-0.463025 -0.106967,-0.73236 0.0235,-0.121025 0.213938,-0.307384 0.209394,-0.429152 -0.01255,-0.336258 -0.259144,-0.674254 -0.285759,-1.007934 -0.01132,-0.141945 -0.24336,-0.120506 -0.392585,-0.248966 -0.186082,-0.160189 -0.29735,-0.46953 -0.316756,-0.646477 -0.05433,-0.495408 0.509348,-1.052138 0.526008,-1.549 0.01018,-0.303517 0.232865,-0.613484 0.269779,-0.917301 0.03312,-0.272588 -0.157428,-0.669861 -0.05775,-0.923445 0.216929,-0.551847 0.618636,-1.222349 1.077375,-1.666872 0.161339,-0.156339 0.291031,-0.429532 0.445644,-0.534299 0.279278,-0.189242 0.54209,-0.195622 0.526058,-0.571971 -0.01371,-0.321902 -0.08123,-0.696508 -0.369835,-0.911706 -0.07898,-0.05889 -0.273596,0.01782 -0.389499,-0.0126 -0.173687,-0.04558 -0.264811,-0.197171 -0.279555,-0.328478 -0.02836,-0.252583 0.297239,-0.408652 0.38737,-0.643434 0.04848,-0.126291 0.06689,-0.325972 0.137346,-0.44817 0.116672,-0.202361 -0.0075,-0.550564 0.05931,-0.780166 0.08403,-0.288602 0.357162,-0.458738 0.515975,-0.694897 0.155377,-0.23105 0.383685,-0.475468 0.66348,-0.623511 0.221642,-0.117273 0.49169,-0.141877 0.670098,-0.27803 0.203142,-0.155028 0.222849,-0.375947 0.284956,-0.610584 0.01803,-0.06811 0.03326,-0.181503 0.04751,-0.253001 0.05439,-0.272818 0.131336,-0.601829 0.0036,-0.846282 -0.123672,-0.236692 -0.451376,-0.388709 -0.447433,-0.658035 0.0067,-0.456189 0.245936,-0.944465 0.414932,-1.398971 0.116263,-0.312682 0.08662,-0.657671 0.379514,-0.770475 0.126954,-0.04889 0.09453,0.260268 0.192534,0.414676 0.03784,0.05961 0.196234,-0.01416 0.240528,0.02337 0.131172,0.111154 0.286123,0.22759 0.444335,0.240598 0.09487,0.0078 0.29895,-0.0013 0.391744,0.0081 0.133476,0.01352 0.03545,-0.168272 0.1714,-0.197621 0.19721,-0.04258 0.516273,-0.03086 0.667791,-0.153 0.07743,-0.06242 -0.05681,-0.176251 -0.100908,-0.334765 -0.07778,-0.279559 -0.125987,-0.6525 -0.03046,-0.80165 0.184739,-0.288453 0.477818,-0.539535 0.790997,-0.718878 0.203022,-0.116261 0.470859,-0.13348 0.532043,-0.344707 0.02919,-0.100778 -0.316749,-0.212599 -0.490119,-0.364008 -0.05844,-0.05104 -0.0877,-0.173605 -0.08922,-0.211755 -0.01268,-0.317187 0.655068,0.185611 0.72546,-0.09837 0.0356,-0.143633 -0.176936,-0.474583 -0.05099,-0.758637 0.158443,-0.357348 0.09749,-0.717073 0.05765,-0.828341 -0.138804,-0.387648 0.44804,0.145558 1.005036,0.254937 0.53983,0.106008 1.078708,-0.1247 1.43941,-0.01049 0.155776,0.04932 0.555499,0.107699 0.731031,0.09358 0.310104,-0.02494 0.396508,-0.209235 0.582858,-0.429695 0.09981,-0.118079 -0.0134,-0.396496 0.0051,-0.546597 0.037,-0.300691 0.160201,-0.491325 0.162209,-0.789561 0.0018,-0.261463 -0.127126,-0.633126 0.01606,-0.863842 0.208735,-0.336339 0.661599,-0.172265 1.162291,-0.153238 0.390393,0.01484 0.821843,-0.118407 1.11122,-0.255293 0.299784,-0.141809 0.653099,-0.477106 0.795921,-0.832664 0.132353,-0.329496 0.05373,-0.680707 0.322235,-0.806026 0.341488,-0.159384 0.862181,-0.05193 1.069443,-0.366667 0.03293,-0.05 -0.236707,-0.391312 0.02511,-0.53613 0.181183,-0.100217 0.567872,0.159086 0.75744,0.04652 0.482232,-0.286356 0.75228,-0.969525 0.836896,-1.465942 0.02825,-0.165744 -0.178947,-0.07833 -0.26197,-0.232711 -0.08575,-0.159464 -0.0073,-0.383253 -0.05454,-0.607669 -0.04291,-0.203769 -0.216297,-0.408055 -0.202934,-0.565176 0.02805,-0.329827 -0.06612,-0.729051 0.101063,-1.020471 0.114971,-0.200406 0.326569,-0.160595 0.519904,-0.327226 0.234756,-0.202331 0.457082,-0.607572 0.631808,-0.821747 0.281473,-0.345023 -0.2314,-1.086127 0.170569,-1.334546 0.249331,-0.154087 0.727588,-0.797394 1.138413,-0.867121 0.547344,-0.0929 1.511248,0.351823 1.624353,0.0017 0.112073,-0.346959 -0.17548,-0.78942 -0.224342,-1.2013 -0.05744,-0.484156 -0.310595,-0.926057 -0.692326,-1.120922 -0.642035,-0.327743 -1.365671,0.774188 -2.077778,0.886112 -0.849004,0.133441 -1.728114,-0.05618 -2.566667,-0.244445 -0.471539,-0.105866 -0.898608,0.321776 -1.350789,0.150119 -0.328789,-0.124816 -1.027182,-0.278373 -1.360029,-0.53671 -0.430089,-0.333811 -0.491984,-0.791592 -0.925292,-0.927298 -0.942039,-0.295033 -2.376494,-0.07785 -2.780554,-0.886111 -0.146873,-0.293796 -0.527809,-0.510541 -0.855557,-0.488889 -0.268312,0.01773 -0.375442,0.526701 -0.641667,0.488889 -0.338828,-0.04812 -0.350982,-0.60262 -0.611111,-0.825 -0.251896,-0.215342 -0.860044,0.02467 -1.149468,-0.158386 -0.382971,-0.242217 -0.460274,-0.881004 -0.897754,-0.911058 -0.231435,-0.0159 -0.603704,-0.04918 -0.819333,0.08764 -0.317404,0.201395 -0.473663,0.593091 -0.800112,0.492913 -0.313585,-0.09618 -0.360521,-0.551204 -0.580583,-0.794409 -0.144713,-0.159931 -0.444431,-0.111241 -0.637864,-0.236424 -0.162341,-0.105061 -0.231752,-0.377759 -0.248247,-0.558021 -0.03546,-0.3875457 0.415043,-0.8570477 0.821205,-1.1360777 0.359273,-0.246817 0.690499,-0.304716 0.523238,-0.605588 -0.179127,-0.3222168 -0.529349,-0.119796 -0.962575,0.01743 -0.276587,0.08761 -0.64131,0.04005 -0.840203,0.165898 -0.432491,0.27366 -0.654018,0.821732 -0.794443,1.3138887 -0.15052,0.527538 -0.05167,1.179089 0.0044,1.742089 0.03035,0.304637 0.200976,0.613908 -0.03497,0.794022 -0.426335,0.325445 -0.757693,-0.121917 -1.320544,-0.346694 -0.497452,-0.19866 -1.227748,-0.140695 -1.612788,-0.417195 -0.313751,-0.225307 -0.385777,-0.502823 -0.618115,-0.842404 -0.192459,-0.281295 -0.579677,-0.611958 -0.542996,-0.929818 0.04318,-0.3742067 0.612173,-0.3684057 0.941666,-0.5930847 0.445592,-0.303846 0.703898,-0.814309 0.983334,-1.2402482 0.245957,-0.3749074 0.03857,-0.8769269 0.213364,-1.2995814 0.08999,-0.217591 0.0765,-0.7886321 0.229074,-0.9931308 0.196386,-0.2632172 0.554381,-0.1603911 0.565894,-0.4572878 0.01259,-0.3245614 -0.03841,-0.7996958 0.02132,-1.2350151 C 36.653365,4.0016604 36.82656,3.7279154 36.784974,3.4917029 36.651559,2.7338163 36.080489,2.3442134 35.551422,1.84367 35.303624,1.6092317 35.171142,2.2429224 34.827748,2.1839407 34.550053,2.1362437 34.087967,2.0474975 33.745363,1.8248585 33.481115,1.6531381 33.331709,1.3361202 33.12138,1.3040007 33.008716,1.2867958 32.84602,1.3532994 32.692925,1.2652219 32.5387,1.1764944 32.394057,0.93313626 32.276267,0.90325906 c -0.443147,-0.1124028 -0.755178,0.0406907 -1.13161,0.14231604 -0.167472,0.045212 -0.39968,-0.041069 -0.572788,0.042365 -0.280544,0.1352157 0.05538,1.0367696 -0.05609,1.4037631 -0.130178,0.4286115 -0.705427,0.3168333 -1.067426,0.281508 -0.34414,-0.033582 -0.838214,-0.3445666 -0.893236,-0.7428955 -0.07651,-0.5538723 0.332842,-1.26653834 -0.05743,-1.54734474 -0.219666,-0.1580525 -0.501359,-0.2096915 -0.769063,-0.2853044 -0.132201,-0.03734 -0.236484,-0.1458747 -0.37632,-0.1476415 -0.193349,-0.00244 -0.392554,0.1837099 -0.590127,0.2302988 -0.250209,0.059001 -0.497803,-0.014512 -0.727579,0.029799 -0.362704,0.069945 -0.621273,0.5054459 -0.985665,0.6291591 -0.646065,0.21934284 -1.370066,0.080749 -1.779908,0.59158234 -0.170984,0.2131173 -0.323108,0.5354012 -0.337037,0.8528703 -0.01475,0.3361011 0.109737,0.6681108 -0.05187,0.9080218 -0.107356,0.1593711 -0.483089,0.136043 -0.625279,0.2723584 -0.276281,0.2648669 -0.464688,0.5880006 -0.753377,0.6474224 -0.0819,0.016858 -0.171869,-0.2557153 -0.274206,-0.2283875 -0.08168,0.021812 -0.155327,0.4786161 -0.24169,0.4867802 -0.06155,0.00582 -0.12856,-0.4628378 -0.187494,-0.486751 -0.11708,-0.047506 -0.34879,-0.1062952 -0.436748,0.05884 -0.09149,0.1717762 -0.03897,0.5690075 -0.148614,0.5838569 -0.113159,0.015325 -0.393842,0.2354254 -0.512641,0.1748494 -0.160082,-0.081626 -0.151661,-0.5456514 -0.259506,-0.6877467 -0.111533,-0.1469561 -0.338401,0.030874 -0.449533,0.1294442 -0.138006,0.1224065 0.217816,0.5531967 0.195767,0.7344735 -0.05028,0.4133906 -0.44718,0.6636367 -0.390219,1.0804337 0.0274,0.2005163 -0.04201,0.4832577 0.07051,0.6772882 0.11097,0.1913527 0.0845,0.7010489 0.222543,0.872801 0.201008,0.2500943 0.545086,0.1588272 0.46316,0.4376666 -0.06497,0.2211216 -0.297132,0.2109615 -0.427921,0.386764 -0.155416,0.2089045 -0.259313,0.5497245 -0.4709,0.7281575 -0.289264,0.243936 -0.530696,0.579792 -0.877454,0.780484 -0.114592,0.06632 -0.382303,0.0902 -0.486811,0.2077068 -0.152708,0.171697 -0.140897,0.445189 -0.312891,0.532863 -0.420108,0.214151 -0.886634,0.157009 -1.140261,0.518506 -0.07276,0.103702 -0.262443,0.22613 -0.260583,0.355899 0.0033,0.233502 0.24008,0.490773 0.147661,0.705484 -0.174065,0.404388 -0.706423,0.713129 -0.708108,1.142433 -0.002,0.50578 0.748447,0.975484 0.518545,1.425998 -0.38132,0.74723 -1.669806,0.31569 -2.419876,0.691394 -0.160617,0.08045 0.02895,0.807993 -0.108531,0.934763 -0.499682,0.460773 -1.230464,0.503962 -1.879225,0.57766 -0.155468,0.01766 -0.342482,0.254975 -0.481857,0.161224 -0.29705,-0.199813 -0.530782,-0.831939 -0.8577178,-0.766193 -0.266364,0.05357 -0.282577,0.510065 -0.461868,0.732204 -0.197333,0.244493 -0.5511127,0.26446 -0.7048577,0.520946 -0.132707,0.22139 0.1741536,0.771373 0.079997,1.017162 -0.1002541,0.261705 -0.5973671,0.220432 -0.5985416,0.495261 -0.00127,0.296043 0.3244345,0.333478 0.4779907,0.614317 0.2317816,0.423905 0.1281407,0.967467 0.1468888,1.457447 0.00705,0.184309 -0.05459,0.33943 -0.1063344,0.499355 -0.174742,0.54007 -0.7053092,0.554906 -1.0370901,1.015483 -0.1564355,0.217164 0.089969,0.647199 0.025989,0.91413 -0.040574,0.169279 -0.4255591,0.169628 -0.414898,0.339021 0.021744,0.345489 0.2207675,0.775432 0.4064733,1.080407 0.094395,0.155021 0.3055264,0.181611 0.2417077,0.345591 -0.078744,0.20233 -0.1941201,0.365155 -0.424266,0.414649 -0.2129393,0.04579 -0.4560347,0.257116 -0.6966658,0.281093 -0.2492122,0.02483 -0.4942127,-0.135597 -0.6075514,0.03886 -0.072657,0.111841 -0.3798765,0.458575 -0.3320784,0.697307 0.043342,0.216474 0.4400438,0.324941 0.422804,0.446896 -0.051066,0.361242 0.02788,0.655424 0.012379,0.907405 -0.010898,0.177148 -0.1504315,0.306119 -0.059892,0.541118 0.095185,0.247058 0.5343137,0.17808 0.7693676,0.353339 0.1727585,0.12881 0.1806373,0.493869 0.1380861,0.683751 -0.060061,0.268017 -0.4977995,0.01281 -0.7793262,0.125733 -0.3465911,0.139025 -0.5678303,0.613194 -0.905945,0.608872 -0.1872803,-0.0024 -0.6092646,0.162814 -0.7762162,0.07265 C 4.3627233,30.501457 4.3628435,30.080643 4.1916732,29.866562 4.0275827,29.661336 3.6929507,29.649294 3.4346856,29.640321 3.2942088,29.635441 3.1016593,29.371175 2.9652255,29.403414 c -0.1955124,0.0462 -0.3007917,0.296873 -0.4756077,0.450328 -0.2255508,0.19799 -0.5165943,0.313128 -0.7402034,0.445564 -0.2172758,0.128686 -0.1418097,0.611743 -0.3703693,0.750527 -0.1728488,0.104955 -0.54054871,0.647388 -0.74907741,0.70521 -0.1256804,0.03485 -0.2034362,-0.177933 -0.2836499,-0.222348 -0.123547,-0.06841 -0.2232756,0.0254 -0.2821746,0.192609 -0.091251,0.259051 0.2769273,0.476395 0.3619905,0.755462 0.055798,0.183056 -0.2133287,0.441907 -0.1027179,0.584113 0.1076008,0.138337 0.5259772,-0.35105 0.68036351,-0.233934 0.1060328,0.08044 0.3192891,0.208368 0.3962639,0.354699 0.1570818,0.298616 0.156853,0.639664 0.3925833,0.570628 0.3932586,-0.11517 0.5435032,-0.705649 0.7119045,-1.113161 0.07631,-0.18466 0.053331,-0.409014 0.2387613,-0.399261 0.2607489,0.01371 0.4018466,0.468886 0.5505587,0.683301 0.2328478,0.335723 0.1834903,0.817267 0.2785866,1.202701 0.041957,0.170057 0.041772,0.279718 0.067505,0.458255 0.018274,0.126786 -0.2355229,0.0944 -0.210197,0.223834 0.030116,0.153914 -0.05996,0.473517 8.65e-4,0.652376 0.092268,0.271318 0.3209386,0.401493 0.1769231,0.582196 -0.1022422,0.128288 -0.5369522,-0.06697 -0.7251207,-0.04253 -0.2414045,0.03136 -0.2375126,0.277805 -0.3119693,0.47465 -0.129697,0.342887 0.2788637,0.667285 0.5239441,1.000114 0.1511364,0.205249 0.086124,0.447178 0.2538732,0.598734 0.2398749,0.21672 0.6462554,-0.01666 0.9717414,0.05636 0.1379128,0.03094 0.1903941,0.39166 0.3246212,0.418967 0.1558203,0.0317 0.3575972,-0.08328 0.5176966,-0.07867 0.07991,0.0023 0.00841,0.511474 0.087969,0.512539 0.079309,0.0011 0.3044677,0.123338 0.3904927,-0.01816 0.072255,-0.118848 0.00499,-0.503324 0.076656,-0.521339 0.2880731,-0.07241 0.4875562,0.250131 0.7721367,0.319442 0.1002302,0.02441 0.260921,0.159378 0.3782688,0.127394 0.1498487,-0.04084 0.2562717,-0.251729 0.3695049,-0.211569 0.1651228,0.05856 0.154785,0.228129 0.2986318,0.325916 0.091136,0.06195 0.012714,0.310001 0.1092712,0.375682 0.052923,0.036 0.2501472,-0.352357 0.3097248,-0.321688 0.1400576,0.0721 0.384169,0.146536 0.5167928,0.276127 0.084589,0.08265 0.3036279,0.122305 0.3663798,0.213617 0.1035255,0.150644 -0.2063904,0.435319 -0.077574,0.513131 0.2216935,0.133915 0.5475495,0.07706 0.8108625,0.20393 0.110996,0.05348 0.03698,0.319781 0.145724,0.383128 0.08756,0.05101 0.194903,-0.296069 0.2962988,-0.261297 0.151105,0.05182 0.472957,0.03369 0.629699,0.145562 0.199317,0.142255 0.231634,0.414724 0.396853,0.436131 0.247822,0.03211 0.36911,-0.232991 0.640162,-0.361418 0.394555,-0.186943 0.763177,-0.19589 1.113203,-0.106169 0.116253,0.0298 0.326568,-0.05447 0.407239,0.03547 0.191637,0.213642 -0.397698,0.569619 -0.259273,0.821028 0.12844,0.233274 0.538307,0.327195 0.725395,0.540058 0.09611,0.109346 0.03004,0.28984 0.05242,0.453821 0.01916,0.140372 0.261675,0.221368 0.209507,0.379509 -0.118304,0.358624 -0.415656,0.714276 -0.166294,0.916854 0.250006,0.203101 0.692039,0.215414 1.002221,0.04312 0.296084,-0.164458 0.467811,-0.5415 0.73685,-0.718819 0.174679,-0.115128 0.494387,-0.370701 0.691608,-0.339789 0.264461,0.04145 0.619788,0.171869 0.828373,0.381667 0.186169,0.187253 0.503364,0.248827 0.642466,0.466821 0.114507,0.179451 0.04913,0.520618 0.20363,0.642327 0.187308,0.147555 0.689108,-0.137205 0.875628,0.01271 0.119329,0.09591 0.136788,0.556895 0.266893,0.619277 0.07567,0.03628 0.282371,-0.355373 0.326182,-0.265079 0.0683,0.140759 0.183299,0.244117 0.220465,0.437982 0.0222,0.115827 0.150582,0.225073 0.162565,0.350612 0.01826,0.19131 -0.07665,0.39189 0.0064,0.486557 0.103889,0.118445 0.292613,0.117516 0.377202,0.25184 0.07743,0.12296 0.781537,-0.05611 0.843976,0.08286 0.0577,0.128422 0.195582,0.315817 0.183983,0.48016 -0.03167,0.448781 -0.340963,0.93493 -0.06559,1.172899 0.05485,0.0474 0.289509,0.313584 0.442712,0.247982 0.218477,-0.09355 0.371798,-0.538017 0.460648,-0.486398 0.163304,0.09488 0.149266,0.547822 0.316335,0.618972 0.116938,0.0498 0.427301,-0.296845 0.502722,-0.191077 0.07979,0.111891 -0.138474,0.559389 -0.08913,0.717339 0.05587,0.178834 0.378582,0.07322 0.527314,0.130272 0.127175,0.04878 0.209652,0.228223 0.334293,0.278667 0.149307,0.06042 0.451138,-0.275505 0.602348,-0.2264 0.07458,0.02422 0.04781,0.620212 0.11552,0.661215 0.102644,0.06216 0.208039,0.08733 0.315334,0.09631 0.09091,0.0076 0.193976,-0.3745 0.287088,-0.377461 0.156313,-0.005 0.304199,0.371105 0.46281,0.431911 0.133803,0.0513 0.54516,-0.166783 0.702544,-0.142739 0.166265,0.0254 0.30956,0.0714 0.433858,0.136686 0.125514,0.06593 -0.006,0.421591 0.08486,0.525496 0.03422,0.03913 0.116246,0.23006 0.260845,0.258526 0.230373,0.04535 0.553112,-0.07239 0.592073,0.01065 0.143223,0.305262 -0.745687,0.430008 -0.734605,0.767016 0.0037,0.113969 0.14152,0.19947 0.209709,0.303263 0.109228,0.166261 0.354361,0.333255 0.397996,0.503492 0.02311,0.09015 -0.103575,0.181207 -0.132373,0.273547 -0.07221,0.231521 -0.448088,0.241038 -0.688073,0.352832 -0.07716,0.03594 -0.261453,0.09851 -0.363555,0.0066 -0.156134,-0.140533 -0.235744,-0.468771 -0.352765,-0.44587 -0.263297,0.05152 -0.885067,-0.170981 -1.077541,-0.05212 -0.184664,0.114042 0.06019,0.570659 -0.197215,0.570659 -0.216726,0 -0.536845,0.09061 -0.818231,-0.105904 -0.326286,-0.227874 -0.615383,-0.745033 -0.866869,-0.702817 -0.20404,0.03425 -0.485131,0.364258 -0.598609,0.699246 -0.0649,0.191596 0.0064,0.396169 -0.04974,0.498383 -0.607835,1.106666 -1.733344,1.854141 -2.074181,3.024846 -0.160735,0.552094 -0.02693,0.963211 0.196967,1.488179 0.03434,0.08052 0.195224,0.232984 0.245963,0.305124 0.09786,0.139134 0.323274,0.132957 0.437527,0.243264 0.137264,0.132523 0.371793,0.220951 0.494032,0.37287 0.114674,0.142516 0.116274,0.349978 0.265673,0.435097 0.08102,0.04616 0.168812,-0.220979 0.26132,-0.192622 0.159058,0.04876 0.23484,0.336358 0.411395,0.439016 0.176019,0.102346 0.452791,0.01975 0.62555,0.06355 0.13512,0.03426 0.348013,-0.105504 0.486541,-0.0902 0.179289,0.01981 0.16817,0.273777 0.338068,0.306003 0.07212,0.01368 0.216755,0.05681 0.312591,-0.0048 0.103153,-0.06635 0.158329,-0.238661 0.256974,-0.247367 0.107934,-0.0095 0.250379,-0.02696 0.344549,0.0299 0.101799,0.06147 0.15447,0.198837 0.249033,0.222558 0.13823,0.03467 0.112926,0.463051 0.248442,0.506407 0.189153,0.06052 0.180186,0.494656 0.379711,0.533226 0.221791,0.04288 0.235894,0.352381 0.493789,0.327217 0.156224,-0.01524 0.384508,0.231841 0.575328,0.170976 0.09121,-0.02909 0.267653,0.236391 0.355171,0.182053 0.09465,-0.05876 0.457129,0.06504 0.530935,-0.04183 0.141959,-0.205558 -0.02581,-0.652078 0.09577,-0.597743 0.06869,0.0307 0.312484,-0.032 0.416636,0.0037 0.111733,0.03828 0.08395,0.175121 0.155705,0.212754 0.08914,0.04675 0.221067,-0.172175 0.340288,-0.211748 0.07356,-0.02442 0.142274,0.11311 0.193125,0.143565 0.161292,0.0966 0.62064,0.143167 0.762292,0.273009 0.106485,0.09761 0.398953,0.206199 0.466251,0.314207 0.124411,0.19967 0.183483,0.310114 0.23944,0.484415 0.01578,0.04915 0.160582,0.04372 0.148625,0.119685 -0.02861,0.181722 0.29739,0.554273 0.586449,0.571245 0.190118,0.01116 0.53643,0.374816 0.751993,0.335565 0.211803,-0.03857 0.593713,0.24158 0.796264,0.142622 0.160749,-0.07854 0.679576,0.06093 0.808053,-0.06122 0.294779,-0.280265 0.146992,-0.832124 0.406859,-0.666754 z"
     style="fill:none;fill-rule:evenodd;stroke:#000000;stroke-width:0.1;stroke-linecap:square;paint-order:markers fill stroke"
     id="path1" /><path
     d="m 43.837976,40.713417 c -0.228483,-0.132595 -0.111693,-0.422416 -0.02006,-0.731526 0.0536,-0.180827 0.02825,-0.388355 0.106492,-0.521623 0.08897,-0.151548 0.324361,-0.178137 0.479243,-0.315343 0.193703,-0.171598 0.317505,-0.430029 0.514633,-0.332838 0.215572,0.106284 0.04407,0.398297 0.0036,0.683313 -0.02279,0.160399 0.142055,0.318582 0.08286,0.4402 -0.120759,0.248082 -0.379909,0.426197 -0.642623,0.588658 -0.182342,0.112759 -0.358482,0.28528 -0.524113,0.189159 z"
     style="fill:none;fill-rule:evenodd;stroke:#000000;stroke-width:0.1;stroke-linecap:square;paint-order:markers fill stroke"
     id="path1-4" /><path
     d="m 48.072762,39.114571 c -0.299901,0.39077 -0.763769,-0.02686 -1.358897,-0.22913 -0.52365,-0.177979 -1.193768,-0.09092 -1.320253,-0.505475 -0.09141,-0.299604 0.390144,-0.518745 0.623552,-0.819761 0.276498,-0.356587 0.346486,-0.769533 0.716023,-0.735875 0.352041,0.03207 0.501166,0.597852 0.784928,0.943533 0.426176,0.519172 0.877882,0.925534 0.554647,1.346708 z"
     style="fill:none;fill-rule:evenodd;stroke:#000000;stroke-width:0.1;stroke-linecap:square;paint-order:markers fill stroke"
     id="path1-7" /></svg>
